{"glyphs":{"0":{"ha":772,"x_min":50,"x_max":722,"o":"m 386 992 q 556 944 490 992 q 659 822 622 896 q 709 658 696 747 q 722 486 722 569 q 709 314 722 403 q 659 151 696 225 q 556 28 622 76 q 386 -19 490 -19 q 216 28 282 -19 q 113 151 150 76 q 63 314 76 225 q 50 486 50 403 q 63 658 50 569 q 113 822 76 747 q 216 944 150 896 q 386 992 282 992 m 386 113 q 472 142 438 113 q 527 223 507 172 q 556 342 547 274 q 564 486 564 410 q 556 630 564 563 q 527 749 547 697 q 472 830 507 800 q 386 860 438 860 q 299 830 333 860 q 245 749 265 800 q 217 630 225 697 q 208 486 208 563 q 217 342 208 410 q 245 223 225 274 q 299 142 265 172 q 386 113 333 113 z "},"1":{"ha":772,"x_min":74,"x_max":486,"o":"m 74 811 q 171 819 124 811 q 256 847 218 828 q 322 897 294 867 q 357 972 349 928 l 486 972 l 486 0 l 313 0 l 313 686 l 74 686 l 74 811 z "},"2":{"ha":772,"x_min":54,"x_max":719,"o":"m 718 0 l 54 0 q 113 211 56 121 q 268 368 169 301 q 367 435 315 403 q 461 506 418 468 q 532 587 504 543 q 561 688 560 631 q 555 744 561 714 q 531 799 549 774 q 481 842 513 825 q 397 860 449 860 q 319 841 350 860 q 269 790 288 822 q 241 713 250 757 q 231 617 232 668 l 72 617 q 94 766 72 697 q 158 885 115 835 q 263 963 201 935 q 407 992 325 992 q 556 963 496 992 q 652 889 615 933 q 704 792 689 844 q 719 693 719 740 q 701 588 719 635 q 653 501 683 540 q 583 428 622 461 q 503 365 544 394 q 419 310 461 336 q 342 257 378 283 q 281 202 307 231 q 244 142 254 174 l 718 142 l 718 0 z "},"3":{"ha":772,"x_min":43,"x_max":729,"o":"m 317 569 q 394 575 356 568 q 464 599 433 582 q 513 647 494 617 q 532 722 532 678 q 490 822 532 785 q 381 860 447 860 q 308 843 339 860 q 258 798 278 826 q 228 734 238 769 q 219 661 218 699 l 61 661 q 88 792 64 732 q 152 897 111 853 q 251 967 193 942 q 383 992 310 992 q 495 975 440 992 q 594 926 550 958 q 664 845 638 894 q 690 732 690 796 q 657 603 690 658 q 553 524 624 549 l 553 521 q 683 438 636 504 q 729 278 729 372 q 701 153 729 208 q 626 60 674 99 q 517 1 579 22 q 385 -19 454 -19 q 237 5 300 -19 q 131 74 174 29 q 67 181 89 118 q 43 319 44 243 l 201 319 q 245 172 199 231 q 385 113 292 113 q 517 158 464 113 q 571 286 571 203 q 549 376 571 343 q 490 427 526 410 q 409 449 454 444 q 317 451 364 453 l 317 569 z "},"4":{"ha":772,"x_min":33,"x_max":725,"o":"m 156 356 l 450 356 l 450 783 l 447 783 l 156 356 m 725 231 l 600 231 l 600 0 l 450 0 l 450 231 l 33 231 l 33 388 l 450 972 l 600 972 l 600 356 l 725 356 l 725 231 z "},"5":{"ha":772,"x_min":49,"x_max":725,"o":"m 171 972 l 674 972 l 674 831 l 289 831 l 239 583 l 242 581 q 323 635 274 617 q 421 654 372 654 q 550 630 493 654 q 646 562 607 606 q 705 458 685 518 q 725 329 725 399 q 706 209 725 271 q 647 97 688 147 q 542 13 606 46 q 389 -19 478 -19 q 258 -1 318 -19 q 151 56 197 18 q 78 148 106 93 q 49 276 51 203 l 207 276 q 261 155 214 197 q 386 113 308 113 q 471 129 436 113 q 527 175 506 146 q 558 243 549 204 q 567 326 567 282 q 556 403 567 367 q 522 468 544 440 q 465 513 500 496 q 382 529 429 529 q 288 510 332 529 q 225 440 244 492 l 67 440 l 171 972 z "},"6":{"ha":772,"x_min":47,"x_max":725,"o":"m 549 726 q 506 823 543 786 q 407 860 469 860 q 333 844 364 860 q 280 801 301 828 q 245 741 258 775 q 224 669 232 707 q 212 595 215 632 q 206 526 208 558 l 208 524 q 297 610 240 582 q 418 639 353 639 q 547 614 490 639 q 644 545 604 589 q 704 442 683 501 q 725 313 725 382 q 702 181 725 242 q 636 76 679 121 q 533 6 593 31 q 401 -19 474 -19 q 226 20 294 -19 q 117 128 157 60 q 63 290 78 197 q 47 489 47 382 q 66 665 47 576 q 128 827 85 754 q 241 946 171 900 q 414 992 311 992 q 524 972 472 992 q 615 918 575 953 q 679 835 654 883 q 707 726 704 786 l 549 726 m 396 113 q 471 130 439 113 q 524 175 503 147 q 556 240 546 203 q 567 315 567 276 q 556 390 567 354 q 524 453 546 426 q 471 497 503 481 q 396 514 439 514 q 320 498 353 514 q 265 455 288 482 q 232 392 243 428 q 221 315 221 356 q 232 239 221 275 q 265 174 243 203 q 320 129 288 146 q 396 113 353 113 z "},"7":{"ha":772,"x_min":49,"x_max":714,"o":"m 49 972 l 714 972 l 714 840 q 575 662 638 754 q 466 466 513 569 q 390 247 419 363 q 351 0 361 132 l 178 0 q 217 228 186 115 q 298 446 249 340 q 413 649 347 551 q 553 831 478 746 l 49 831 l 49 972 z "},"8":{"ha":772,"x_min":43,"x_max":729,"o":"m 386 867 q 278 828 322 867 q 233 718 233 790 q 276 612 233 649 q 386 575 319 575 q 496 612 453 575 q 539 718 539 649 q 494 828 539 790 q 386 867 450 867 m 386 -19 q 249 1 313 -19 q 140 62 186 22 q 69 158 94 101 q 43 286 43 215 q 91 440 43 378 q 221 524 139 503 l 221 526 q 119 603 154 551 q 83 726 83 656 q 162 922 83 851 q 386 992 240 992 q 610 922 532 992 q 689 726 689 851 q 653 603 689 656 q 551 526 618 551 l 551 524 q 681 440 633 503 q 729 286 729 378 q 703 158 729 215 q 632 62 678 101 q 523 1 586 22 q 386 -19 460 -19 m 386 106 q 518 153 465 106 q 571 286 571 200 q 518 412 571 367 q 386 457 465 457 q 254 412 307 457 q 201 286 201 367 q 254 153 201 200 q 386 106 307 106 z "},"9":{"ha":772,"x_min":47,"x_max":725,"o":"m 224 246 q 266 149 229 186 q 365 113 303 113 q 467 147 429 113 q 526 231 506 181 q 555 340 547 282 q 567 446 563 397 l 564 449 q 476 362 532 392 q 354 332 421 332 q 228 356 285 332 q 132 422 172 379 q 69 524 92 464 q 47 660 47 585 q 69 791 47 731 q 135 897 92 851 q 240 967 178 942 q 382 992 303 992 q 551 952 485 992 q 656 844 618 913 q 710 682 694 775 q 725 483 725 589 q 706 307 725 396 q 644 145 688 218 q 531 26 601 72 q 358 -19 461 -19 q 249 0 300 -19 q 158 54 197 19 q 93 138 118 89 q 65 246 68 186 l 224 246 m 375 860 q 300 844 332 860 q 247 800 268 828 q 216 736 226 772 q 206 661 206 700 q 216 584 206 621 q 247 519 226 547 q 300 474 268 492 q 375 457 332 457 q 453 474 419 457 q 508 519 486 490 q 540 584 529 547 q 551 661 551 621 q 540 736 551 700 q 508 799 529 772 q 453 843 486 826 q 375 860 419 860 z "}," ":{"ha":386,"x_min":0,"x_max":0,"o":""},"!":{"ha":386,"x_min":100,"x_max":286,"o":"m 100 174 l 286 174 l 286 0 l 100 0 l 100 174 m 107 992 l 281 992 l 281 706 l 235 276 l 153 276 l 107 706 l 107 992 z "},"\"":{"ha":617,"x_min":115,"x_max":501,"o":"m 360 992 l 501 992 l 501 600 l 360 600 l 360 992 m 115 992 l 257 992 l 257 600 l 115 600 l 115 992 z "},"#":{"ha":772,"x_min":47,"x_max":728,"o":"m 329 576 l 304 396 l 458 396 l 483 576 l 329 576 m 688 292 l 556 292 l 514 0 l 403 0 l 443 292 l 290 292 l 249 0 l 138 0 l 178 292 l 47 292 l 47 396 l 193 396 l 218 576 l 88 576 l 88 681 l 232 681 l 272 972 l 385 972 l 343 681 l 497 681 l 538 972 l 650 972 l 608 681 l 728 681 l 728 576 l 594 576 l 569 396 l 688 396 l 688 292 z "},"$":{"ha":772,"x_min":22,"x_max":749,"o":"m 360 890 q 244 859 285 890 q 203 754 203 828 q 217 697 203 721 q 252 657 231 674 q 302 630 274 640 q 360 613 331 619 l 360 890 m 182 301 q 222 157 181 210 q 360 101 264 104 l 360 438 q 247 474 303 453 q 145 530 190 496 q 72 615 100 564 q 44 743 44 667 q 70 860 44 810 q 140 945 96 911 q 240 997 183 979 q 360 1015 297 1015 l 360 1124 l 419 1124 l 419 1015 q 538 999 482 1015 q 634 949 593 982 q 699 864 675 915 q 724 744 724 813 l 565 744 q 528 853 563 815 q 419 890 494 890 l 419 597 q 542 558 482 581 q 647 501 601 536 q 721 415 693 467 q 749 289 749 364 q 723 153 749 211 q 653 58 697 96 q 549 -1 608 19 q 419 -24 489 -21 l 419 -132 l 360 -132 l 360 -24 q 222 0 285 -22 q 115 63 160 22 q 47 164 71 104 q 24 301 22 224 l 182 301 m 419 101 q 542 145 494 107 q 590 267 590 183 q 576 332 590 306 q 537 376 561 358 q 482 406 513 394 q 419 425 451 417 l 419 101 z "},"%":{"ha":1389,"x_min":114,"x_max":1275,"o":"m 239 715 q 244 642 239 676 q 263 583 250 608 q 295 544 275 558 q 344 529 315 529 q 394 544 374 529 q 428 583 415 558 q 447 642 440 608 q 453 715 453 676 q 448 783 453 750 q 431 843 443 817 q 397 885 418 869 q 344 901 376 901 q 292 885 313 901 q 259 843 271 869 q 243 783 247 817 q 239 715 239 750 m 346 439 q 239 461 283 439 q 167 521 194 483 q 126 608 139 558 q 114 715 114 658 q 127 822 114 771 q 169 910 140 872 q 241 969 197 947 q 346 992 285 992 q 451 969 407 992 q 523 910 494 947 q 565 822 551 872 q 578 715 578 771 q 565 608 578 658 q 525 521 553 558 q 453 461 497 483 q 346 439 408 439 m 936 257 q 942 184 936 218 q 960 125 947 150 q 992 85 972 100 q 1042 71 1013 71 q 1092 85 1071 71 q 1125 125 1113 100 q 1144 184 1138 150 q 1150 257 1150 218 q 1145 325 1150 292 q 1128 385 1140 358 q 1094 427 1115 411 q 1042 443 1074 443 q 989 427 1010 443 q 956 385 968 411 q 940 325 944 358 q 936 257 936 292 m 1043 -19 q 936 3 981 -19 q 864 63 892 25 q 824 150 836 100 q 811 257 811 200 q 824 363 811 313 q 866 451 838 414 q 938 511 894 489 q 1043 533 982 533 q 1148 511 1104 533 q 1220 451 1192 489 q 1262 363 1249 414 q 1275 257 1275 313 q 1263 150 1275 200 q 1222 63 1250 100 q 1150 3 1194 25 q 1043 -19 1106 -19 m 901 1006 l 1007 1006 l 469 -33 l 361 -33 l 901 1006 z "},"&":{"ha":900,"x_min":44,"x_max":919,"o":"m 635 111 q 512 12 579 43 q 357 -19 444 -19 q 231 1 289 -19 q 132 58 174 21 q 67 151 90 96 q 44 275 44 206 q 64 371 44 328 q 115 449 83 414 q 188 513 147 485 q 272 563 229 540 q 235 612 253 588 q 203 663 217 636 q 181 718 189 689 q 172 779 172 747 q 191 876 172 833 q 243 951 210 919 q 321 999 276 982 q 415 1015 365 1015 q 508 1001 463 1015 q 587 956 553 986 q 642 882 621 926 q 663 778 663 838 q 648 696 663 733 q 609 627 633 658 q 552 571 585 596 q 483 526 519 546 l 638 340 q 654 394 646 364 q 668 474 663 425 l 807 474 q 781 346 800 408 q 729 231 763 283 l 919 0 l 725 0 l 635 111 m 356 458 q 307 431 333 444 q 258 396 281 417 q 219 346 235 375 q 203 272 203 317 q 248 149 203 192 q 363 106 293 106 q 436 117 406 106 q 488 146 467 129 q 524 182 510 163 q 550 217 539 201 l 356 458 m 419 897 q 344 867 375 897 q 314 788 314 838 q 323 741 314 763 q 345 699 332 719 q 374 660 358 679 q 404 622 390 640 q 447 653 426 638 q 485 688 468 669 q 511 731 501 707 q 521 783 521 754 q 493 865 521 832 q 419 897 465 897 z "},"'":{"ha":386,"x_min":122,"x_max":264,"o":"m 122 992 l 264 992 l 264 600 l 122 600 l 122 992 z "},"(":{"ha":386,"x_min":68,"x_max":397,"o":"m 268 -265 q 190 -128 226 -199 q 126 22 153 -57 q 83 188 99 100 q 68 375 68 275 q 120 706 68 543 q 268 1015 172 868 l 397 1015 q 270 708 314 865 q 226 375 226 550 q 268 42 226 200 q 397 -265 310 -117 l 268 -265 z "},")":{"ha":386,"x_min":-11,"x_max":318,"o":"m 118 1015 q 196 877 160 949 q 259 727 232 806 q 302 561 286 649 q 318 374 318 474 q 266 43 318 206 q 118 -265 214 -119 l -11 -265 q 116 41 72 -117 q 160 374 160 199 q 118 707 160 549 q -11 1015 76 865 l 118 1015 z "},"*":{"ha":514,"x_min":26,"x_max":489,"o":"m 26 794 l 57 885 l 210 825 l 210 992 l 304 992 l 304 825 l 456 885 l 489 794 l 331 742 l 428 611 l 354 557 l 256 693 l 161 557 l 83 611 l 181 742 l 26 794 z "},"+":{"ha":833,"x_min":67,"x_max":767,"o":"m 346 703 l 488 703 l 488 422 l 767 422 l 767 281 l 488 281 l 488 0 l 346 0 l 346 281 l 67 281 l 67 422 l 346 422 l 346 703 z "},",":{"ha":386,"x_min":96,"x_max":289,"o":"m 96 188 l 289 188 l 289 0 q 236 -144 288 -86 q 101 -219 185 -203 l 101 -135 q 170 -84 147 -124 q 192 0 193 -44 l 96 0 l 96 188 z "},"-":{"ha":540,"x_min":68,"x_max":472,"o":"m 68 453 l 472 453 l 472 303 l 68 303 l 68 453 z "},".":{"ha":386,"x_min":96,"x_max":289,"o":"m 96 188 l 289 188 l 289 0 l 96 0 l 96 188 z "},"/":{"ha":489,"x_min":-31,"x_max":519,"o":"m 368 1015 l 519 1015 l 121 -24 l -31 -24 l 368 1015 z "},":":{"ha":386,"x_min":96,"x_max":289,"o":"m 96 188 l 289 188 l 289 0 l 96 0 l 96 188 m 96 703 l 289 703 l 289 515 l 96 515 l 96 703 z "},";":{"ha":386,"x_min":96,"x_max":289,"o":"m 96 703 l 289 703 l 289 515 l 96 515 l 96 703 m 96 188 l 289 188 l 289 0 q 236 -144 288 -86 q 101 -219 185 -203 l 101 -135 q 170 -84 147 -124 q 192 0 193 -44 l 96 0 l 96 188 z "},"<":{"ha":833,"x_min":64,"x_max":769,"o":"m 769 -11 l 64 301 l 64 401 l 769 714 l 769 572 l 250 351 l 769 131 l 769 -11 z "},"=":{"ha":833,"x_min":67,"x_max":767,"o":"m 767 140 l 67 140 l 67 282 l 767 282 l 767 140 m 767 421 l 67 421 l 67 563 l 767 563 l 767 421 z "},">":{"ha":833,"x_min":64,"x_max":769,"o":"m 583 351 l 64 572 l 64 714 l 769 401 l 769 301 l 64 -11 l 64 131 l 583 351 z "},"?":{"ha":772,"x_min":68,"x_max":704,"o":"m 289 174 l 475 174 l 475 0 l 289 0 l 289 174 m 68 676 q 91 815 68 753 q 158 922 114 878 q 263 991 201 967 q 401 1015 325 1015 q 520 997 465 1015 q 616 942 575 978 q 681 854 657 907 q 704 735 704 801 q 694 651 704 686 q 666 590 683 615 q 626 544 649 564 q 582 504 604 524 q 533 461 556 482 q 494 415 511 440 q 469 354 478 389 q 460 269 460 319 l 310 269 q 316 373 310 331 q 336 447 322 415 q 370 503 350 479 q 418 551 390 528 q 460 588 440 571 q 497 624 481 604 q 522 669 513 644 q 531 729 531 694 q 516 801 531 771 q 481 849 501 831 q 436 875 460 867 q 394 883 413 883 q 267 827 308 883 q 226 676 226 771 l 68 676 z "},"@":{"ha":1111,"x_min":68,"x_max":1043,"o":"m 754 388 q 745 354 749 371 q 742 324 742 338 q 748 301 742 310 q 768 292 754 292 q 833 315 800 292 q 891 378 865 338 q 933 473 917 418 q 949 592 949 528 q 919 731 949 669 q 840 836 890 793 q 722 902 789 879 q 578 925 654 925 q 416 892 489 925 q 290 803 343 860 q 208 672 238 747 q 179 508 179 596 q 210 325 179 407 q 297 186 242 243 q 427 98 351 129 q 590 67 503 67 q 764 103 682 67 q 903 204 846 139 l 1000 204 q 824 36 933 96 q 585 -24 714 -24 q 383 16 478 -24 q 219 126 289 56 q 108 296 149 197 q 68 514 68 394 q 109 710 68 619 q 219 869 150 801 q 381 976 289 938 q 578 1015 474 1015 q 755 985 671 1015 q 903 901 839 956 q 1005 772 967 847 q 1043 608 1043 697 q 1008 426 1043 504 q 922 297 972 349 q 814 220 871 246 q 715 194 757 194 q 660 215 683 194 q 633 275 636 235 l 631 275 q 561 219 603 243 q 475 196 519 196 q 394 213 432 196 q 330 260 357 231 q 288 330 303 290 q 272 414 272 369 q 294 544 272 481 q 356 660 317 608 q 452 742 396 711 q 576 774 508 774 q 665 750 625 774 q 732 674 706 726 l 757 753 l 854 753 l 754 388 m 501 300 q 578 324 543 300 q 638 385 613 349 q 677 466 663 422 q 692 547 692 510 q 683 594 692 572 q 659 633 674 617 q 624 660 644 650 q 582 669 604 669 q 503 646 539 669 q 443 587 468 622 q 404 508 418 551 q 390 426 390 465 q 420 335 390 371 q 501 300 450 300 z "},"A":{"ha":926,"x_min":-10,"x_max":938,"o":"m 371 992 l 556 992 l 938 0 l 751 0 l 658 263 l 263 263 l 169 0 l -10 0 l 371 992 m 310 394 l 613 394 l 464 821 l 460 821 l 310 394 z "},"B":{"ha":978,"x_min":106,"x_max":926,"o":"m 279 576 l 563 576 q 667 612 625 576 q 708 714 708 647 q 671 819 708 789 q 563 850 633 850 l 279 850 l 279 576 m 106 992 l 588 992 q 801 931 721 992 q 882 746 882 869 q 845 617 882 671 q 740 535 808 564 l 740 532 q 879 445 832 513 q 926 276 926 378 q 906 167 926 218 q 840 80 885 117 q 726 22 796 43 q 561 0 657 0 l 106 0 l 106 992 m 279 142 l 586 142 q 709 183 665 142 q 753 299 753 224 q 709 412 753 372 q 586 451 665 451 l 279 451 l 279 142 z "},"C":{"ha":1003,"x_min":53,"x_max":950,"o":"m 775 676 q 744 756 764 719 q 694 818 725 792 q 623 859 664 844 q 528 874 582 874 q 391 842 449 874 q 297 756 333 810 q 244 635 261 703 q 226 496 226 567 q 244 357 226 425 q 297 235 261 289 q 391 150 333 182 q 528 118 449 118 q 631 138 586 118 q 707 194 675 158 q 757 276 739 229 q 781 378 775 324 l 950 378 q 912 215 944 289 q 824 88 879 142 q 693 6 768 35 q 528 -24 618 -24 q 328 17 417 -24 q 179 129 240 58 q 85 294 118 200 q 53 496 53 389 q 85 696 53 601 q 179 861 118 790 q 328 974 240 932 q 528 1015 417 1015 q 685 992 611 1015 q 815 926 758 969 q 906 819 871 882 q 949 676 940 757 l 775 676 z "},"D":{"ha":1003,"x_min":106,"x_max":954,"o":"m 106 992 l 517 992 q 714 953 631 992 q 850 847 797 914 q 928 689 903 779 q 954 496 954 599 q 928 303 954 393 q 850 145 903 213 q 714 39 797 78 q 517 0 631 0 l 106 0 l 106 992 m 279 142 l 450 142 q 616 169 551 142 q 717 244 681 196 q 767 356 754 292 q 781 496 781 421 q 767 635 781 571 q 717 748 754 700 q 616 823 681 796 q 450 850 551 850 l 279 850 l 279 142 z "},"E":{"ha":875,"x_min":106,"x_max":829,"o":"m 106 992 l 819 992 l 819 842 l 279 842 l 279 582 l 779 582 l 779 440 l 279 440 l 279 150 l 829 150 l 829 0 l 106 0 l 106 992 z "},"F":{"ha":824,"x_min":106,"x_max":790,"o":"m 106 992 l 790 992 l 790 842 l 279 842 l 279 582 l 728 582 l 728 440 l 279 440 l 279 0 l 106 0 l 106 992 z "},"G":{"ha":1054,"x_min":60,"x_max":971,"o":"m 971 0 l 860 0 l 833 117 q 694 7 764 38 q 535 -24 625 -24 q 335 17 424 -24 q 186 129 247 58 q 92 294 125 200 q 60 496 60 389 q 92 696 60 601 q 186 861 125 790 q 335 974 247 932 q 535 1015 424 1015 q 688 994 615 1015 q 818 930 761 972 q 913 824 875 888 q 960 676 950 760 l 790 676 q 760 762 783 725 q 703 824 738 799 q 625 861 668 849 q 535 874 582 874 q 398 842 456 874 q 304 756 340 810 q 251 635 268 703 q 233 496 233 567 q 251 357 233 425 q 304 235 268 289 q 398 150 340 182 q 535 118 456 118 q 653 135 601 117 q 740 190 704 154 q 793 276 775 225 q 813 390 811 328 l 549 390 l 549 522 l 971 522 l 971 0 z "},"H":{"ha":1003,"x_min":101,"x_max":900,"o":"m 101 992 l 275 992 l 275 597 l 726 597 l 726 992 l 900 992 l 900 0 l 726 0 l 726 447 l 275 447 l 275 0 l 101 0 l 101 992 z "},"I":{"ha":386,"x_min":106,"x_max":279,"o":"m 106 992 l 279 992 l 279 0 l 106 0 l 106 992 z "},"J":{"ha":746,"x_min":18,"x_max":640,"o":"m 640 319 q 629 193 640 254 q 584 83 618 132 q 485 6 550 35 q 314 -24 421 -24 q 179 1 235 -24 q 88 67 124 25 q 35 168 51 110 q 18 294 18 226 l 18 347 l 192 347 l 192 296 q 220 165 192 211 q 328 118 249 118 q 397 131 369 118 q 440 167 424 143 q 461 228 456 192 q 467 310 467 264 l 467 992 l 640 992 l 640 319 z "},"K":{"ha":951,"x_min":106,"x_max":963,"o":"m 106 992 l 279 992 l 279 540 l 721 992 l 935 992 l 539 596 l 963 0 l 746 0 l 421 474 l 279 333 l 279 0 l 106 0 l 106 992 z "},"L":{"ha":797,"x_min":106,"x_max":783,"o":"m 106 992 l 279 992 l 279 150 l 783 150 l 783 0 l 106 0 l 106 992 z "},"M":{"ha":1235,"x_min":103,"x_max":1132,"o":"m 103 992 l 347 992 l 621 215 l 624 215 l 890 992 l 1132 992 l 1132 0 l 967 0 l 967 765 l 964 765 l 689 0 l 546 0 l 271 765 l 268 765 l 268 0 l 103 0 l 103 992 z "},"N":{"ha":1003,"x_min":99,"x_max":903,"o":"m 99 992 l 282 992 l 735 261 l 738 261 l 738 992 l 903 992 l 903 0 l 719 0 l 268 729 l 264 729 l 264 0 l 99 0 l 99 992 z "},"O":{"ha":1056,"x_min":53,"x_max":1003,"o":"m 528 874 q 391 842 449 874 q 297 756 333 810 q 244 635 261 703 q 226 496 226 567 q 244 357 226 425 q 297 235 261 289 q 391 150 333 182 q 528 118 449 118 q 665 150 607 118 q 758 235 722 182 q 812 357 794 289 q 829 496 829 425 q 812 635 829 567 q 758 756 794 703 q 665 842 722 810 q 528 874 607 874 m 528 1015 q 727 974 639 1015 q 876 861 815 932 q 970 696 938 790 q 1003 496 1003 601 q 970 294 1003 389 q 876 129 938 200 q 727 17 815 58 q 528 -24 639 -24 q 328 17 417 -24 q 179 129 240 58 q 85 294 118 200 q 53 496 53 389 q 85 696 53 601 q 179 861 118 790 q 328 974 240 932 q 528 1015 417 1015 z "},"P":{"ha":926,"x_min":106,"x_max":881,"o":"m 106 992 l 543 992 q 715 961 649 992 q 818 885 782 931 q 867 785 854 839 q 881 685 881 731 q 867 585 881 639 q 818 486 854 532 q 715 410 782 440 q 543 381 649 381 l 279 381 l 279 0 l 106 0 l 106 992 m 279 522 l 533 522 q 593 531 563 522 q 649 558 624 539 q 691 608 675 576 q 707 686 707 639 q 693 767 707 735 q 656 817 679 799 q 601 843 632 836 q 536 850 571 850 l 279 850 l 279 522 z "},"Q":{"ha":1056,"x_min":53,"x_max":1003,"o":"m 990 4 l 906 -90 l 761 36 q 646 -10 706 4 q 528 -24 586 -24 q 328 17 417 -24 q 179 129 240 58 q 85 294 118 200 q 53 496 53 389 q 85 696 53 601 q 179 861 118 790 q 328 974 240 932 q 528 1015 417 1015 q 727 974 639 1015 q 876 861 815 932 q 970 696 938 790 q 1003 496 1003 601 q 994 392 1003 444 q 969 290 986 340 q 926 195 953 240 q 863 115 900 150 l 990 4 m 539 229 l 622 325 l 743 219 q 810 349 790 276 q 829 496 829 421 q 812 635 829 567 q 758 756 794 703 q 665 842 722 810 q 528 874 607 874 q 391 842 449 874 q 297 756 333 810 q 244 635 261 703 q 226 496 226 567 q 244 357 226 425 q 297 235 261 289 q 391 150 333 182 q 528 118 449 118 q 584 124 556 118 q 639 142 613 129 l 539 229 z "},"R":{"ha":978,"x_min":106,"x_max":944,"o":"m 106 992 l 579 992 q 825 921 743 992 q 907 724 907 850 q 886 606 907 653 q 838 531 865 560 q 783 490 810 503 q 743 474 756 478 l 743 471 q 791 457 765 468 q 839 422 817 446 q 876 358 861 397 q 890 261 890 319 q 903 102 890 174 q 944 0 917 31 l 758 0 q 735 71 739 32 q 732 146 732 110 q 724 263 732 214 q 693 345 715 313 q 633 393 671 378 q 535 408 594 408 l 279 408 l 279 0 l 106 0 l 106 992 m 279 540 l 564 540 q 690 580 647 540 q 733 699 733 619 q 719 776 733 746 q 681 822 706 806 q 626 844 657 839 q 561 850 594 850 l 279 850 l 279 540 z "},"S":{"ha":900,"x_min":46,"x_max":854,"o":"m 219 331 q 239 233 219 274 q 293 167 258 193 q 373 130 328 142 q 471 118 418 118 q 568 131 528 118 q 633 165 608 144 q 669 213 658 186 q 681 268 681 240 q 655 352 681 325 q 599 390 629 379 q 476 427 546 410 q 303 472 406 444 q 197 516 239 489 q 129 576 154 543 q 94 647 104 610 q 83 724 83 685 q 115 853 83 799 q 197 944 146 908 q 314 998 249 981 q 446 1015 379 1015 q 592 995 524 1015 q 713 935 661 975 q 796 835 765 894 q 826 699 826 776 l 653 699 q 588 834 646 794 q 439 874 529 874 q 376 867 408 874 q 318 847 344 861 q 274 807 292 832 q 257 744 257 782 q 290 662 257 692 q 375 617 322 632 q 419 605 381 615 q 504 582 457 594 q 597 558 551 569 q 661 540 642 546 q 746 499 710 525 q 806 438 782 472 q 842 365 831 404 q 854 288 854 326 q 820 145 854 204 q 731 49 786 86 q 604 -6 675 11 q 460 -24 533 -24 q 300 -3 375 -24 q 169 61 225 18 q 81 172 114 104 q 46 331 47 239 l 219 331 z "},"T":{"ha":824,"x_min":11,"x_max":814,"o":"m 11 992 l 814 992 l 814 842 l 499 842 l 499 0 l 325 0 l 325 842 l 11 842 l 11 992 z "},"U":{"ha":1003,"x_min":94,"x_max":908,"o":"m 94 992 l 268 992 l 268 414 q 273 313 268 364 q 301 220 278 261 q 370 153 324 179 q 501 126 417 126 q 633 153 586 126 q 702 220 679 179 q 730 313 725 261 q 735 414 735 364 l 735 992 l 908 992 l 908 357 q 879 190 908 261 q 797 72 850 119 q 668 0 743 24 q 501 -24 593 -24 q 335 0 410 -24 q 206 72 260 24 q 124 190 153 119 q 94 357 94 261 l 94 992 z "},"V":{"ha":849,"x_min":-7,"x_max":856,"o":"m -7 992 l 174 992 l 422 207 l 425 207 l 679 992 l 856 992 l 517 0 l 324 0 l -7 992 z "},"W":{"ha":1311,"x_min":8,"x_max":1303,"o":"m 8 992 l 185 992 l 364 233 l 367 233 l 567 992 l 744 992 l 939 233 l 942 233 l 1126 992 l 1303 992 l 1029 0 l 853 0 l 654 758 l 651 758 l 449 0 l 269 0 l 8 992 z "},"X":{"ha":900,"x_min":-4,"x_max":904,"o":"m 19 992 l 226 992 l 451 642 l 686 992 l 881 992 l 553 514 l 904 0 l 693 0 l 446 379 l 194 0 l -4 0 l 347 514 l 19 992 z "},"Y":{"ha":900,"x_min":-8,"x_max":908,"o":"m 364 389 l -8 992 l 193 992 l 456 547 l 714 992 l 908 992 l 538 389 l 538 0 l 364 0 l 364 389 z "},"Z":{"ha":875,"x_min":32,"x_max":844,"o":"m 76 992 l 831 992 l 831 860 l 253 150 l 844 150 l 844 0 l 32 0 l 32 142 l 610 842 l 76 842 l 76 992 z "},"[":{"ha":411,"x_min":100,"x_max":410,"o":"m 100 1015 l 410 1015 l 410 890 l 250 890 l 250 -140 l 410 -140 l 410 -265 l 100 -265 l 100 1015 z "},"\\":{"ha":489,"x_min":-31,"x_max":519,"o":"m 519 -24 l 368 -24 l -31 1015 l 121 1015 l 519 -24 z "},"]":{"ha":411,"x_min":1,"x_max":311,"o":"m 311 -265 l 1 -265 l 1 -140 l 161 -140 l 161 890 l 1 890 l 1 1015 l 311 1015 l 311 -265 z "},"^":{"ha":833,"x_min":117,"x_max":717,"o":"m 117 465 l 367 972 l 467 972 l 717 465 l 575 465 l 417 808 l 258 465 l 117 465 z "},"_":{"ha":694,"x_min":0,"x_max":694,"o":"m 0 -174 l 0 -104 l 694 -104 l 694 -174 l 0 -174 z "},"`":{"ha":335,"x_min":-40,"x_max":272,"o":"m 146 1017 l 272 818 l 157 818 l -40 1017 l 146 1017 z "},"a":{"ha":772,"x_min":44,"x_max":761,"o":"m 685 160 q 692 118 685 131 q 722 106 700 106 q 739 106 729 106 q 761 108 749 106 l 761 -1 q 740 -8 753 -4 q 713 -14 726 -11 q 685 -18 699 -17 q 661 -19 671 -19 q 581 0 613 -19 q 539 68 549 19 q 423 1 492 22 q 290 -19 354 -19 q 197 -6 242 -19 q 119 33 153 7 q 65 98 85 58 q 44 190 44 138 q 69 299 44 257 q 133 364 93 340 q 222 398 172 388 q 321 414 271 408 q 403 426 364 422 q 472 438 442 429 q 519 463 501 446 q 536 515 536 481 q 522 565 536 546 q 485 595 507 585 q 438 609 464 606 q 388 613 411 613 q 278 585 321 613 q 229 499 235 557 l 71 499 q 104 614 75 568 q 178 688 133 660 q 281 726 224 715 q 397 738 338 738 q 501 726 450 738 q 594 690 553 715 q 660 626 635 665 q 685 529 685 586 l 685 160 m 526 360 q 438 331 490 336 q 332 317 385 326 q 283 305 307 313 q 242 284 260 297 q 213 249 224 271 q 203 197 203 228 q 218 153 203 171 q 255 124 233 135 q 302 110 276 114 q 349 106 328 106 q 406 113 375 106 q 463 136 436 119 q 508 178 490 153 q 526 242 526 204 l 526 360 z "},"b":{"ha":849,"x_min":88,"x_max":799,"o":"m 88 992 l 246 992 l 246 625 l 249 625 q 289 672 265 651 q 341 708 313 693 q 401 730 369 722 q 463 738 432 738 q 610 708 547 738 q 715 626 674 678 q 778 504 757 574 q 799 356 799 435 q 780 215 799 283 q 723 95 761 147 q 626 12 685 43 q 489 -19 568 -19 q 416 -15 453 -19 q 346 4 379 -10 q 285 40 313 18 q 240 99 258 63 l 238 99 l 238 0 l 88 0 l 88 992 m 640 358 q 628 453 640 407 q 590 534 615 499 q 528 591 565 569 q 442 613 490 613 q 291 543 342 613 q 240 358 240 474 q 253 258 240 304 q 293 178 267 211 q 356 125 319 144 q 442 106 393 106 q 533 128 496 106 q 595 185 571 150 q 630 266 619 221 q 640 358 640 311 z "},"c":{"ha":772,"x_min":49,"x_max":726,"o":"m 568 478 q 515 578 558 544 q 404 613 471 613 q 339 602 374 613 q 275 563 304 592 q 226 484 246 535 q 207 351 207 433 q 217 263 207 307 q 251 183 228 218 q 310 127 274 149 q 397 106 346 106 q 512 149 467 106 q 568 269 557 192 l 726 269 q 620 55 704 129 q 397 -19 536 -19 q 248 9 313 -19 q 139 87 183 38 q 72 204 94 136 q 49 351 49 272 q 71 503 49 432 q 138 626 93 574 q 248 708 182 678 q 403 738 314 738 q 522 722 465 738 q 622 674 578 706 q 693 593 665 642 q 726 478 721 544 l 568 478 z "},"d":{"ha":849,"x_min":49,"x_max":760,"o":"m 760 0 l 610 0 l 610 97 l 607 97 q 514 8 575 35 q 385 -19 453 -19 q 237 10 300 -19 q 132 92 174 40 q 69 213 90 143 q 49 364 49 283 q 75 532 49 461 q 145 649 101 603 q 245 716 189 694 q 360 738 301 738 q 428 731 393 738 q 494 711 463 725 q 553 676 526 697 q 599 625 581 654 l 601 625 l 601 992 l 760 992 l 760 0 m 207 351 q 219 261 207 306 q 255 182 231 217 q 317 126 279 147 q 406 106 354 106 q 497 128 458 106 q 559 186 535 150 q 595 267 583 222 q 607 360 607 313 q 553 546 607 479 q 408 613 500 613 q 315 590 353 613 q 252 530 276 567 q 217 447 228 493 q 207 351 207 400 z "},"e":{"ha":772,"x_min":49,"x_max":744,"o":"m 576 422 q 560 494 574 460 q 524 555 547 529 q 469 597 501 581 q 396 613 436 613 q 320 598 354 613 q 262 558 286 583 q 223 497 238 532 q 207 422 208 463 l 576 422 m 207 318 q 219 238 207 276 q 254 169 231 199 q 314 123 278 140 q 400 106 350 106 q 512 135 469 106 q 575 225 554 165 l 725 225 q 682 121 713 167 q 608 44 651 75 q 512 -3 565 13 q 400 -19 458 -19 q 250 8 315 -19 q 140 86 185 36 q 72 206 94 136 q 49 358 49 275 q 73 503 49 435 q 142 624 97 572 q 251 707 188 676 q 396 738 315 738 q 548 702 481 738 q 660 608 615 667 q 724 474 704 550 q 735 318 744 399 l 207 318 z "},"f":{"ha":438,"x_min":13,"x_max":440,"o":"m 13 718 l 131 718 l 131 778 q 147 888 131 846 q 192 953 164 931 q 255 984 219 976 q 329 992 290 992 q 440 982 406 992 l 440 858 q 408 865 425 863 q 367 867 390 867 q 312 851 335 867 q 289 792 289 836 l 289 718 l 424 718 l 424 600 l 289 600 l 289 0 l 131 0 l 131 600 l 13 600 l 13 718 z "},"g":{"ha":824,"x_min":49,"x_max":747,"o":"m 747 38 q 656 -205 747 -125 q 394 -285 565 -285 q 285 -274 340 -285 q 185 -236 231 -262 q 110 -167 140 -210 q 74 -61 79 -124 l 232 -61 q 256 -115 239 -94 q 295 -148 272 -136 q 346 -163 318 -160 q 404 -167 374 -167 q 544 -119 500 -167 q 589 17 589 -72 l 589 126 l 586 126 q 495 33 553 67 q 371 0 438 0 q 224 30 285 0 q 124 112 164 60 q 67 232 85 164 q 49 378 49 300 q 71 515 49 450 q 135 630 93 581 q 237 708 176 679 q 374 738 297 738 q 499 709 442 738 q 586 619 556 681 l 589 619 l 589 718 l 747 718 l 747 38 m 396 125 q 485 147 449 125 q 545 203 522 168 q 578 284 568 239 q 589 375 589 329 q 578 464 589 421 q 544 540 567 507 q 484 593 521 574 q 396 613 447 613 q 307 590 343 613 q 249 533 271 568 q 217 452 226 497 q 207 363 207 407 q 218 276 207 318 q 252 200 229 233 q 310 146 275 167 q 396 125 346 125 z "},"h":{"ha":797,"x_min":83,"x_max":714,"o":"m 83 992 l 242 992 l 242 624 l 244 624 q 331 705 274 672 q 460 738 389 738 q 646 676 578 738 q 714 493 714 615 l 714 0 l 556 0 l 556 451 q 519 574 553 536 q 415 613 486 613 q 343 598 375 613 q 289 558 311 583 q 254 497 267 532 q 242 424 242 463 l 242 0 l 83 0 l 83 992 z "},"i":{"ha":335,"x_min":88,"x_max":246,"o":"m 88 992 l 246 992 l 246 842 l 88 842 l 88 992 m 88 718 l 246 718 l 246 0 l 88 0 l 88 718 z "},"j":{"ha":335,"x_min":-31,"x_max":246,"o":"m 88 992 l 246 992 l 246 842 l 88 842 l 88 992 m 88 718 l 246 718 l 246 -61 q 199 -226 246 -168 q 40 -285 151 -285 q 1 -283 17 -285 q -31 -279 -15 -282 l -31 -154 q -1 -158 -15 -157 q 24 -160 13 -160 q 77 -133 67 -160 q 88 -54 88 -107 l 88 718 z "},"k":{"ha":746,"x_min":88,"x_max":753,"o":"m 88 992 l 246 992 l 246 428 l 532 718 l 726 718 l 451 454 l 753 0 l 560 0 l 340 349 l 246 257 l 246 0 l 88 0 l 88 992 z "},"l":{"ha":335,"x_min":88,"x_max":246,"o":"m 88 992 l 246 992 l 246 0 l 88 0 l 88 992 z "},"m":{"ha":1208,"x_min":83,"x_max":1125,"o":"m 83 718 l 233 718 l 233 618 l 238 618 q 276 667 256 644 q 323 704 297 689 q 382 728 349 719 q 458 738 415 738 q 580 708 524 738 q 660 618 636 679 q 753 706 700 674 q 885 738 806 738 q 1062 682 999 738 q 1125 496 1125 626 l 1125 0 l 967 0 l 967 419 q 964 498 967 463 q 948 559 961 533 q 908 599 935 585 q 836 613 882 613 q 719 563 756 613 q 683 421 683 513 l 683 0 l 525 0 l 525 461 q 498 574 525 536 q 399 613 471 613 q 340 600 368 613 q 290 564 311 588 q 255 506 268 540 q 242 426 242 471 l 242 0 l 83 0 l 83 718 z "},"n":{"ha":797,"x_min":83,"x_max":714,"o":"m 83 718 l 233 718 l 233 613 l 236 610 q 331 703 272 669 q 460 738 389 738 q 646 676 578 738 q 714 493 714 615 l 714 0 l 556 0 l 556 451 q 519 574 553 536 q 415 613 486 613 q 343 598 375 613 q 289 558 311 583 q 254 497 267 532 q 242 424 242 463 l 242 0 l 83 0 l 83 718 z "},"o":{"ha":824,"x_min":50,"x_max":775,"o":"m 413 -19 q 259 9 326 -19 q 145 88 192 38 q 74 207 99 138 q 50 360 50 276 q 74 511 50 442 q 145 631 99 581 q 259 709 192 681 q 413 738 326 738 q 566 709 499 738 q 680 631 633 681 q 751 511 726 581 q 775 360 775 442 q 751 207 775 276 q 680 88 726 138 q 566 9 633 38 q 413 -19 499 -19 m 413 106 q 504 128 465 106 q 568 186 543 150 q 605 267 593 222 q 617 360 617 313 q 605 451 617 406 q 568 533 593 497 q 504 590 543 568 q 413 613 465 613 q 321 590 360 613 q 257 533 282 568 q 220 451 232 497 q 208 360 208 406 q 220 267 208 313 q 257 186 232 222 q 321 128 282 150 q 413 106 360 106 z "},"p":{"ha":849,"x_min":88,"x_max":799,"o":"m 88 718 l 238 718 l 238 621 l 240 621 q 333 710 274 683 q 463 738 393 738 q 610 708 547 738 q 715 626 674 678 q 778 504 757 574 q 799 356 799 435 q 780 215 799 283 q 723 95 761 147 q 626 12 685 43 q 489 -19 568 -19 q 419 -13 454 -19 q 353 7 385 -7 q 294 42 321 21 q 249 93 267 64 l 246 93 l 246 -265 l 88 -265 l 88 718 m 640 358 q 628 453 640 407 q 590 534 615 499 q 528 591 565 569 q 442 613 490 613 q 291 543 342 613 q 240 358 240 474 q 253 258 240 304 q 293 178 267 211 q 356 125 319 144 q 442 106 393 106 q 533 128 496 106 q 595 185 571 150 q 630 266 619 221 q 640 358 640 311 z "},"q":{"ha":849,"x_min":49,"x_max":760,"o":"m 760 -265 l 601 -265 l 601 93 l 599 93 q 553 42 579 64 q 494 7 526 21 q 428 -13 463 -7 q 358 -19 393 -19 q 221 12 279 -19 q 124 95 163 43 q 67 215 86 147 q 49 356 49 283 q 69 504 49 435 q 132 626 90 574 q 237 708 174 678 q 385 738 300 738 q 514 710 454 738 q 607 621 574 683 l 610 621 l 610 718 l 760 718 l 760 -265 m 207 358 q 217 266 207 311 q 252 185 228 221 q 314 128 276 150 q 406 106 351 106 q 558 176 508 106 q 607 358 607 246 q 556 544 607 476 q 406 613 506 613 q 319 591 357 613 q 257 534 282 569 q 219 453 232 499 q 207 358 207 407 z "},"r":{"ha":489,"x_min":83,"x_max":504,"o":"m 83 718 l 232 718 l 232 579 l 235 579 q 262 636 242 608 q 310 687 282 664 q 374 724 339 710 q 444 738 408 738 q 483 736 472 738 q 504 733 493 735 l 504 581 q 470 585 488 583 q 436 588 453 588 q 360 572 396 588 q 299 524 325 556 q 257 447 272 493 q 242 342 242 401 l 242 0 l 83 0 l 83 718 z "},"s":{"ha":721,"x_min":44,"x_max":683,"o":"m 203 231 q 256 133 210 161 q 365 106 301 106 q 416 109 388 106 q 469 122 444 113 q 510 151 494 132 q 525 200 526 169 q 503 250 524 231 q 449 281 482 269 q 375 301 417 293 q 290 319 333 310 q 205 343 246 329 q 131 381 164 357 q 79 441 99 404 q 60 532 60 478 q 88 630 60 590 q 160 694 117 669 q 258 728 204 718 q 360 738 311 738 q 466 726 415 738 q 558 688 517 714 q 626 619 599 661 q 660 517 653 576 l 494 517 q 442 593 483 574 q 349 613 401 613 q 309 610 332 613 q 266 599 286 607 q 232 577 246 592 q 218 539 218 563 q 238 492 218 510 q 291 462 258 474 q 365 442 324 450 q 451 424 407 433 q 536 400 494 414 q 610 363 578 386 q 663 303 643 339 q 683 214 683 267 q 654 106 683 150 q 578 33 625 61 q 475 -7 532 6 q 363 -19 418 -19 q 237 -4 294 -19 q 137 42 179 11 q 70 120 94 74 q 44 231 46 167 l 203 231 z "},"t":{"ha":463,"x_min":11,"x_max":432,"o":"m 11 718 l 131 718 l 131 933 l 289 933 l 289 718 l 432 718 l 432 600 l 289 600 l 289 217 q 291 174 289 192 q 301 143 293 156 q 324 124 308 131 q 365 118 339 118 q 399 119 382 118 q 432 124 415 119 l 432 1 q 381 -4 406 -1 q 329 -7 356 -7 q 228 5 267 -7 q 169 40 190 17 q 140 97 147 63 q 131 176 132 132 l 131 600 l 11 600 l 11 718 z "},"u":{"ha":797,"x_min":83,"x_max":714,"o":"m 714 0 l 558 0 l 558 100 l 556 100 q 469 13 526 46 q 351 -19 411 -19 q 147 51 210 -19 q 83 263 83 121 l 83 718 l 242 718 l 242 278 q 278 144 242 183 q 379 106 314 106 q 463 121 429 106 q 517 162 496 136 q 547 224 538 188 q 556 301 556 260 l 556 718 l 714 718 l 714 0 z "},"v":{"ha":721,"x_min":13,"x_max":708,"o":"m 13 718 l 185 718 l 367 167 l 369 167 l 544 718 l 708 718 l 451 0 l 274 0 l 13 718 z "},"w":{"ha":1081,"x_min":18,"x_max":1063,"o":"m 18 718 l 186 718 l 326 182 l 329 182 l 464 718 l 624 718 l 753 182 l 756 182 l 901 718 l 1063 718 l 838 0 l 675 0 l 542 533 l 539 533 l 407 0 l 240 0 l 18 718 z "},"x":{"ha":746,"x_min":6,"x_max":740,"o":"m 276 378 l 28 718 l 219 718 l 369 497 l 526 718 l 710 718 l 465 386 l 740 0 l 550 0 l 368 265 l 192 0 l 6 0 l 276 378 z "},"y":{"ha":721,"x_min":4,"x_max":715,"o":"m 4 718 l 178 718 l 365 182 l 368 182 l 550 718 l 715 718 l 436 -39 q 398 -132 417 -87 q 352 -210 379 -176 q 285 -265 325 -244 q 182 -285 244 -285 q 72 -276 126 -285 l 72 -143 q 110 -149 92 -146 q 147 -153 128 -153 q 193 -146 175 -153 q 223 -126 211 -139 q 243 -94 235 -112 q 258 -53 251 -76 l 276 3 l 4 718 z "},"z":{"ha":694,"x_min":31,"x_max":663,"o":"m 58 718 l 642 718 l 642 607 l 231 125 l 663 125 l 663 0 l 31 0 l 31 111 l 428 593 l 58 593 l 58 718 z "},"{":{"ha":411,"x_min":-6,"x_max":429,"o":"m -6 438 q 31 442 8 438 q 74 458 53 446 q 110 489 94 469 q 125 539 125 508 l 125 825 q 144 910 125 874 q 192 969 164 946 q 250 1004 219 993 q 303 1015 281 1015 l 429 1015 l 429 890 l 353 890 q 311 881 326 890 q 288 858 296 872 q 277 826 279 843 q 275 793 275 808 l 275 522 q 258 453 275 481 q 219 409 242 425 q 172 385 196 393 q 131 376 147 378 l 131 374 q 172 367 147 372 q 219 345 196 361 q 258 299 242 329 q 275 219 275 269 l 275 -43 q 277 -76 275 -58 q 288 -108 279 -93 q 311 -131 296 -122 q 353 -140 326 -140 l 429 -140 l 429 -265 l 303 -265 q 250 -254 281 -265 q 192 -219 219 -243 q 144 -160 164 -196 q 125 -75 125 -124 l 125 200 q 110 256 125 233 q 74 290 94 278 q 31 308 53 303 q -6 313 8 313 l -6 438 z "},"|":{"ha":308,"x_min":83,"x_max":225,"o":"m 83 1092 l 225 1092 l 225 -297 l 83 -297 l 83 1092 z "},"}":{"ha":411,"x_min":-18,"x_max":417,"o":"m 417 313 q 379 308 401 313 q 336 292 357 303 q 301 261 315 281 q 286 211 286 242 l 286 -75 q 267 -160 286 -124 q 219 -219 247 -196 q 161 -254 192 -243 q 108 -265 131 -265 l -18 -265 l -18 -140 l 58 -140 q 100 -131 85 -140 q 124 -108 115 -122 q 134 -76 132 -93 q 136 -43 136 -58 l 136 228 q 153 297 136 269 q 192 341 169 325 q 240 364 215 357 q 281 374 264 371 l 281 376 q 240 383 264 378 q 192 405 215 389 q 153 451 169 421 q 136 531 136 481 l 136 793 q 134 826 136 808 q 124 858 132 843 q 100 881 115 872 q 58 890 85 890 l -18 890 l -18 1015 l 108 1015 q 161 1004 131 1015 q 219 969 192 993 q 267 910 247 946 q 286 825 286 874 l 286 550 q 301 494 286 517 q 336 460 315 472 q 379 442 357 447 q 417 438 401 438 l 417 313 z "},"~":{"ha":833,"x_min":96,"x_max":738,"o":"m 738 353 q 705 309 722 331 q 667 271 688 288 q 622 244 647 254 q 564 233 596 233 q 491 247 525 233 q 422 279 457 260 q 350 313 389 299 q 263 328 311 328 q 222 319 239 328 q 190 297 204 310 q 165 267 175 283 q 146 233 154 250 l 96 350 q 123 394 107 372 q 160 432 139 415 q 208 459 181 449 q 269 469 235 469 q 344 456 306 469 q 424 425 383 443 q 500 392 463 408 q 565 375 538 375 q 603 384 586 375 q 635 406 621 393 q 663 436 650 419 q 688 469 675 453 l 738 353 z "}," ":{"ha":386,"x_min":0,"x_max":0,"o":""},"À":{"ha":926,"x_min":-10,"x_max":938,"o":"m 371 992 l 556 992 l 938 0 l 751 0 l 658 263 l 263 263 l 169 0 l -10 0 l 371 992 m 310 394 l 613 394 l 464 821 l 460 821 l 310 394 m 424 1286 l 550 1088 l 435 1088 l 238 1286 l 424 1286 z "},"Á":{"ha":926,"x_min":-10,"x_max":938,"o":"m 371 992 l 556 992 l 938 0 l 751 0 l 658 263 l 263 263 l 169 0 l -10 0 l 371 992 m 310 394 l 613 394 l 464 821 l 460 821 l 310 394 m 506 1286 l 693 1286 l 496 1088 l 381 1088 l 506 1286 z "},"Â":{"ha":926,"x_min":-10,"x_max":938,"o":"m 371 992 l 556 992 l 938 0 l 751 0 l 658 263 l 263 263 l 169 0 l -10 0 l 371 992 m 310 394 l 613 394 l 464 821 l 460 821 l 310 394 m 364 1088 l 236 1088 l 385 1286 l 539 1286 l 689 1088 l 560 1088 l 461 1213 l 364 1088 z "},"Ã":{"ha":926,"x_min":-10,"x_max":938,"o":"m 371 992 l 556 992 l 938 0 l 751 0 l 658 263 l 263 263 l 169 0 l -10 0 l 371 992 m 310 394 l 613 394 l 464 821 l 460 821 l 310 394 m 710 1269 q 694 1207 704 1236 q 664 1157 683 1178 q 619 1122 646 1135 q 556 1110 593 1110 q 506 1117 532 1110 q 453 1136 479 1125 q 401 1156 421 1150 q 358 1161 382 1161 q 319 1147 333 1161 q 299 1104 304 1132 l 219 1104 q 235 1158 224 1131 q 264 1209 246 1186 q 307 1247 282 1232 q 364 1261 332 1261 q 412 1256 390 1261 q 476 1233 433 1251 q 524 1215 506 1221 q 563 1208 543 1208 q 609 1225 593 1208 q 632 1269 625 1242 l 710 1269 z "},"Ä":{"ha":926,"x_min":-10,"x_max":938,"o":"m 371 992 l 556 992 l 938 0 l 751 0 l 658 263 l 263 263 l 169 0 l -10 0 l 371 992 m 310 394 l 613 394 l 464 821 l 460 821 l 310 394 m 264 1106 l 264 1256 l 422 1256 l 422 1106 l 264 1106 m 661 1256 l 661 1106 l 503 1106 l 503 1256 l 661 1256 z "},"Ā":{"ha":926,"x_min":-10,"x_max":938,"o":"m 371 992 l 556 992 l 938 0 l 751 0 l 658 263 l 263 263 l 169 0 l -10 0 l 371 992 m 310 394 l 613 394 l 464 821 l 460 821 l 310 394 m 263 1136 l 263 1226 l 663 1226 l 663 1136 l 263 1136 z "},"Ă":{"ha":926,"x_min":-10,"x_max":938,"o":"m 371 992 l 556 992 l 938 0 l 751 0 l 658 263 l 263 263 l 169 0 l -10 0 l 371 992 m 310 394 l 613 394 l 464 821 l 460 821 l 310 394 m 319 1285 q 372 1203 331 1226 q 468 1179 413 1179 q 559 1206 521 1179 q 608 1285 597 1232 l 688 1285 q 615 1138 676 1186 q 457 1089 553 1089 q 304 1139 361 1089 q 239 1285 247 1189 l 319 1285 z "},"Å":{"ha":926,"x_min":-10,"x_max":938,"o":"m 371 992 l 556 992 l 938 0 l 751 0 l 658 263 l 263 263 l 169 0 l -10 0 l 371 992 m 310 394 l 613 394 l 464 821 l 460 821 l 310 394 m 378 1186 q 402 1126 378 1150 q 461 1101 426 1101 q 521 1126 497 1101 q 544 1186 544 1150 q 521 1247 544 1224 q 461 1271 497 1271 q 402 1247 426 1271 q 378 1186 378 1224 m 461 1043 q 406 1053 432 1043 q 359 1083 379 1064 q 328 1128 339 1101 q 317 1186 317 1154 q 328 1244 317 1218 q 360 1290 340 1271 q 406 1319 381 1310 q 461 1329 432 1329 q 516 1319 490 1329 q 563 1290 542 1310 q 594 1244 583 1271 q 606 1186 606 1218 q 594 1128 606 1154 q 563 1083 583 1101 q 516 1053 542 1064 q 461 1043 490 1043 z "},"Ą":{"ha":926,"x_min":-10,"x_max":938,"o":"m 826 0 q 762 -55 788 -31 q 722 -101 736 -79 q 701 -141 707 -122 q 696 -179 696 -160 q 713 -224 696 -207 q 750 -240 729 -240 q 788 -231 771 -240 q 822 -193 804 -221 l 879 -206 q 855 -256 871 -236 q 819 -288 839 -276 q 776 -305 799 -300 q 733 -310 754 -310 q 701 -307 724 -310 q 653 -292 678 -304 q 611 -254 629 -279 q 593 -185 593 -229 q 596 -157 593 -174 q 614 -117 599 -140 q 661 -64 629 -93 q 751 0 693 -35 l 658 263 l 263 263 l 169 0 l -10 0 l 371 992 l 556 992 l 938 0 l 826 0 m 310 394 l 613 394 l 464 821 l 460 821 l 310 394 z "},"Æ":{"ha":1338,"x_min":-10,"x_max":1292,"o":"m 483 992 l 1283 992 l 1283 842 l 800 842 l 800 582 l 1253 582 l 1253 440 l 800 440 l 800 150 l 1292 150 l 1292 0 l 635 0 l 635 254 l 303 254 l 183 0 l -10 0 l 483 992 m 367 386 l 635 386 l 635 842 l 585 842 l 367 386 z "},"Ć":{"ha":1003,"x_min":53,"x_max":950,"o":"m 775 676 q 744 756 764 719 q 694 818 725 792 q 623 859 664 844 q 528 874 582 874 q 391 842 449 874 q 297 756 333 810 q 244 635 261 703 q 226 496 226 567 q 244 357 226 425 q 297 235 261 289 q 391 150 333 182 q 528 118 449 118 q 631 138 586 118 q 707 194 675 158 q 757 276 739 229 q 781 378 775 324 l 950 378 q 912 215 944 289 q 824 88 879 142 q 693 6 768 35 q 528 -24 618 -24 q 328 17 417 -24 q 179 129 240 58 q 85 294 118 200 q 53 496 53 389 q 85 696 53 601 q 179 861 118 790 q 328 974 240 932 q 528 1015 417 1015 q 685 992 611 1015 q 815 926 758 969 q 906 819 871 882 q 949 676 940 757 l 775 676 m 582 1286 l 769 1286 l 572 1088 l 457 1088 l 582 1286 z "},"Ĉ":{"ha":1003,"x_min":53,"x_max":950,"o":"m 775 676 q 744 756 764 719 q 694 818 725 792 q 623 859 664 844 q 528 874 582 874 q 391 842 449 874 q 297 756 333 810 q 244 635 261 703 q 226 496 226 567 q 244 357 226 425 q 297 235 261 289 q 391 150 333 182 q 528 118 449 118 q 631 138 586 118 q 707 194 675 158 q 757 276 739 229 q 781 378 775 324 l 950 378 q 912 215 944 289 q 824 88 879 142 q 693 6 768 35 q 528 -24 618 -24 q 328 17 417 -24 q 179 129 240 58 q 85 294 118 200 q 53 496 53 389 q 85 696 53 601 q 179 861 118 790 q 328 974 240 932 q 528 1015 417 1015 q 685 992 611 1015 q 815 926 758 969 q 906 819 871 882 q 949 676 940 757 l 775 676 m 432 1088 l 304 1088 l 453 1286 l 607 1286 l 757 1088 l 628 1088 l 529 1213 l 432 1088 z "},"Č":{"ha":1003,"x_min":53,"x_max":950,"o":"m 775 676 q 744 756 764 719 q 694 818 725 792 q 623 859 664 844 q 528 874 582 874 q 391 842 449 874 q 297 756 333 810 q 244 635 261 703 q 226 496 226 567 q 244 357 226 425 q 297 235 261 289 q 391 150 333 182 q 528 118 449 118 q 631 138 586 118 q 707 194 675 158 q 757 276 739 229 q 781 378 775 324 l 950 378 q 912 215 944 289 q 824 88 879 142 q 693 6 768 35 q 528 -24 618 -24 q 328 17 417 -24 q 179 129 240 58 q 85 294 118 200 q 53 496 53 389 q 85 696 53 601 q 179 861 118 790 q 328 974 240 932 q 528 1015 417 1015 q 685 992 611 1015 q 815 926 758 969 q 906 819 871 882 q 949 676 940 757 l 775 676 m 601 1088 l 447 1088 l 299 1286 l 426 1286 l 524 1163 l 622 1286 l 751 1286 l 601 1088 z "},"Ċ":{"ha":1003,"x_min":53,"x_max":950,"o":"m 775 676 q 744 756 764 719 q 694 818 725 792 q 623 859 664 844 q 528 874 582 874 q 391 842 449 874 q 297 756 333 810 q 244 635 261 703 q 226 496 226 567 q 244 357 226 425 q 297 235 261 289 q 391 150 333 182 q 528 118 449 118 q 631 138 586 118 q 707 194 675 158 q 757 276 739 229 q 781 378 775 324 l 950 378 q 912 215 944 289 q 824 88 879 142 q 693 6 768 35 q 528 -24 618 -24 q 328 17 417 -24 q 179 129 240 58 q 85 294 118 200 q 53 496 53 389 q 85 696 53 601 q 179 861 118 790 q 328 974 240 932 q 528 1015 417 1015 q 685 992 611 1015 q 815 926 758 969 q 906 819 871 882 q 949 676 940 757 l 775 676 m 447 1106 l 447 1256 l 606 1256 l 606 1106 l 447 1106 z "},"Ç":{"ha":1003,"x_min":53,"x_max":950,"o":"m 950 378 q 913 217 944 290 q 826 90 881 143 q 699 8 772 38 q 538 -22 625 -21 l 493 -81 l 493 -83 q 513 -80 501 -81 q 539 -79 524 -79 q 581 -85 560 -79 q 618 -104 601 -92 q 646 -136 635 -117 q 657 -182 657 -156 q 642 -242 657 -218 q 603 -280 626 -265 q 549 -301 579 -294 q 489 -307 519 -307 q 415 -300 457 -307 q 346 -278 374 -293 l 371 -222 q 415 -237 393 -229 q 461 -244 438 -244 q 490 -242 475 -244 q 518 -234 506 -240 q 538 -217 531 -228 q 546 -187 546 -206 q 526 -148 546 -161 q 482 -135 506 -135 q 428 -149 451 -135 l 397 -122 l 474 -21 q 297 33 375 -11 q 164 148 218 78 q 81 307 110 218 q 53 496 53 396 q 85 696 53 601 q 179 861 118 790 q 328 974 240 932 q 528 1015 417 1015 q 685 992 611 1015 q 815 926 758 969 q 906 819 871 882 q 949 676 940 757 l 775 676 q 744 756 764 719 q 694 818 725 792 q 623 859 664 844 q 528 874 582 874 q 391 842 449 874 q 297 756 333 810 q 244 635 261 703 q 226 496 226 567 q 244 357 226 425 q 297 235 261 289 q 391 150 333 182 q 528 118 449 118 q 631 138 586 118 q 707 194 675 158 q 757 276 739 229 q 781 378 775 324 l 950 378 z "},"Ď":{"ha":1003,"x_min":106,"x_max":954,"o":"m 106 992 l 517 992 q 714 953 631 992 q 850 847 797 914 q 928 689 903 779 q 954 496 954 599 q 928 303 954 393 q 850 145 903 213 q 714 39 797 78 q 517 0 631 0 l 106 0 l 106 992 m 279 142 l 450 142 q 616 169 551 142 q 717 244 681 196 q 767 356 754 292 q 781 496 781 421 q 767 635 781 571 q 717 748 754 700 q 616 823 681 796 q 450 850 551 850 l 279 850 l 279 142 m 531 1088 l 376 1088 l 228 1286 l 356 1286 l 453 1163 l 551 1286 l 681 1286 l 531 1088 z "},"Đ":{"ha":1003,"x_min":13,"x_max":954,"o":"m 279 582 l 550 582 l 550 440 l 279 440 l 279 142 l 450 142 q 616 169 551 142 q 717 244 681 196 q 767 356 754 292 q 781 496 781 421 q 767 635 781 571 q 717 748 754 700 q 616 823 681 796 q 450 850 551 850 l 279 850 l 279 582 m 106 440 l 13 440 l 13 582 l 106 582 l 106 992 l 517 992 q 714 953 631 992 q 850 847 797 914 q 928 689 903 779 q 954 496 954 599 q 928 303 954 393 q 850 145 903 213 q 714 39 797 78 q 517 0 631 0 l 106 0 l 106 440 z "},"Ð":{"ha":1003,"x_min":13,"x_max":954,"o":"m 279 582 l 550 582 l 550 440 l 279 440 l 279 142 l 450 142 q 616 169 551 142 q 717 244 681 196 q 767 356 754 292 q 781 496 781 421 q 767 635 781 571 q 717 748 754 700 q 616 823 681 796 q 450 850 551 850 l 279 850 l 279 582 m 106 440 l 13 440 l 13 582 l 106 582 l 106 992 l 517 992 q 714 953 631 992 q 850 847 797 914 q 928 689 903 779 q 954 496 954 599 q 928 303 954 393 q 850 145 903 213 q 714 39 797 78 q 517 0 631 0 l 106 0 l 106 440 z "},"È":{"ha":875,"x_min":106,"x_max":829,"o":"m 106 992 l 819 992 l 819 842 l 279 842 l 279 582 l 779 582 l 779 440 l 279 440 l 279 150 l 829 150 l 829 0 l 106 0 l 106 992 m 449 1286 l 575 1088 l 460 1088 l 263 1286 l 449 1286 z "},"É":{"ha":875,"x_min":106,"x_max":829,"o":"m 106 992 l 819 992 l 819 842 l 279 842 l 279 582 l 779 582 l 779 440 l 279 440 l 279 150 l 829 150 l 829 0 l 106 0 l 106 992 m 510 1286 l 697 1286 l 500 1088 l 385 1088 l 510 1286 z "},"Ê":{"ha":875,"x_min":106,"x_max":829,"o":"m 106 992 l 819 992 l 819 842 l 279 842 l 279 582 l 779 582 l 779 440 l 279 440 l 279 150 l 829 150 l 829 0 l 106 0 l 106 992 m 365 1088 l 238 1088 l 386 1286 l 540 1286 l 690 1088 l 561 1088 l 463 1213 l 365 1088 z "},"Ě":{"ha":875,"x_min":106,"x_max":829,"o":"m 106 992 l 819 992 l 819 842 l 279 842 l 279 582 l 779 582 l 779 440 l 279 440 l 279 150 l 829 150 l 829 0 l 106 0 l 106 992 m 538 1088 l 383 1088 l 235 1286 l 363 1286 l 460 1163 l 558 1286 l 688 1286 l 538 1088 z "},"Ë":{"ha":875,"x_min":106,"x_max":829,"o":"m 106 992 l 819 992 l 819 842 l 279 842 l 279 582 l 779 582 l 779 440 l 279 440 l 279 150 l 829 150 l 829 0 l 106 0 l 106 992 m 268 1106 l 268 1256 l 426 1256 l 426 1106 l 268 1106 m 665 1256 l 665 1106 l 507 1106 l 507 1256 l 665 1256 z "},"Ē":{"ha":875,"x_min":106,"x_max":829,"o":"m 106 992 l 819 992 l 819 842 l 279 842 l 279 582 l 779 582 l 779 440 l 279 440 l 279 150 l 829 150 l 829 0 l 106 0 l 106 992 m 264 1136 l 264 1226 l 664 1226 l 664 1136 l 264 1136 z "},"Ĕ":{"ha":875,"x_min":106,"x_max":829,"o":"m 106 992 l 819 992 l 819 842 l 279 842 l 279 582 l 779 582 l 779 440 l 279 440 l 279 150 l 829 150 l 829 0 l 106 0 l 106 992 m 315 1285 q 367 1203 326 1226 q 464 1179 408 1179 q 555 1206 517 1179 q 604 1285 593 1232 l 683 1285 q 610 1138 672 1186 q 453 1089 549 1089 q 300 1139 357 1089 q 235 1285 243 1189 l 315 1285 z "},"Ė":{"ha":875,"x_min":106,"x_max":829,"o":"m 106 992 l 819 992 l 819 842 l 279 842 l 279 582 l 779 582 l 779 440 l 279 440 l 279 150 l 829 150 l 829 0 l 106 0 l 106 992 m 383 1106 l 383 1256 l 542 1256 l 542 1106 l 383 1106 z "},"Ę":{"ha":875,"x_min":106,"x_max":829,"o":"m 776 0 q 712 -55 738 -31 q 672 -101 686 -79 q 651 -141 657 -122 q 646 -179 646 -160 q 663 -224 646 -207 q 700 -240 679 -240 q 738 -231 721 -240 q 772 -193 754 -221 l 829 -206 q 805 -256 821 -236 q 769 -288 789 -276 q 726 -305 749 -300 q 683 -310 704 -310 q 651 -307 674 -310 q 603 -292 628 -304 q 561 -254 579 -279 q 543 -185 543 -229 q 546 -157 543 -174 q 564 -117 549 -140 q 611 -64 579 -93 q 701 0 643 -35 l 106 0 l 106 992 l 819 992 l 819 842 l 279 842 l 279 582 l 779 582 l 779 440 l 279 440 l 279 150 l 829 150 l 829 0 l 776 0 z "},"Ĝ":{"ha":1054,"x_min":60,"x_max":971,"o":"m 971 0 l 860 0 l 833 117 q 694 7 764 38 q 535 -24 625 -24 q 335 17 424 -24 q 186 129 247 58 q 92 294 125 200 q 60 496 60 389 q 92 696 60 601 q 186 861 125 790 q 335 974 247 932 q 535 1015 424 1015 q 688 994 615 1015 q 818 930 761 972 q 913 824 875 888 q 960 676 950 760 l 790 676 q 760 762 783 725 q 703 824 738 799 q 625 861 668 849 q 535 874 582 874 q 398 842 456 874 q 304 756 340 810 q 251 635 268 703 q 233 496 233 567 q 251 357 233 425 q 304 235 268 289 q 398 150 340 182 q 535 118 456 118 q 653 135 601 117 q 740 190 704 154 q 793 276 775 225 q 813 390 811 328 l 549 390 l 549 522 l 971 522 l 971 0 m 442 1088 l 314 1088 l 463 1286 l 617 1286 l 767 1088 l 638 1088 l 539 1213 l 442 1088 z "},"Ğ":{"ha":1054,"x_min":60,"x_max":971,"o":"m 971 0 l 860 0 l 833 117 q 694 7 764 38 q 535 -24 625 -24 q 335 17 424 -24 q 186 129 247 58 q 92 294 125 200 q 60 496 60 389 q 92 696 60 601 q 186 861 125 790 q 335 974 247 932 q 535 1015 424 1015 q 688 994 615 1015 q 818 930 761 972 q 913 824 875 888 q 960 676 950 760 l 790 676 q 760 762 783 725 q 703 824 738 799 q 625 861 668 849 q 535 874 582 874 q 398 842 456 874 q 304 756 340 810 q 251 635 268 703 q 233 496 233 567 q 251 357 233 425 q 304 235 268 289 q 398 150 340 182 q 535 118 456 118 q 653 135 601 117 q 740 190 704 154 q 793 276 775 225 q 813 390 811 328 l 549 390 l 549 522 l 971 522 l 971 0 m 397 1285 q 449 1203 408 1226 q 546 1179 490 1179 q 637 1206 599 1179 q 686 1285 675 1232 l 765 1285 q 692 1138 754 1186 q 535 1089 631 1089 q 382 1139 439 1089 q 317 1285 325 1189 l 397 1285 z "},"Ġ":{"ha":1054,"x_min":60,"x_max":971,"o":"m 971 0 l 860 0 l 833 117 q 694 7 764 38 q 535 -24 625 -24 q 335 17 424 -24 q 186 129 247 58 q 92 294 125 200 q 60 496 60 389 q 92 696 60 601 q 186 861 125 790 q 335 974 247 932 q 535 1015 424 1015 q 688 994 615 1015 q 818 930 761 972 q 913 824 875 888 q 960 676 950 760 l 790 676 q 760 762 783 725 q 703 824 738 799 q 625 861 668 849 q 535 874 582 874 q 398 842 456 874 q 304 756 340 810 q 251 635 268 703 q 233 496 233 567 q 251 357 233 425 q 304 235 268 289 q 398 150 340 182 q 535 118 456 118 q 653 135 601 117 q 740 190 704 154 q 793 276 775 225 q 813 390 811 328 l 549 390 l 549 522 l 971 522 l 971 0 m 457 1106 l 457 1256 l 615 1256 l 615 1106 l 457 1106 z "},"Ģ":{"ha":1054,"x_min":60,"x_max":971,"o":"m 971 0 l 860 0 l 833 117 q 694 7 764 38 q 535 -24 625 -24 q 335 17 424 -24 q 186 129 247 58 q 92 294 125 200 q 60 496 60 389 q 92 696 60 601 q 186 861 125 790 q 335 974 247 932 q 535 1015 424 1015 q 688 994 615 1015 q 818 930 761 972 q 913 824 875 888 q 960 676 950 760 l 790 676 q 760 762 783 725 q 703 824 738 799 q 625 861 668 849 q 535 874 582 874 q 398 842 456 874 q 304 756 340 810 q 251 635 268 703 q 233 496 233 567 q 251 357 233 425 q 304 235 268 289 q 398 150 340 182 q 535 118 456 118 q 653 135 601 117 q 740 190 704 154 q 793 276 775 225 q 813 390 811 328 l 549 390 l 549 522 l 971 522 l 971 0 m 444 -69 l 626 -69 l 626 -193 q 613 -248 626 -221 q 565 -291 599 -275 q 465 -310 532 -307 l 465 -257 q 509 -242 494 -253 q 528 -207 524 -231 l 444 -207 l 444 -69 z "},"Ĥ":{"ha":1003,"x_min":101,"x_max":900,"o":"m 101 992 l 275 992 l 275 597 l 726 597 l 726 992 l 900 992 l 900 0 l 726 0 l 726 447 l 275 447 l 275 0 l 101 0 l 101 992 m 406 1088 l 278 1088 l 426 1286 l 581 1286 l 731 1088 l 601 1088 l 503 1213 l 406 1088 z "},"Ħ":{"ha":1003,"x_min":101,"x_max":900,"o":"m 101 992 l 275 992 l 275 753 l 726 753 l 726 992 l 900 992 l 900 0 l 726 0 l 726 413 l 275 413 l 275 0 l 101 0 l 101 992 m 726 563 l 726 663 l 275 663 l 275 563 l 726 563 z "},"Ì":{"ha":386,"x_min":-33,"x_max":279,"o":"m 106 992 l 279 992 l 279 0 l 106 0 l 106 992 m 153 1286 l 279 1088 l 164 1088 l -33 1286 l 153 1286 z "},"Í":{"ha":386,"x_min":106,"x_max":419,"o":"m 106 992 l 279 992 l 279 0 l 106 0 l 106 992 m 232 1286 l 419 1286 l 222 1088 l 107 1088 l 232 1286 z "},"Î":{"ha":386,"x_min":-33,"x_max":419,"o":"m 106 992 l 279 992 l 279 0 l 106 0 l 106 992 m 94 1088 l -33 1088 l 115 1286 l 269 1286 l 419 1088 l 290 1088 l 192 1213 l 94 1088 z "},"Ĩ":{"ha":386,"x_min":-51,"x_max":439,"o":"m 106 992 l 279 992 l 279 0 l 106 0 l 106 992 m 439 1269 q 423 1207 433 1236 q 393 1157 413 1178 q 349 1122 375 1135 q 285 1110 322 1110 q 235 1117 261 1110 q 182 1136 208 1125 q 131 1156 150 1150 q 88 1161 111 1161 q 48 1147 63 1161 q 28 1104 33 1132 l -51 1104 q -36 1158 -47 1131 q -7 1209 -25 1186 q 36 1247 11 1232 q 93 1261 61 1261 q 141 1256 119 1261 q 206 1233 163 1251 q 253 1215 235 1221 q 292 1208 272 1208 q 338 1225 322 1208 q 361 1269 354 1242 l 439 1269 z "},"Ï":{"ha":386,"x_min":-6,"x_max":392,"o":"m 106 992 l 279 992 l 279 0 l 106 0 l 106 992 m -6 1106 l -6 1256 l 153 1256 l 153 1106 l -6 1106 m 392 1256 l 392 1106 l 233 1106 l 233 1256 l 392 1256 z "},"Ī":{"ha":386,"x_min":-8,"x_max":392,"o":"m 106 992 l 279 992 l 279 0 l 106 0 l 106 992 m -8 1136 l -8 1226 l 392 1226 l 392 1136 l -8 1136 z "},"İ":{"ha":386,"x_min":106,"x_max":279,"o":"m 106 992 l 279 992 l 279 0 l 106 0 l 106 992 m 114 1106 l 114 1256 l 272 1256 l 272 1106 l 114 1106 z "},"Į":{"ha":386,"x_min":69,"x_max":328,"o":"m 279 0 q 222 -55 244 -31 q 185 -101 199 -79 q 167 -141 172 -122 q 163 -179 163 -160 q 177 -224 163 -207 q 211 -240 192 -240 q 244 -231 229 -240 q 276 -193 260 -221 l 328 -206 q 305 -256 319 -236 q 272 -288 290 -276 q 235 -305 254 -300 q 196 -310 215 -310 q 167 -307 188 -310 q 124 -292 146 -304 q 86 -254 103 -279 q 69 -185 69 -229 q 72 -157 69 -174 q 89 -117 75 -140 q 131 -64 103 -93 q 213 0 160 -35 l 106 0 l 106 992 l 279 992 l 279 0 z "},"Ĵ":{"ha":746,"x_min":18,"x_max":774,"o":"m 640 319 q 629 193 640 254 q 584 83 618 132 q 485 6 550 35 q 314 -24 421 -24 q 179 1 235 -24 q 88 67 124 25 q 35 168 51 110 q 18 294 18 226 l 18 347 l 192 347 l 192 296 q 220 165 192 211 q 328 118 249 118 q 397 131 369 118 q 440 167 424 143 q 461 228 456 192 q 467 310 467 264 l 467 992 l 640 992 l 640 319 m 449 1088 l 321 1088 l 469 1286 l 624 1286 l 774 1088 l 644 1088 l 546 1213 l 449 1088 z "},"Ķ":{"ha":951,"x_min":106,"x_max":963,"o":"m 106 992 l 279 992 l 279 540 l 721 992 l 935 992 l 539 596 l 963 0 l 746 0 l 421 474 l 279 333 l 279 0 l 106 0 l 106 992 m 383 -69 l 565 -69 l 565 -193 q 551 -248 565 -221 q 504 -291 538 -275 q 404 -310 471 -307 l 404 -257 q 448 -242 433 -253 q 467 -207 463 -231 l 383 -207 l 383 -69 z "},"Ĺ":{"ha":797,"x_min":106,"x_max":783,"o":"m 106 992 l 279 992 l 279 150 l 783 150 l 783 0 l 106 0 l 106 992 m 258 1286 l 446 1286 l 249 1088 l 133 1088 l 258 1286 z "},"Ľ":{"ha":797,"x_min":106,"x_max":783,"o":"m 106 992 l 279 992 l 279 150 l 783 150 l 783 0 l 106 0 l 106 992 m 456 992 l 629 992 l 517 793 l 411 793 l 456 992 z "},"Ļ":{"ha":797,"x_min":106,"x_max":783,"o":"m 106 992 l 279 992 l 279 150 l 783 150 l 783 0 l 106 0 l 106 992 m 356 -69 l 538 -69 l 538 -193 q 524 -248 538 -221 q 476 -291 510 -275 q 376 -310 443 -307 l 376 -257 q 420 -242 406 -253 q 439 -207 435 -231 l 356 -207 l 356 -69 z "},"Ł":{"ha":797,"x_min":0,"x_max":783,"o":"m 106 992 l 279 992 l 279 567 l 557 764 l 557 635 l 279 438 l 279 150 l 783 150 l 783 0 l 106 0 l 106 315 l 0 240 l 0 365 l 106 440 l 106 992 z "},"Ŀ":{"ha":797,"x_min":106,"x_max":783,"o":"m 106 992 l 279 992 l 279 150 l 783 150 l 783 0 l 106 0 l 106 992 m 447 569 l 447 719 l 606 719 l 606 569 l 447 569 z "},"Ń":{"ha":1003,"x_min":99,"x_max":903,"o":"m 99 992 l 282 992 l 735 261 l 738 261 l 738 992 l 903 992 l 903 0 l 719 0 l 268 729 l 264 729 l 264 0 l 99 0 l 99 992 m 554 1286 l 742 1286 l 544 1088 l 429 1088 l 554 1286 z "},"Ň":{"ha":1003,"x_min":99,"x_max":903,"o":"m 99 992 l 282 992 l 735 261 l 738 261 l 738 992 l 903 992 l 903 0 l 719 0 l 268 729 l 264 729 l 264 0 l 99 0 l 99 992 m 574 1088 l 419 1088 l 271 1286 l 399 1286 l 496 1163 l 594 1286 l 724 1286 l 574 1088 z "},"Ñ":{"ha":1003,"x_min":99,"x_max":903,"o":"m 99 992 l 282 992 l 735 261 l 738 261 l 738 992 l 903 992 l 903 0 l 719 0 l 268 729 l 264 729 l 264 0 l 99 0 l 99 992 m 747 1269 q 731 1207 742 1236 q 701 1157 721 1178 q 657 1122 683 1135 q 593 1110 631 1110 q 543 1117 569 1110 q 490 1136 517 1125 q 439 1156 458 1150 q 396 1161 419 1161 q 356 1147 371 1161 q 336 1104 342 1132 l 257 1104 q 272 1158 261 1131 q 301 1209 283 1186 q 344 1247 319 1232 q 401 1261 369 1261 q 449 1256 428 1261 q 514 1233 471 1251 q 562 1215 543 1221 q 600 1208 581 1208 q 647 1225 631 1208 q 669 1269 663 1242 l 747 1269 z "},"Ņ":{"ha":1003,"x_min":99,"x_max":903,"o":"m 99 992 l 282 992 l 735 261 l 738 261 l 738 992 l 903 992 l 903 0 l 719 0 l 268 729 l 264 729 l 264 0 l 99 0 l 99 992 m 396 -69 l 578 -69 l 578 -193 q 564 -248 578 -221 q 517 -291 550 -275 q 417 -310 483 -307 l 417 -257 q 460 -242 446 -253 q 479 -207 475 -231 l 396 -207 l 396 -69 z "},"Ò":{"ha":1056,"x_min":53,"x_max":1003,"o":"m 528 874 q 391 842 449 874 q 297 756 333 810 q 244 635 261 703 q 226 496 226 567 q 244 357 226 425 q 297 235 261 289 q 391 150 333 182 q 528 118 449 118 q 665 150 607 118 q 758 235 722 182 q 812 357 794 289 q 829 496 829 425 q 812 635 829 567 q 758 756 794 703 q 665 842 722 810 q 528 874 607 874 m 528 1015 q 727 974 639 1015 q 876 861 815 932 q 970 696 938 790 q 1003 496 1003 601 q 970 294 1003 389 q 876 129 938 200 q 727 17 815 58 q 528 -24 639 -24 q 328 17 417 -24 q 179 129 240 58 q 85 294 118 200 q 53 496 53 389 q 85 696 53 601 q 179 861 118 790 q 328 974 240 932 q 528 1015 417 1015 m 449 1286 l 575 1088 l 460 1088 l 263 1286 l 449 1286 z "},"Ó":{"ha":1056,"x_min":53,"x_max":1003,"o":"m 528 874 q 391 842 449 874 q 297 756 333 810 q 244 635 261 703 q 226 496 226 567 q 244 357 226 425 q 297 235 261 289 q 391 150 333 182 q 528 118 449 118 q 665 150 607 118 q 758 235 722 182 q 812 357 794 289 q 829 496 829 425 q 812 635 829 567 q 758 756 794 703 q 665 842 722 810 q 528 874 607 874 m 528 1015 q 727 974 639 1015 q 876 861 815 932 q 970 696 938 790 q 1003 496 1003 601 q 970 294 1003 389 q 876 129 938 200 q 727 17 815 58 q 528 -24 639 -24 q 328 17 417 -24 q 179 129 240 58 q 85 294 118 200 q 53 496 53 389 q 85 696 53 601 q 179 861 118 790 q 328 974 240 932 q 528 1015 417 1015 m 588 1286 l 775 1286 l 578 1088 l 463 1088 l 588 1286 z "},"Ô":{"ha":1056,"x_min":53,"x_max":1003,"o":"m 528 874 q 391 842 449 874 q 297 756 333 810 q 244 635 261 703 q 226 496 226 567 q 244 357 226 425 q 297 235 261 289 q 391 150 333 182 q 528 118 449 118 q 665 150 607 118 q 758 235 722 182 q 812 357 794 289 q 829 496 829 425 q 812 635 829 567 q 758 756 794 703 q 665 842 722 810 q 528 874 607 874 m 528 1015 q 727 974 639 1015 q 876 861 815 932 q 970 696 938 790 q 1003 496 1003 601 q 970 294 1003 389 q 876 129 938 200 q 727 17 815 58 q 528 -24 639 -24 q 328 17 417 -24 q 179 129 240 58 q 85 294 118 200 q 53 496 53 389 q 85 696 53 601 q 179 861 118 790 q 328 974 240 932 q 528 1015 417 1015 m 433 1088 l 306 1088 l 454 1286 l 608 1286 l 758 1088 l 629 1088 l 531 1213 l 433 1088 z "},"Õ":{"ha":1056,"x_min":53,"x_max":1003,"o":"m 528 874 q 391 842 449 874 q 297 756 333 810 q 244 635 261 703 q 226 496 226 567 q 244 357 226 425 q 297 235 261 289 q 391 150 333 182 q 528 118 449 118 q 665 150 607 118 q 758 235 722 182 q 812 357 794 289 q 829 496 829 425 q 812 635 829 567 q 758 756 794 703 q 665 842 722 810 q 528 874 607 874 m 528 1015 q 727 974 639 1015 q 876 861 815 932 q 970 696 938 790 q 1003 496 1003 601 q 970 294 1003 389 q 876 129 938 200 q 727 17 815 58 q 528 -24 639 -24 q 328 17 417 -24 q 179 129 240 58 q 85 294 118 200 q 53 496 53 389 q 85 696 53 601 q 179 861 118 790 q 328 974 240 932 q 528 1015 417 1015 m 779 1269 q 763 1207 774 1236 q 733 1157 753 1178 q 689 1122 715 1135 q 625 1110 663 1110 q 575 1117 601 1110 q 522 1136 549 1125 q 471 1156 490 1150 q 428 1161 451 1161 q 388 1147 403 1161 q 368 1104 374 1132 l 289 1104 q 304 1158 293 1131 q 333 1209 315 1186 q 376 1247 351 1232 q 433 1261 401 1261 q 481 1256 460 1261 q 546 1233 503 1251 q 594 1215 575 1221 q 632 1208 613 1208 q 678 1225 663 1208 q 701 1269 694 1242 l 779 1269 z "},"Ö":{"ha":1056,"x_min":53,"x_max":1003,"o":"m 528 874 q 391 842 449 874 q 297 756 333 810 q 244 635 261 703 q 226 496 226 567 q 244 357 226 425 q 297 235 261 289 q 391 150 333 182 q 528 118 449 118 q 665 150 607 118 q 758 235 722 182 q 812 357 794 289 q 829 496 829 425 q 812 635 829 567 q 758 756 794 703 q 665 842 722 810 q 528 874 607 874 m 528 1015 q 727 974 639 1015 q 876 861 815 932 q 970 696 938 790 q 1003 496 1003 601 q 970 294 1003 389 q 876 129 938 200 q 727 17 815 58 q 528 -24 639 -24 q 328 17 417 -24 q 179 129 240 58 q 85 294 118 200 q 53 496 53 389 q 85 696 53 601 q 179 861 118 790 q 328 974 240 932 q 528 1015 417 1015 m 331 1106 l 331 1256 l 489 1256 l 489 1106 l 331 1106 m 728 1256 l 728 1106 l 569 1106 l 569 1256 l 728 1256 z "},"Ō":{"ha":1056,"x_min":53,"x_max":1003,"o":"m 528 874 q 391 842 449 874 q 297 756 333 810 q 244 635 261 703 q 226 496 226 567 q 244 357 226 425 q 297 235 261 289 q 391 150 333 182 q 528 118 449 118 q 665 150 607 118 q 758 235 722 182 q 812 357 794 289 q 829 496 829 425 q 812 635 829 567 q 758 756 794 703 q 665 842 722 810 q 528 874 607 874 m 528 1015 q 727 974 639 1015 q 876 861 815 932 q 970 696 938 790 q 1003 496 1003 601 q 970 294 1003 389 q 876 129 938 200 q 727 17 815 58 q 528 -24 639 -24 q 328 17 417 -24 q 179 129 240 58 q 85 294 118 200 q 53 496 53 389 q 85 696 53 601 q 179 861 118 790 q 328 974 240 932 q 528 1015 417 1015 m 332 1136 l 332 1226 l 732 1226 l 732 1136 l 332 1136 z "},"Ŏ":{"ha":1056,"x_min":53,"x_max":1003,"o":"m 528 874 q 391 842 449 874 q 297 756 333 810 q 244 635 261 703 q 226 496 226 567 q 244 357 226 425 q 297 235 261 289 q 391 150 333 182 q 528 118 449 118 q 665 150 607 118 q 758 235 722 182 q 812 357 794 289 q 829 496 829 425 q 812 635 829 567 q 758 756 794 703 q 665 842 722 810 q 528 874 607 874 m 528 1015 q 727 974 639 1015 q 876 861 815 932 q 970 696 938 790 q 1003 496 1003 601 q 970 294 1003 389 q 876 129 938 200 q 727 17 815 58 q 528 -24 639 -24 q 328 17 417 -24 q 179 129 240 58 q 85 294 118 200 q 53 496 53 389 q 85 696 53 601 q 179 861 118 790 q 328 974 240 932 q 528 1015 417 1015 m 382 1285 q 434 1203 393 1226 q 531 1179 475 1179 q 622 1206 583 1179 q 671 1285 660 1232 l 750 1285 q 677 1138 739 1186 q 519 1089 615 1089 q 367 1139 424 1089 q 301 1285 310 1189 l 382 1285 z "},"Ő":{"ha":1056,"x_min":53,"x_max":1003,"o":"m 528 874 q 391 842 449 874 q 297 756 333 810 q 244 635 261 703 q 226 496 226 567 q 244 357 226 425 q 297 235 261 289 q 391 150 333 182 q 528 118 449 118 q 665 150 607 118 q 758 235 722 182 q 812 357 794 289 q 829 496 829 425 q 812 635 829 567 q 758 756 794 703 q 665 842 722 810 q 528 874 607 874 m 528 1015 q 727 974 639 1015 q 876 861 815 932 q 970 696 938 790 q 1003 496 1003 601 q 970 294 1003 389 q 876 129 938 200 q 727 17 815 58 q 528 -24 639 -24 q 328 17 417 -24 q 179 129 240 58 q 85 294 118 200 q 53 496 53 389 q 85 696 53 601 q 179 861 118 790 q 328 974 240 932 q 528 1015 417 1015 m 729 1286 l 918 1286 l 718 1088 l 604 1088 l 729 1286 m 453 1286 l 642 1286 l 442 1088 l 328 1088 l 453 1286 z "},"Ø":{"ha":1056,"x_min":53,"x_max":1003,"o":"m 1000 969 l 890 846 q 974 686 944 775 q 1003 496 1003 597 q 970 294 1003 389 q 876 129 938 200 q 727 17 815 58 q 528 -24 639 -24 q 355 7 432 -24 q 219 90 278 38 l 114 -28 l 56 22 l 165 147 q 82 306 111 217 q 53 496 53 394 q 85 696 53 601 q 179 861 118 790 q 328 974 240 932 q 528 1015 417 1015 q 701 985 624 1015 q 836 903 778 956 l 940 1019 l 1000 969 m 322 206 q 410 142 360 165 q 528 118 461 118 q 665 150 607 118 q 758 235 722 182 q 812 357 794 289 q 829 496 829 425 q 817 613 829 556 q 778 719 806 671 l 322 206 m 733 786 q 648 850 699 826 q 528 874 597 874 q 391 842 449 874 q 297 756 333 810 q 244 635 261 703 q 226 496 226 567 q 238 378 226 435 q 276 272 250 321 l 733 786 z "},"Œ":{"ha":1518,"x_min":57,"x_max":1461,"o":"m 932 582 l 1408 582 l 1408 440 l 932 440 l 932 150 l 1461 150 l 1461 0 l 774 0 l 774 89 q 656 3 724 31 q 513 -24 588 -24 q 317 18 401 -24 q 174 131 232 60 q 87 295 117 201 q 57 492 57 389 q 88 691 57 596 q 179 858 119 786 q 326 973 239 931 q 524 1015 413 1015 q 660 993 599 1015 q 774 913 722 971 l 774 992 l 1451 992 l 1451 842 l 932 842 l 932 582 m 767 674 q 752 749 767 713 q 708 813 738 785 q 633 857 678 840 q 529 874 589 874 q 394 840 450 874 q 301 753 338 807 q 248 632 265 700 q 231 494 231 564 q 248 358 231 425 q 301 237 265 290 q 394 151 338 183 q 529 118 450 118 q 631 135 586 118 q 705 180 675 153 q 751 240 735 207 q 767 304 767 274 l 767 674 z "},"Ŕ":{"ha":978,"x_min":106,"x_max":944,"o":"m 106 992 l 579 992 q 825 921 743 992 q 907 724 907 850 q 886 606 907 653 q 838 531 865 560 q 783 490 810 503 q 743 474 756 478 l 743 471 q 791 457 765 468 q 839 422 817 446 q 876 358 861 397 q 890 261 890 319 q 903 102 890 174 q 944 0 917 31 l 758 0 q 735 71 739 32 q 732 146 732 110 q 724 263 732 214 q 693 345 715 313 q 633 393 671 378 q 535 408 594 408 l 279 408 l 279 0 l 106 0 l 106 992 m 279 540 l 564 540 q 690 580 647 540 q 733 699 733 619 q 719 776 733 746 q 681 822 706 806 q 626 844 657 839 q 561 850 594 850 l 279 850 l 279 540 m 522 1286 l 710 1286 l 513 1088 l 397 1088 l 522 1286 z "},"Ř":{"ha":978,"x_min":106,"x_max":944,"o":"m 106 992 l 579 992 q 825 921 743 992 q 907 724 907 850 q 886 606 907 653 q 838 531 865 560 q 783 490 810 503 q 743 474 756 478 l 743 471 q 791 457 765 468 q 839 422 817 446 q 876 358 861 397 q 890 261 890 319 q 903 102 890 174 q 944 0 917 31 l 758 0 q 735 71 739 32 q 732 146 732 110 q 724 263 732 214 q 693 345 715 313 q 633 393 671 378 q 535 408 594 408 l 279 408 l 279 0 l 106 0 l 106 992 m 279 540 l 564 540 q 690 580 647 540 q 733 699 733 619 q 719 776 733 746 q 681 822 706 806 q 626 844 657 839 q 561 850 594 850 l 279 850 l 279 540 m 543 1088 l 389 1088 l 240 1286 l 368 1286 l 465 1163 l 564 1286 l 693 1286 l 543 1088 z "},"Ŗ":{"ha":978,"x_min":106,"x_max":944,"o":"m 106 992 l 579 992 q 825 921 743 992 q 907 724 907 850 q 886 606 907 653 q 838 531 865 560 q 783 490 810 503 q 743 474 756 478 l 743 471 q 791 457 765 468 q 839 422 817 446 q 876 358 861 397 q 890 261 890 319 q 903 102 890 174 q 944 0 917 31 l 758 0 q 735 71 739 32 q 732 146 732 110 q 724 263 732 214 q 693 345 715 313 q 633 393 671 378 q 535 408 594 408 l 279 408 l 279 0 l 106 0 l 106 992 m 279 540 l 564 540 q 690 580 647 540 q 733 699 733 619 q 719 776 733 746 q 681 822 706 806 q 626 844 657 839 q 561 850 594 850 l 279 850 l 279 540 m 401 -69 l 583 -69 l 583 -193 q 569 -248 583 -221 q 522 -291 556 -275 q 422 -310 489 -307 l 422 -257 q 466 -242 451 -253 q 485 -207 481 -231 l 401 -207 l 401 -69 z "},"Ś":{"ha":900,"x_min":46,"x_max":854,"o":"m 219 331 q 239 233 219 274 q 293 167 258 193 q 373 130 328 142 q 471 118 418 118 q 568 131 528 118 q 633 165 608 144 q 669 213 658 186 q 681 268 681 240 q 655 352 681 325 q 599 390 629 379 q 476 427 546 410 q 303 472 406 444 q 197 516 239 489 q 129 576 154 543 q 94 647 104 610 q 83 724 83 685 q 115 853 83 799 q 197 944 146 908 q 314 998 249 981 q 446 1015 379 1015 q 592 995 524 1015 q 713 935 661 975 q 796 835 765 894 q 826 699 826 776 l 653 699 q 588 834 646 794 q 439 874 529 874 q 376 867 408 874 q 318 847 344 861 q 274 807 292 832 q 257 744 257 782 q 290 662 257 692 q 375 617 322 632 q 419 605 381 615 q 504 582 457 594 q 597 558 551 569 q 661 540 642 546 q 746 499 710 525 q 806 438 782 472 q 842 365 831 404 q 854 288 854 326 q 820 145 854 204 q 731 49 786 86 q 604 -6 675 11 q 460 -24 533 -24 q 300 -3 375 -24 q 169 61 225 18 q 81 172 114 104 q 46 331 47 239 l 219 331 m 508 1286 l 696 1286 l 499 1088 l 383 1088 l 508 1286 z "},"Ŝ":{"ha":900,"x_min":46,"x_max":854,"o":"m 219 331 q 239 233 219 274 q 293 167 258 193 q 373 130 328 142 q 471 118 418 118 q 568 131 528 118 q 633 165 608 144 q 669 213 658 186 q 681 268 681 240 q 655 352 681 325 q 599 390 629 379 q 476 427 546 410 q 303 472 406 444 q 197 516 239 489 q 129 576 154 543 q 94 647 104 610 q 83 724 83 685 q 115 853 83 799 q 197 944 146 908 q 314 998 249 981 q 446 1015 379 1015 q 592 995 524 1015 q 713 935 661 975 q 796 835 765 894 q 826 699 826 776 l 653 699 q 588 834 646 794 q 439 874 529 874 q 376 867 408 874 q 318 847 344 861 q 274 807 292 832 q 257 744 257 782 q 290 662 257 692 q 375 617 322 632 q 419 605 381 615 q 504 582 457 594 q 597 558 551 569 q 661 540 642 546 q 746 499 710 525 q 806 438 782 472 q 842 365 831 404 q 854 288 854 326 q 820 145 854 204 q 731 49 786 86 q 604 -6 675 11 q 460 -24 533 -24 q 300 -3 375 -24 q 169 61 225 18 q 81 172 114 104 q 46 331 47 239 l 219 331 m 361 1088 l 233 1088 l 382 1286 l 536 1286 l 686 1088 l 557 1088 l 458 1213 l 361 1088 z "},"Š":{"ha":900,"x_min":46,"x_max":854,"o":"m 219 331 q 239 233 219 274 q 293 167 258 193 q 373 130 328 142 q 471 118 418 118 q 568 131 528 118 q 633 165 608 144 q 669 213 658 186 q 681 268 681 240 q 655 352 681 325 q 599 390 629 379 q 476 427 546 410 q 303 472 406 444 q 197 516 239 489 q 129 576 154 543 q 94 647 104 610 q 83 724 83 685 q 115 853 83 799 q 197 944 146 908 q 314 998 249 981 q 446 1015 379 1015 q 592 995 524 1015 q 713 935 661 975 q 796 835 765 894 q 826 699 826 776 l 653 699 q 588 834 646 794 q 439 874 529 874 q 376 867 408 874 q 318 847 344 861 q 274 807 292 832 q 257 744 257 782 q 290 662 257 692 q 375 617 322 632 q 419 605 381 615 q 504 582 457 594 q 597 558 551 569 q 661 540 642 546 q 746 499 710 525 q 806 438 782 472 q 842 365 831 404 q 854 288 854 326 q 820 145 854 204 q 731 49 786 86 q 604 -6 675 11 q 460 -24 533 -24 q 300 -3 375 -24 q 169 61 225 18 q 81 172 114 104 q 46 331 47 239 l 219 331 m 532 1088 l 378 1088 l 229 1286 l 357 1286 l 454 1163 l 553 1286 l 682 1286 l 532 1088 z "},"Ş":{"ha":900,"x_min":46,"x_max":854,"o":"m 303 -222 q 349 -239 328 -233 q 393 -244 369 -244 q 422 -242 407 -244 q 450 -234 438 -240 q 470 -217 463 -228 q 478 -187 478 -206 q 458 -148 478 -161 q 414 -135 438 -135 q 360 -149 383 -135 l 329 -122 l 404 -21 q 300 -3 350 -17 q 169 61 225 18 q 81 172 114 104 q 46 331 47 239 l 219 331 q 239 233 219 274 q 293 167 258 193 q 373 130 328 142 q 471 118 418 118 q 568 131 528 118 q 633 165 608 144 q 669 213 658 186 q 681 268 681 240 q 655 352 681 325 q 599 390 629 379 q 476 427 546 410 q 303 472 406 444 q 197 516 239 489 q 129 576 154 543 q 94 647 104 610 q 83 724 83 685 q 115 853 83 799 q 197 944 146 908 q 314 998 249 981 q 446 1015 379 1015 q 592 995 524 1015 q 713 935 661 975 q 796 835 765 894 q 826 699 826 776 l 653 699 q 588 834 646 794 q 439 874 529 874 q 376 867 408 874 q 318 847 344 861 q 274 807 292 832 q 257 744 257 782 q 290 662 257 692 q 375 617 322 632 q 419 605 381 615 q 504 582 457 594 q 597 558 551 569 q 661 540 642 546 q 746 499 710 525 q 806 438 782 472 q 842 365 831 404 q 854 288 854 326 q 820 145 854 204 q 731 49 786 86 q 604 -6 675 11 q 468 -24 538 -22 l 424 -82 l 425 -83 q 444 -79 433 -81 q 471 -78 456 -78 q 513 -84 492 -78 q 550 -103 533 -90 q 578 -136 567 -117 q 589 -182 589 -156 q 574 -242 589 -218 q 535 -280 558 -265 q 481 -302 511 -294 q 421 -310 451 -310 q 345 -302 382 -310 q 278 -278 308 -294 l 303 -222 z "},"Ș":{"ha":900,"x_min":46,"x_max":854,"o":"m 219 331 q 239 233 219 274 q 293 167 258 193 q 373 130 328 142 q 471 118 418 118 q 568 131 528 118 q 633 165 608 144 q 669 213 658 186 q 681 268 681 240 q 655 352 681 325 q 599 390 629 379 q 476 427 546 410 q 303 472 406 444 q 197 516 239 489 q 129 576 154 543 q 94 647 104 610 q 83 724 83 685 q 115 853 83 799 q 197 944 146 908 q 314 998 249 981 q 446 1015 379 1015 q 592 995 524 1015 q 713 935 661 975 q 796 835 765 894 q 826 699 826 776 l 653 699 q 588 834 646 794 q 439 874 529 874 q 376 867 408 874 q 318 847 344 861 q 274 807 292 832 q 257 744 257 782 q 290 662 257 692 q 375 617 322 632 q 419 605 381 615 q 504 582 457 594 q 597 558 551 569 q 661 540 642 546 q 746 499 710 525 q 806 438 782 472 q 842 365 831 404 q 854 288 854 326 q 820 145 854 204 q 731 49 786 86 q 604 -6 675 11 q 460 -24 533 -24 q 300 -3 375 -24 q 169 61 225 18 q 81 172 114 104 q 46 331 47 239 l 219 331 m 358 -69 l 540 -69 l 540 -193 q 526 -248 540 -221 q 479 -291 513 -275 q 379 -310 446 -307 l 379 -257 q 423 -242 408 -253 q 442 -207 438 -231 l 358 -207 l 358 -69 z "},"Ť":{"ha":824,"x_min":11,"x_max":814,"o":"m 11 992 l 814 992 l 814 842 l 499 842 l 499 0 l 325 0 l 325 842 l 11 842 l 11 992 m 490 1088 l 336 1088 l 188 1286 l 315 1286 l 413 1163 l 511 1286 l 640 1286 l 490 1088 z "},"Ţ":{"ha":824,"x_min":11,"x_max":814,"o":"m 11 992 l 814 992 l 814 842 l 499 842 l 499 0 l 325 0 l 325 842 l 11 842 l 11 992 m 319 -69 l 501 -69 l 501 -193 q 488 -248 501 -221 q 440 -291 474 -275 q 340 -310 407 -307 l 340 -257 q 384 -242 369 -253 q 403 -207 399 -231 l 319 -207 l 319 -69 z "},"Ț":{"ha":824,"x_min":11,"x_max":814,"o":"m 11 992 l 814 992 l 814 842 l 499 842 l 499 0 l 325 0 l 325 842 l 11 842 l 11 992 m 319 -69 l 501 -69 l 501 -193 q 488 -248 501 -221 q 440 -291 474 -275 q 340 -310 407 -307 l 340 -257 q 384 -242 369 -253 q 403 -207 399 -231 l 319 -207 l 319 -69 z "},"Ŧ":{"ha":824,"x_min":11,"x_max":814,"o":"m 11 992 l 814 992 l 814 842 l 499 842 l 499 650 l 726 650 l 726 560 l 499 560 l 499 0 l 325 0 l 325 560 l 104 560 l 104 650 l 325 650 l 325 842 l 11 842 l 11 992 z "},"Þ":{"ha":926,"x_min":106,"x_max":881,"o":"m 279 372 l 533 372 q 593 381 563 372 q 649 408 624 389 q 691 458 675 426 q 707 536 707 489 q 693 617 707 585 q 656 667 679 649 q 601 693 632 686 q 536 700 571 700 l 279 700 l 279 372 m 106 992 l 279 992 l 279 842 l 543 842 q 715 811 649 842 q 818 735 782 781 q 867 635 854 689 q 881 535 881 581 q 867 435 881 489 q 818 336 854 382 q 715 260 782 290 q 543 231 649 231 l 279 231 l 279 0 l 106 0 l 106 992 z "},"Ù":{"ha":1003,"x_min":94,"x_max":908,"o":"m 94 992 l 268 992 l 268 414 q 273 313 268 364 q 301 220 278 261 q 370 153 324 179 q 501 126 417 126 q 633 153 586 126 q 702 220 679 179 q 730 313 725 261 q 735 414 735 364 l 735 992 l 908 992 l 908 357 q 879 190 908 261 q 797 72 850 119 q 668 0 743 24 q 501 -24 593 -24 q 335 0 410 -24 q 206 72 260 24 q 124 190 153 119 q 94 357 94 261 l 94 992 m 450 1286 l 576 1088 l 461 1088 l 264 1286 l 450 1286 z "},"Ú":{"ha":1003,"x_min":94,"x_max":908,"o":"m 94 992 l 268 992 l 268 414 q 273 313 268 364 q 301 220 278 261 q 370 153 324 179 q 501 126 417 126 q 633 153 586 126 q 702 220 679 179 q 730 313 725 261 q 735 414 735 364 l 735 992 l 908 992 l 908 357 q 879 190 908 261 q 797 72 850 119 q 668 0 743 24 q 501 -24 593 -24 q 335 0 410 -24 q 206 72 260 24 q 124 190 153 119 q 94 357 94 261 l 94 992 m 553 1286 l 740 1286 l 543 1088 l 428 1088 l 553 1286 z "},"Û":{"ha":1003,"x_min":94,"x_max":908,"o":"m 94 992 l 268 992 l 268 414 q 273 313 268 364 q 301 220 278 261 q 370 153 324 179 q 501 126 417 126 q 633 153 586 126 q 702 220 679 179 q 730 313 725 261 q 735 414 735 364 l 735 992 l 908 992 l 908 357 q 879 190 908 261 q 797 72 850 119 q 668 0 743 24 q 501 -24 593 -24 q 335 0 410 -24 q 206 72 260 24 q 124 190 153 119 q 94 357 94 261 l 94 992 m 406 1088 l 278 1088 l 426 1286 l 581 1286 l 731 1088 l 601 1088 l 503 1213 l 406 1088 z "},"Ũ":{"ha":1003,"x_min":94,"x_max":908,"o":"m 94 992 l 268 992 l 268 414 q 273 313 268 364 q 301 220 278 261 q 370 153 324 179 q 501 126 417 126 q 633 153 586 126 q 702 220 679 179 q 730 313 725 261 q 735 414 735 364 l 735 992 l 908 992 l 908 357 q 879 190 908 261 q 797 72 850 119 q 668 0 743 24 q 501 -24 593 -24 q 335 0 410 -24 q 206 72 260 24 q 124 190 153 119 q 94 357 94 261 l 94 992 m 750 1269 q 734 1207 744 1236 q 704 1157 724 1178 q 660 1122 686 1135 q 596 1110 633 1110 q 546 1117 572 1110 q 493 1136 519 1125 q 442 1156 461 1150 q 399 1161 422 1161 q 359 1147 374 1161 q 339 1104 344 1132 l 260 1104 q 275 1158 264 1131 q 304 1209 286 1186 q 347 1247 322 1232 q 404 1261 372 1261 q 452 1256 431 1261 q 517 1233 474 1251 q 565 1215 546 1221 q 603 1208 583 1208 q 649 1225 633 1208 q 672 1269 665 1242 l 750 1269 z "},"Ü":{"ha":1003,"x_min":94,"x_max":908,"o":"m 94 992 l 268 992 l 268 414 q 273 313 268 364 q 301 220 278 261 q 370 153 324 179 q 501 126 417 126 q 633 153 586 126 q 702 220 679 179 q 730 313 725 261 q 735 414 735 364 l 735 992 l 908 992 l 908 357 q 879 190 908 261 q 797 72 850 119 q 668 0 743 24 q 501 -24 593 -24 q 335 0 410 -24 q 206 72 260 24 q 124 190 153 119 q 94 357 94 261 l 94 992 m 301 1106 l 301 1256 l 460 1256 l 460 1106 l 301 1106 m 699 1256 l 699 1106 l 540 1106 l 540 1256 l 699 1256 z "},"Ū":{"ha":1003,"x_min":94,"x_max":908,"o":"m 94 992 l 268 992 l 268 414 q 273 313 268 364 q 301 220 278 261 q 370 153 324 179 q 501 126 417 126 q 633 153 586 126 q 702 220 679 179 q 730 313 725 261 q 735 414 735 364 l 735 992 l 908 992 l 908 357 q 879 190 908 261 q 797 72 850 119 q 668 0 743 24 q 501 -24 593 -24 q 335 0 410 -24 q 206 72 260 24 q 124 190 153 119 q 94 357 94 261 l 94 992 m 303 1136 l 303 1226 l 703 1226 l 703 1136 l 303 1136 z "},"Ŭ":{"ha":1003,"x_min":94,"x_max":908,"o":"m 94 992 l 268 992 l 268 414 q 273 313 268 364 q 301 220 278 261 q 370 153 324 179 q 501 126 417 126 q 633 153 586 126 q 702 220 679 179 q 730 313 725 261 q 735 414 735 364 l 735 992 l 908 992 l 908 357 q 879 190 908 261 q 797 72 850 119 q 668 0 743 24 q 501 -24 593 -24 q 335 0 410 -24 q 206 72 260 24 q 124 190 153 119 q 94 357 94 261 l 94 992 m 360 1285 q 412 1203 371 1226 q 508 1179 453 1179 q 599 1206 561 1179 q 649 1285 638 1232 l 728 1285 q 655 1138 717 1186 q 497 1089 593 1089 q 344 1139 401 1089 q 279 1285 288 1189 l 360 1285 z "},"Ů":{"ha":1003,"x_min":94,"x_max":908,"o":"m 94 992 l 268 992 l 268 414 q 273 313 268 364 q 301 220 278 261 q 370 153 324 179 q 501 126 417 126 q 633 153 586 126 q 702 220 679 179 q 730 313 725 261 q 735 414 735 364 l 735 992 l 908 992 l 908 357 q 879 190 908 261 q 797 72 850 119 q 668 0 743 24 q 501 -24 593 -24 q 335 0 410 -24 q 206 72 260 24 q 124 190 153 119 q 94 357 94 261 l 94 992 m 421 1186 q 445 1126 421 1150 q 504 1101 469 1101 q 564 1126 540 1101 q 588 1186 588 1150 q 564 1247 588 1224 q 504 1271 540 1271 q 445 1247 469 1271 q 421 1186 421 1224 m 504 1043 q 449 1053 475 1043 q 402 1083 422 1064 q 371 1128 382 1101 q 360 1186 360 1154 q 372 1244 360 1218 q 403 1290 383 1271 q 449 1319 424 1310 q 504 1329 475 1329 q 559 1319 533 1329 q 606 1290 585 1310 q 638 1244 626 1271 q 649 1186 649 1218 q 638 1128 649 1154 q 606 1083 626 1101 q 559 1053 585 1064 q 504 1043 533 1043 z "},"Ű":{"ha":1003,"x_min":94,"x_max":908,"o":"m 94 992 l 268 992 l 268 414 q 273 313 268 364 q 301 220 278 261 q 370 153 324 179 q 501 126 417 126 q 633 153 586 126 q 702 220 679 179 q 730 313 725 261 q 735 414 735 364 l 735 992 l 908 992 l 908 357 q 879 190 908 261 q 797 72 850 119 q 668 0 743 24 q 501 -24 593 -24 q 335 0 410 -24 q 206 72 260 24 q 124 190 153 119 q 94 357 94 261 l 94 992 m 707 1286 l 896 1286 l 696 1088 l 582 1088 l 707 1286 m 431 1286 l 619 1286 l 419 1088 l 306 1088 l 431 1286 z "},"Ų":{"ha":1003,"x_min":94,"x_max":908,"o":"m 94 992 l 268 992 l 268 414 q 273 313 268 364 q 301 220 278 261 q 370 153 324 179 q 501 126 417 126 q 633 153 586 126 q 702 220 679 179 q 730 313 725 261 q 735 414 735 364 l 735 992 l 908 992 l 908 357 q 879 190 908 261 q 797 72 850 119 q 668 0 743 24 q 556 -21 615 -17 q 518 -54 535 -39 q 478 -101 493 -79 q 458 -141 464 -122 q 453 -179 453 -160 q 469 -224 453 -207 q 507 -240 486 -240 q 544 -231 528 -240 q 579 -193 561 -221 l 636 -206 q 612 -256 628 -236 q 576 -288 596 -276 q 533 -305 556 -300 q 490 -310 511 -310 q 458 -307 481 -310 q 410 -292 435 -304 q 368 -254 386 -279 q 350 -185 350 -229 q 353 -157 350 -174 q 371 -117 356 -140 q 418 -64 386 -93 q 471 -22 439 -44 q 335 0 397 -19 q 206 72 260 24 q 124 190 153 119 q 94 357 94 261 l 94 992 z "},"Ŵ":{"ha":1311,"x_min":8,"x_max":1303,"o":"m 8 992 l 185 992 l 364 233 l 367 233 l 567 992 l 744 992 l 939 233 l 942 233 l 1126 992 l 1303 992 l 1029 0 l 853 0 l 654 758 l 651 758 l 449 0 l 269 0 l 8 992 m 558 1088 l 431 1088 l 579 1286 l 733 1286 l 883 1088 l 754 1088 l 656 1213 l 558 1088 z "},"Ý":{"ha":900,"x_min":-8,"x_max":908,"o":"m 364 389 l -8 992 l 193 992 l 456 547 l 714 992 l 908 992 l 538 389 l 538 0 l 364 0 l 364 389 m 518 1286 l 706 1286 l 508 1088 l 393 1088 l 518 1286 z "},"Ŷ":{"ha":900,"x_min":-8,"x_max":908,"o":"m 364 389 l -8 992 l 193 992 l 456 547 l 714 992 l 908 992 l 538 389 l 538 0 l 364 0 l 364 389 m 361 1088 l 233 1088 l 382 1286 l 536 1286 l 686 1088 l 557 1088 l 458 1213 l 361 1088 z "},"Ÿ":{"ha":900,"x_min":-8,"x_max":908,"o":"m 364 389 l -8 992 l 193 992 l 456 547 l 714 992 l 908 992 l 538 389 l 538 0 l 364 0 l 364 389 m 258 1106 l 258 1256 l 417 1256 l 417 1106 l 258 1106 m 656 1256 l 656 1106 l 497 1106 l 497 1256 l 656 1256 z "},"Ź":{"ha":875,"x_min":32,"x_max":844,"o":"m 76 992 l 831 992 l 831 860 l 253 150 l 844 150 l 844 0 l 32 0 l 32 142 l 610 842 l 76 842 l 76 992 m 500 1286 l 688 1286 l 490 1088 l 375 1088 l 500 1286 z "},"Ž":{"ha":875,"x_min":32,"x_max":844,"o":"m 76 992 l 831 992 l 831 860 l 253 150 l 844 150 l 844 0 l 32 0 l 32 142 l 610 842 l 76 842 l 76 992 m 525 1088 l 371 1088 l 222 1286 l 350 1286 l 447 1163 l 546 1286 l 675 1286 l 525 1088 z "},"Ż":{"ha":875,"x_min":32,"x_max":844,"o":"m 76 992 l 831 992 l 831 860 l 253 150 l 844 150 l 844 0 l 32 0 l 32 142 l 610 842 l 76 842 l 76 992 m 369 1106 l 369 1256 l 528 1256 l 528 1106 l 369 1106 z "},"à":{"ha":772,"x_min":44,"x_max":761,"o":"m 685 160 q 692 118 685 131 q 722 106 700 106 q 739 106 729 106 q 761 108 749 106 l 761 -1 q 740 -8 753 -4 q 713 -14 726 -11 q 685 -18 699 -17 q 661 -19 671 -19 q 581 0 613 -19 q 539 68 549 19 q 423 1 492 22 q 290 -19 354 -19 q 197 -6 242 -19 q 119 33 153 7 q 65 98 85 58 q 44 190 44 138 q 69 299 44 257 q 133 364 93 340 q 222 398 172 388 q 321 414 271 408 q 403 426 364 422 q 472 438 442 429 q 519 463 501 446 q 536 515 536 481 q 522 565 536 546 q 485 595 507 585 q 438 609 464 606 q 388 613 411 613 q 278 585 321 613 q 229 499 235 557 l 71 499 q 104 614 75 568 q 178 688 133 660 q 281 726 224 715 q 397 738 338 738 q 501 726 450 738 q 594 690 553 715 q 660 626 635 665 q 685 529 685 586 l 685 160 m 526 360 q 438 331 490 336 q 332 317 385 326 q 283 305 307 313 q 242 284 260 297 q 213 249 224 271 q 203 197 203 228 q 218 153 203 171 q 255 124 233 135 q 302 110 276 114 q 349 106 328 106 q 406 113 375 106 q 463 136 436 119 q 508 178 490 153 q 526 242 526 204 l 526 360 m 365 1017 l 492 818 l 376 818 l 179 1017 l 365 1017 z "},"á":{"ha":772,"x_min":44,"x_max":761,"o":"m 685 160 q 692 118 685 131 q 722 106 700 106 q 739 106 729 106 q 761 108 749 106 l 761 -1 q 740 -8 753 -4 q 713 -14 726 -11 q 685 -18 699 -17 q 661 -19 671 -19 q 581 0 613 -19 q 539 68 549 19 q 423 1 492 22 q 290 -19 354 -19 q 197 -6 242 -19 q 119 33 153 7 q 65 98 85 58 q 44 190 44 138 q 69 299 44 257 q 133 364 93 340 q 222 398 172 388 q 321 414 271 408 q 403 426 364 422 q 472 438 442 429 q 519 463 501 446 q 536 515 536 481 q 522 565 536 546 q 485 595 507 585 q 438 609 464 606 q 388 613 411 613 q 278 585 321 613 q 229 499 235 557 l 71 499 q 104 614 75 568 q 178 688 133 660 q 281 726 224 715 q 397 738 338 738 q 501 726 450 738 q 594 690 553 715 q 660 626 635 665 q 685 529 685 586 l 685 160 m 526 360 q 438 331 490 336 q 332 317 385 326 q 283 305 307 313 q 242 284 260 297 q 213 249 224 271 q 203 197 203 228 q 218 153 203 171 q 255 124 233 135 q 302 110 276 114 q 349 106 328 106 q 406 113 375 106 q 463 136 436 119 q 508 178 490 153 q 526 242 526 204 l 526 360 m 436 1017 l 624 1017 l 426 818 l 311 818 l 436 1017 z "},"â":{"ha":772,"x_min":44,"x_max":761,"o":"m 685 160 q 692 118 685 131 q 722 106 700 106 q 739 106 729 106 q 761 108 749 106 l 761 -1 q 740 -8 753 -4 q 713 -14 726 -11 q 685 -18 699 -17 q 661 -19 671 -19 q 581 0 613 -19 q 539 68 549 19 q 423 1 492 22 q 290 -19 354 -19 q 197 -6 242 -19 q 119 33 153 7 q 65 98 85 58 q 44 190 44 138 q 69 299 44 257 q 133 364 93 340 q 222 398 172 388 q 321 414 271 408 q 403 426 364 422 q 472 438 442 429 q 519 463 501 446 q 536 515 536 481 q 522 565 536 546 q 485 595 507 585 q 438 609 464 606 q 388 613 411 613 q 278 585 321 613 q 229 499 235 557 l 71 499 q 104 614 75 568 q 178 688 133 660 q 281 726 224 715 q 397 738 338 738 q 501 726 450 738 q 594 690 553 715 q 660 626 635 665 q 685 529 685 586 l 685 160 m 526 360 q 438 331 490 336 q 332 317 385 326 q 283 305 307 313 q 242 284 260 297 q 213 249 224 271 q 203 197 203 228 q 218 153 203 171 q 255 124 233 135 q 302 110 276 114 q 349 106 328 106 q 406 113 375 106 q 463 136 436 119 q 508 178 490 153 q 526 242 526 204 l 526 360 m 297 818 l 169 818 l 318 1017 l 472 1017 l 622 818 l 493 818 l 394 943 l 297 818 z "},"ã":{"ha":772,"x_min":44,"x_max":761,"o":"m 685 160 q 692 118 685 131 q 722 106 700 106 q 739 106 729 106 q 761 108 749 106 l 761 -1 q 740 -8 753 -4 q 713 -14 726 -11 q 685 -18 699 -17 q 661 -19 671 -19 q 581 0 613 -19 q 539 68 549 19 q 423 1 492 22 q 290 -19 354 -19 q 197 -6 242 -19 q 119 33 153 7 q 65 98 85 58 q 44 190 44 138 q 69 299 44 257 q 133 364 93 340 q 222 398 172 388 q 321 414 271 408 q 403 426 364 422 q 472 438 442 429 q 519 463 501 446 q 536 515 536 481 q 522 565 536 546 q 485 595 507 585 q 438 609 464 606 q 388 613 411 613 q 278 585 321 613 q 229 499 235 557 l 71 499 q 104 614 75 568 q 178 688 133 660 q 281 726 224 715 q 397 738 338 738 q 501 726 450 738 q 594 690 553 715 q 660 626 635 665 q 685 529 685 586 l 685 160 m 526 360 q 438 331 490 336 q 332 317 385 326 q 283 305 307 313 q 242 284 260 297 q 213 249 224 271 q 203 197 203 228 q 218 153 203 171 q 255 124 233 135 q 302 110 276 114 q 349 106 328 106 q 406 113 375 106 q 463 136 436 119 q 508 178 490 153 q 526 242 526 204 l 526 360 m 640 1000 q 624 938 635 967 q 594 888 614 908 q 550 853 576 865 q 486 840 524 840 q 436 848 463 840 q 383 867 410 856 q 332 886 351 881 q 289 892 313 892 q 249 877 264 892 q 229 835 235 863 l 150 835 q 165 889 154 861 q 194 940 176 917 q 238 977 213 963 q 294 992 263 992 q 342 987 321 992 q 407 964 364 982 q 455 945 436 951 q 493 939 474 939 q 540 956 524 939 q 563 1000 556 972 l 640 1000 z "},"ä":{"ha":772,"x_min":44,"x_max":761,"o":"m 685 160 q 692 118 685 131 q 722 106 700 106 q 739 106 729 106 q 761 108 749 106 l 761 -1 q 740 -8 753 -4 q 713 -14 726 -11 q 685 -18 699 -17 q 661 -19 671 -19 q 581 0 613 -19 q 539 68 549 19 q 423 1 492 22 q 290 -19 354 -19 q 197 -6 242 -19 q 119 33 153 7 q 65 98 85 58 q 44 190 44 138 q 69 299 44 257 q 133 364 93 340 q 222 398 172 388 q 321 414 271 408 q 403 426 364 422 q 472 438 442 429 q 519 463 501 446 q 536 515 536 481 q 522 565 536 546 q 485 595 507 585 q 438 609 464 606 q 388 613 411 613 q 278 585 321 613 q 229 499 235 557 l 71 499 q 104 614 75 568 q 178 688 133 660 q 281 726 224 715 q 397 738 338 738 q 501 726 450 738 q 594 690 553 715 q 660 626 635 665 q 685 529 685 586 l 685 160 m 526 360 q 438 331 490 336 q 332 317 385 326 q 283 305 307 313 q 242 284 260 297 q 213 249 224 271 q 203 197 203 228 q 218 153 203 171 q 255 124 233 135 q 302 110 276 114 q 349 106 328 106 q 406 113 375 106 q 463 136 436 119 q 508 178 490 153 q 526 242 526 204 l 526 360 m 193 836 l 193 986 l 351 986 l 351 836 l 193 836 m 590 986 l 590 836 l 432 836 l 432 986 l 590 986 z "},"ā":{"ha":772,"x_min":44,"x_max":761,"o":"m 685 160 q 692 118 685 131 q 722 106 700 106 q 739 106 729 106 q 761 108 749 106 l 761 -1 q 740 -8 753 -4 q 713 -14 726 -11 q 685 -18 699 -17 q 661 -19 671 -19 q 581 0 613 -19 q 539 68 549 19 q 423 1 492 22 q 290 -19 354 -19 q 197 -6 242 -19 q 119 33 153 7 q 65 98 85 58 q 44 190 44 138 q 69 299 44 257 q 133 364 93 340 q 222 398 172 388 q 321 414 271 408 q 403 426 364 422 q 472 438 442 429 q 519 463 501 446 q 536 515 536 481 q 522 565 536 546 q 485 595 507 585 q 438 609 464 606 q 388 613 411 613 q 278 585 321 613 q 229 499 235 557 l 71 499 q 104 614 75 568 q 178 688 133 660 q 281 726 224 715 q 397 738 338 738 q 501 726 450 738 q 594 690 553 715 q 660 626 635 665 q 685 529 685 586 l 685 160 m 526 360 q 438 331 490 336 q 332 317 385 326 q 283 305 307 313 q 242 284 260 297 q 213 249 224 271 q 203 197 203 228 q 218 153 203 171 q 255 124 233 135 q 302 110 276 114 q 349 106 328 106 q 406 113 375 106 q 463 136 436 119 q 508 178 490 153 q 526 242 526 204 l 526 360 m 190 867 l 190 957 l 590 957 l 590 867 l 190 867 z "},"ă":{"ha":772,"x_min":44,"x_max":761,"o":"m 685 160 q 692 118 685 131 q 722 106 700 106 q 739 106 729 106 q 761 108 749 106 l 761 -1 q 740 -8 753 -4 q 713 -14 726 -11 q 685 -18 699 -17 q 661 -19 671 -19 q 581 0 613 -19 q 539 68 549 19 q 423 1 492 22 q 290 -19 354 -19 q 197 -6 242 -19 q 119 33 153 7 q 65 98 85 58 q 44 190 44 138 q 69 299 44 257 q 133 364 93 340 q 222 398 172 388 q 321 414 271 408 q 403 426 364 422 q 472 438 442 429 q 519 463 501 446 q 536 515 536 481 q 522 565 536 546 q 485 595 507 585 q 438 609 464 606 q 388 613 411 613 q 278 585 321 613 q 229 499 235 557 l 71 499 q 104 614 75 568 q 178 688 133 660 q 281 726 224 715 q 397 738 338 738 q 501 726 450 738 q 594 690 553 715 q 660 626 635 665 q 685 529 685 586 l 685 160 m 526 360 q 438 331 490 336 q 332 317 385 326 q 283 305 307 313 q 242 284 260 297 q 213 249 224 271 q 203 197 203 228 q 218 153 203 171 q 255 124 233 135 q 302 110 276 114 q 349 106 328 106 q 406 113 375 106 q 463 136 436 119 q 508 178 490 153 q 526 242 526 204 l 526 360 m 246 1015 q 298 933 257 957 q 394 910 339 910 q 485 936 447 910 q 535 1015 524 963 l 614 1015 q 541 868 603 917 q 383 819 479 819 q 231 869 288 819 q 165 1015 174 919 l 246 1015 z "},"å":{"ha":772,"x_min":44,"x_max":761,"o":"m 685 160 q 692 118 685 131 q 722 106 700 106 q 739 106 729 106 q 761 108 749 106 l 761 -1 q 740 -8 753 -4 q 713 -14 726 -11 q 685 -18 699 -17 q 661 -19 671 -19 q 581 0 613 -19 q 539 68 549 19 q 423 1 492 22 q 290 -19 354 -19 q 197 -6 242 -19 q 119 33 153 7 q 65 98 85 58 q 44 190 44 138 q 69 299 44 257 q 133 364 93 340 q 222 398 172 388 q 321 414 271 408 q 403 426 364 422 q 472 438 442 429 q 519 463 501 446 q 536 515 536 481 q 522 565 536 546 q 485 595 507 585 q 438 609 464 606 q 388 613 411 613 q 278 585 321 613 q 229 499 235 557 l 71 499 q 104 614 75 568 q 178 688 133 660 q 281 726 224 715 q 397 738 338 738 q 501 726 450 738 q 594 690 553 715 q 660 626 635 665 q 685 529 685 586 l 685 160 m 526 360 q 438 331 490 336 q 332 317 385 326 q 283 305 307 313 q 242 284 260 297 q 213 249 224 271 q 203 197 203 228 q 218 153 203 171 q 255 124 233 135 q 302 110 276 114 q 349 106 328 106 q 406 113 375 106 q 463 136 436 119 q 508 178 490 153 q 526 242 526 204 l 526 360 m 308 936 q 333 876 308 900 q 392 851 357 851 q 451 876 428 851 q 475 936 475 900 q 451 997 475 974 q 392 1021 428 1021 q 333 997 357 1021 q 308 936 308 974 m 392 793 q 336 803 363 793 q 290 833 310 814 q 258 878 269 851 q 247 936 247 904 q 259 994 247 968 q 291 1040 271 1021 q 337 1069 311 1060 q 392 1079 363 1079 q 447 1069 421 1079 q 493 1040 472 1060 q 525 994 514 1021 q 536 936 536 968 q 525 878 536 904 q 493 833 514 851 q 447 803 472 814 q 392 793 421 793 z "},"ą":{"ha":772,"x_min":44,"x_max":761,"o":"m 685 160 q 692 118 685 131 q 722 106 700 106 l 739 106 q 761 108 749 106 l 761 -1 q 740 -8 753 -4 q 713 -14 726 -11 q 685 -18 699 -17 q 661 -19 671 -19 l 660 -19 q 619 -54 638 -39 q 580 -101 594 -79 q 560 -141 565 -122 q 554 -179 554 -160 q 571 -224 554 -207 q 608 -240 588 -240 q 646 -231 629 -240 q 681 -193 663 -221 l 738 -206 q 713 -256 729 -236 q 677 -288 697 -276 q 635 -305 657 -300 q 592 -310 613 -310 q 559 -307 582 -310 q 512 -292 536 -304 q 469 -254 488 -279 q 451 -185 451 -229 q 454 -157 451 -174 q 472 -117 457 -140 q 519 -64 488 -93 q 596 -8 547 -37 q 581 0 588 -4 q 539 68 549 19 q 423 1 492 22 q 290 -19 354 -19 q 197 -6 242 -19 q 119 33 153 7 q 65 98 85 58 q 44 190 44 138 q 69 299 44 257 q 133 364 93 340 q 222 398 172 388 q 321 414 271 408 q 403 426 364 422 q 472 438 442 429 q 519 463 501 446 q 536 515 536 481 q 522 565 536 546 q 485 595 507 585 q 438 609 464 606 q 388 613 411 613 q 278 585 321 613 q 229 499 235 557 l 71 499 q 104 614 75 568 q 178 688 133 660 q 281 726 224 715 q 397 738 338 738 q 501 726 450 738 q 594 690 553 715 q 660 626 635 665 q 685 529 685 586 l 685 160 m 526 360 q 438 331 490 336 q 332 317 385 326 q 283 305 307 313 q 242 284 260 297 q 213 249 224 271 q 203 197 203 228 q 218 153 203 171 q 255 124 233 135 q 302 110 276 114 q 349 106 328 106 q 406 113 375 106 q 463 136 436 119 q 508 178 490 153 q 526 242 526 204 l 526 360 z "},"æ":{"ha":1235,"x_min":44,"x_max":1203,"o":"m 1192 226 q 1074 46 1161 111 q 867 -19 986 -19 q 715 10 786 -19 q 603 113 644 39 q 476 11 556 42 q 304 -19 396 -19 q 203 -6 250 -19 q 120 33 156 7 q 65 98 85 58 q 44 190 44 138 q 69 299 44 257 q 133 364 93 340 q 222 398 172 388 q 321 414 271 408 q 401 426 364 422 q 467 438 439 429 q 511 463 494 446 q 528 515 528 481 q 515 565 528 546 q 481 595 501 585 q 436 609 461 606 q 388 613 411 613 q 278 585 321 613 q 229 499 235 557 l 71 499 q 104 614 75 568 q 178 688 133 660 q 279 726 224 715 q 393 738 335 738 q 461 734 426 738 q 528 720 496 731 q 588 690 560 710 q 636 640 615 671 q 738 715 676 693 q 864 738 799 738 q 1022 706 956 738 q 1128 617 1088 674 q 1186 484 1169 561 q 1197 318 1203 407 l 676 318 q 687 238 676 276 q 720 171 697 200 q 779 124 743 142 q 864 106 815 106 q 971 138 928 106 q 1033 226 1014 169 l 1192 226 m 526 357 q 492 339 514 344 q 445 330 471 333 q 390 324 419 326 q 333 317 361 321 q 283 305 307 313 q 242 284 260 297 q 213 249 224 271 q 203 197 203 228 q 216 152 203 169 q 250 124 229 135 q 297 110 271 114 q 347 106 322 106 q 413 115 381 106 q 469 142 444 124 q 510 188 494 161 q 526 250 526 214 l 526 357 m 1039 422 q 992 560 1040 508 q 857 613 944 613 q 783 597 815 613 q 727 556 750 582 q 692 495 704 529 q 676 422 679 461 l 1039 422 z "},"ć":{"ha":772,"x_min":49,"x_max":726,"o":"m 568 478 q 515 578 558 544 q 404 613 471 613 q 339 602 374 613 q 275 563 304 592 q 226 484 246 535 q 207 351 207 433 q 217 263 207 307 q 251 183 228 218 q 310 127 274 149 q 397 106 346 106 q 512 149 467 106 q 568 269 557 192 l 726 269 q 620 55 704 129 q 397 -19 536 -19 q 248 9 313 -19 q 139 87 183 38 q 72 204 94 136 q 49 351 49 272 q 71 503 49 432 q 138 626 93 574 q 248 708 182 678 q 403 738 314 738 q 522 722 465 738 q 622 674 578 706 q 693 593 665 642 q 726 478 721 544 l 568 478 m 460 1017 l 647 1017 l 450 818 l 335 818 l 460 1017 z "},"ĉ":{"ha":772,"x_min":49,"x_max":726,"o":"m 568 478 q 515 578 558 544 q 404 613 471 613 q 339 602 374 613 q 275 563 304 592 q 226 484 246 535 q 207 351 207 433 q 217 263 207 307 q 251 183 228 218 q 310 127 274 149 q 397 106 346 106 q 512 149 467 106 q 568 269 557 192 l 726 269 q 620 55 704 129 q 397 -19 536 -19 q 248 9 313 -19 q 139 87 183 38 q 72 204 94 136 q 49 351 49 272 q 71 503 49 432 q 138 626 93 574 q 248 708 182 678 q 403 738 314 738 q 522 722 465 738 q 622 674 578 706 q 693 593 665 642 q 726 478 721 544 l 568 478 m 307 818 l 179 818 l 328 1017 l 482 1017 l 632 818 l 503 818 l 404 943 l 307 818 z "},"č":{"ha":772,"x_min":49,"x_max":726,"o":"m 568 478 q 515 578 558 544 q 404 613 471 613 q 339 602 374 613 q 275 563 304 592 q 226 484 246 535 q 207 351 207 433 q 217 263 207 307 q 251 183 228 218 q 310 127 274 149 q 397 106 346 106 q 512 149 467 106 q 568 269 557 192 l 726 269 q 620 55 704 129 q 397 -19 536 -19 q 248 9 313 -19 q 139 87 183 38 q 72 204 94 136 q 49 351 49 272 q 71 503 49 432 q 138 626 93 574 q 248 708 182 678 q 403 738 314 738 q 522 722 465 738 q 622 674 578 706 q 693 593 665 642 q 726 478 721 544 l 568 478 m 479 818 l 325 818 l 176 1017 l 304 1017 l 401 893 l 500 1017 l 629 1017 l 479 818 z "},"ċ":{"ha":772,"x_min":49,"x_max":726,"o":"m 568 478 q 515 578 558 544 q 404 613 471 613 q 339 602 374 613 q 275 563 304 592 q 226 484 246 535 q 207 351 207 433 q 217 263 207 307 q 251 183 228 218 q 310 127 274 149 q 397 106 346 106 q 512 149 467 106 q 568 269 557 192 l 726 269 q 620 55 704 129 q 397 -19 536 -19 q 248 9 313 -19 q 139 87 183 38 q 72 204 94 136 q 49 351 49 272 q 71 503 49 432 q 138 626 93 574 q 248 708 182 678 q 403 738 314 738 q 522 722 465 738 q 622 674 578 706 q 693 593 665 642 q 726 478 721 544 l 568 478 m 321 836 l 321 986 l 479 986 l 479 836 l 321 836 z "},"ç":{"ha":772,"x_min":49,"x_max":726,"o":"m 265 -222 q 311 -239 290 -233 q 356 -244 332 -244 q 385 -242 369 -244 q 413 -234 400 -240 q 433 -217 425 -228 q 440 -187 440 -206 q 420 -148 440 -161 q 376 -135 400 -135 q 322 -149 346 -135 l 292 -122 l 369 -18 q 247 8 301 -14 q 139 87 183 38 q 72 204 94 136 q 49 351 49 272 q 71 503 49 432 q 138 626 93 574 q 248 708 182 678 q 403 738 314 738 q 522 722 465 738 q 622 674 578 706 q 693 593 665 642 q 726 478 721 544 l 568 478 q 515 578 558 544 q 404 613 471 613 q 339 602 374 613 q 275 563 304 592 q 226 484 246 535 q 207 351 207 433 q 217 263 207 307 q 251 183 228 218 q 310 127 274 149 q 397 106 346 106 q 512 149 467 106 q 568 269 557 192 l 726 269 q 619 54 704 129 q 436 -18 549 -8 l 386 -82 l 388 -83 q 407 -79 396 -81 q 433 -78 418 -78 q 475 -84 454 -78 q 513 -103 496 -90 q 540 -136 529 -117 q 551 -182 551 -156 q 536 -242 551 -218 q 497 -280 521 -265 q 444 -302 474 -294 q 383 -310 414 -310 q 308 -302 344 -310 q 240 -278 271 -294 l 265 -222 z "},"ď":{"ha":954,"x_min":49,"x_max":1046,"o":"m 760 0 l 610 0 l 610 97 l 607 97 q 514 8 575 35 q 385 -19 453 -19 q 237 10 300 -19 q 132 92 174 40 q 69 213 90 143 q 49 364 49 283 q 75 532 49 461 q 145 649 101 603 q 245 716 189 694 q 360 738 301 738 q 428 731 393 738 q 494 711 463 725 q 553 676 526 697 q 599 625 581 654 l 601 625 l 601 992 l 760 992 l 760 0 m 207 351 q 219 261 207 306 q 255 182 231 217 q 317 126 279 147 q 406 106 354 106 q 497 128 458 106 q 559 186 535 150 q 595 267 583 222 q 607 360 607 313 q 553 546 607 479 q 408 613 500 613 q 315 590 353 613 q 252 530 276 567 q 217 447 228 493 q 207 351 207 400 m 872 992 l 1046 992 l 933 793 l 828 793 l 872 992 z "},"đ":{"ha":861,"x_min":49,"x_max":869,"o":"m 760 0 l 610 0 l 610 97 l 607 97 q 514 8 575 35 q 385 -19 453 -19 q 237 10 300 -19 q 132 92 174 40 q 69 213 90 143 q 49 364 49 283 q 75 532 49 461 q 145 649 101 603 q 245 716 189 694 q 360 738 301 738 q 428 731 393 738 q 494 711 463 725 q 553 676 526 697 q 599 625 581 654 l 601 625 l 601 811 l 389 811 l 389 901 l 601 901 l 601 992 l 760 992 l 760 901 l 869 901 l 869 811 l 760 811 l 760 0 m 207 351 q 219 261 207 306 q 255 182 231 217 q 317 126 279 147 q 406 106 354 106 q 497 128 458 106 q 559 186 535 150 q 595 267 583 222 q 607 360 607 313 q 553 546 607 479 q 408 613 500 613 q 315 590 353 613 q 252 530 276 567 q 217 447 228 493 q 207 351 207 400 z "},"ð":{"ha":824,"x_min":58,"x_max":764,"o":"m 200 819 l 333 883 q 272 910 301 897 q 215 931 243 922 l 321 1015 q 465 946 397 990 l 611 1015 l 679 947 l 549 885 q 708 681 653 799 q 764 429 764 564 q 744 256 764 338 q 678 113 724 174 q 563 16 633 51 q 390 -19 492 -19 q 249 8 311 -19 q 145 84 188 35 q 81 201 103 133 q 58 350 58 268 q 80 482 58 418 q 142 594 101 546 q 239 673 182 643 q 368 703 296 703 q 473 689 426 703 q 567 642 519 675 l 569 642 q 505 741 546 696 q 419 824 464 786 l 269 751 l 200 819 m 415 578 q 322 558 360 578 q 261 507 285 539 q 227 431 238 475 q 217 340 217 388 q 227 251 217 293 q 260 176 238 208 q 317 124 283 143 q 400 106 351 106 q 485 126 447 106 q 551 178 524 146 q 592 253 578 211 q 606 340 606 296 q 594 428 606 385 q 560 504 583 471 q 501 558 538 538 q 415 578 465 578 z "},"è":{"ha":772,"x_min":49,"x_max":744,"o":"m 576 422 q 560 494 574 460 q 524 555 547 529 q 469 597 501 581 q 396 613 436 613 q 320 598 354 613 q 262 558 286 583 q 223 497 238 532 q 207 422 208 463 l 576 422 m 207 318 q 219 238 207 276 q 254 169 231 199 q 314 123 278 140 q 400 106 350 106 q 512 135 469 106 q 575 225 554 165 l 725 225 q 682 121 713 167 q 608 44 651 75 q 512 -3 565 13 q 400 -19 458 -19 q 250 8 315 -19 q 140 86 185 36 q 72 206 94 136 q 49 358 49 275 q 73 503 49 435 q 142 624 97 572 q 251 707 188 676 q 396 738 315 738 q 548 702 481 738 q 660 608 615 667 q 724 474 704 550 q 735 318 744 399 l 207 318 m 349 1017 l 475 818 l 360 818 l 163 1017 l 349 1017 z "},"é":{"ha":772,"x_min":49,"x_max":744,"o":"m 576 422 q 560 494 574 460 q 524 555 547 529 q 469 597 501 581 q 396 613 436 613 q 320 598 354 613 q 262 558 286 583 q 223 497 238 532 q 207 422 208 463 l 576 422 m 207 318 q 219 238 207 276 q 254 169 231 199 q 314 123 278 140 q 400 106 350 106 q 512 135 469 106 q 575 225 554 165 l 725 225 q 682 121 713 167 q 608 44 651 75 q 512 -3 565 13 q 400 -19 458 -19 q 250 8 315 -19 q 140 86 185 36 q 72 206 94 136 q 49 358 49 275 q 73 503 49 435 q 142 624 97 572 q 251 707 188 676 q 396 738 315 738 q 548 702 481 738 q 660 608 615 667 q 724 474 704 550 q 735 318 744 399 l 207 318 m 457 1017 l 644 1017 l 447 818 l 332 818 l 457 1017 z "},"ê":{"ha":772,"x_min":49,"x_max":744,"o":"m 576 422 q 560 494 574 460 q 524 555 547 529 q 469 597 501 581 q 396 613 436 613 q 320 598 354 613 q 262 558 286 583 q 223 497 238 532 q 207 422 208 463 l 576 422 m 207 318 q 219 238 207 276 q 254 169 231 199 q 314 123 278 140 q 400 106 350 106 q 512 135 469 106 q 575 225 554 165 l 725 225 q 682 121 713 167 q 608 44 651 75 q 512 -3 565 13 q 400 -19 458 -19 q 250 8 315 -19 q 140 86 185 36 q 72 206 94 136 q 49 358 49 275 q 73 503 49 435 q 142 624 97 572 q 251 707 188 676 q 396 738 315 738 q 548 702 481 738 q 660 608 615 667 q 724 474 704 550 q 735 318 744 399 l 207 318 m 300 818 l 172 818 l 321 1017 l 475 1017 l 625 818 l 496 818 l 397 943 l 300 818 z "},"ě":{"ha":772,"x_min":49,"x_max":744,"o":"m 576 422 q 560 494 574 460 q 524 555 547 529 q 469 597 501 581 q 396 613 436 613 q 320 598 354 613 q 262 558 286 583 q 223 497 238 532 q 207 422 208 463 l 576 422 m 207 318 q 219 238 207 276 q 254 169 231 199 q 314 123 278 140 q 400 106 350 106 q 512 135 469 106 q 575 225 554 165 l 725 225 q 682 121 713 167 q 608 44 651 75 q 512 -3 565 13 q 400 -19 458 -19 q 250 8 315 -19 q 140 86 185 36 q 72 206 94 136 q 49 358 49 275 q 73 503 49 435 q 142 624 97 572 q 251 707 188 676 q 396 738 315 738 q 548 702 481 738 q 660 608 615 667 q 724 474 704 550 q 735 318 744 399 l 207 318 m 469 818 l 315 818 l 167 1017 l 294 1017 l 392 893 l 490 1017 l 619 1017 l 469 818 z "},"ë":{"ha":772,"x_min":49,"x_max":744,"o":"m 576 422 q 560 494 574 460 q 524 555 547 529 q 469 597 501 581 q 396 613 436 613 q 320 598 354 613 q 262 558 286 583 q 223 497 238 532 q 207 422 208 463 l 576 422 m 207 318 q 219 238 207 276 q 254 169 231 199 q 314 123 278 140 q 400 106 350 106 q 512 135 469 106 q 575 225 554 165 l 725 225 q 682 121 713 167 q 608 44 651 75 q 512 -3 565 13 q 400 -19 458 -19 q 250 8 315 -19 q 140 86 185 36 q 72 206 94 136 q 49 358 49 275 q 73 503 49 435 q 142 624 97 572 q 251 707 188 676 q 396 738 315 738 q 548 702 481 738 q 660 608 615 667 q 724 474 704 550 q 735 318 744 399 l 207 318 m 197 836 l 197 986 l 356 986 l 356 836 l 197 836 m 594 986 l 594 836 l 436 836 l 436 986 l 594 986 z "},"ē":{"ha":772,"x_min":49,"x_max":744,"o":"m 576 422 q 560 494 574 460 q 524 555 547 529 q 469 597 501 581 q 396 613 436 613 q 320 598 354 613 q 262 558 286 583 q 223 497 238 532 q 207 422 208 463 l 576 422 m 207 318 q 219 238 207 276 q 254 169 231 199 q 314 123 278 140 q 400 106 350 106 q 512 135 469 106 q 575 225 554 165 l 725 225 q 682 121 713 167 q 608 44 651 75 q 512 -3 565 13 q 400 -19 458 -19 q 250 8 315 -19 q 140 86 185 36 q 72 206 94 136 q 49 358 49 275 q 73 503 49 435 q 142 624 97 572 q 251 707 188 676 q 396 738 315 738 q 548 702 481 738 q 660 608 615 667 q 724 474 704 550 q 735 318 744 399 l 207 318 m 196 867 l 196 957 l 596 957 l 596 867 l 196 867 z "},"ĕ":{"ha":772,"x_min":49,"x_max":744,"o":"m 576 422 q 560 494 574 460 q 524 555 547 529 q 469 597 501 581 q 396 613 436 613 q 320 598 354 613 q 262 558 286 583 q 223 497 238 532 q 207 422 208 463 l 576 422 m 207 318 q 219 238 207 276 q 254 169 231 199 q 314 123 278 140 q 400 106 350 106 q 512 135 469 106 q 575 225 554 165 l 725 225 q 682 121 713 167 q 608 44 651 75 q 512 -3 565 13 q 400 -19 458 -19 q 250 8 315 -19 q 140 86 185 36 q 72 206 94 136 q 49 358 49 275 q 73 503 49 435 q 142 624 97 572 q 251 707 188 676 q 396 738 315 738 q 548 702 481 738 q 660 608 615 667 q 724 474 704 550 q 735 318 744 399 l 207 318 m 250 1015 q 302 933 261 957 q 399 910 343 910 q 490 936 451 910 q 539 1015 528 963 l 618 1015 q 545 868 607 917 q 388 819 483 819 q 235 869 292 819 q 169 1015 178 919 l 250 1015 z "},"ė":{"ha":772,"x_min":49,"x_max":744,"o":"m 576 422 q 560 494 574 460 q 524 555 547 529 q 469 597 501 581 q 396 613 436 613 q 320 598 354 613 q 262 558 286 583 q 223 497 238 532 q 207 422 208 463 l 576 422 m 207 318 q 219 238 207 276 q 254 169 231 199 q 314 123 278 140 q 400 106 350 106 q 512 135 469 106 q 575 225 554 165 l 725 225 q 682 121 713 167 q 608 44 651 75 q 512 -3 565 13 q 400 -19 458 -19 q 250 8 315 -19 q 140 86 185 36 q 72 206 94 136 q 49 358 49 275 q 73 503 49 435 q 142 624 97 572 q 251 707 188 676 q 396 738 315 738 q 548 702 481 738 q 660 608 615 667 q 724 474 704 550 q 735 318 744 399 l 207 318 m 319 836 l 319 986 l 478 986 l 478 836 l 319 836 z "},"ę":{"ha":772,"x_min":49,"x_max":744,"o":"m 207 318 q 219 238 207 276 q 254 169 231 199 q 314 123 278 140 q 400 106 350 106 q 512 135 469 106 q 575 225 554 165 l 725 225 q 682 121 713 167 q 608 44 651 75 q 511 -3 565 13 q 463 -14 488 -10 q 417 -54 436 -36 q 377 -101 392 -79 q 357 -141 363 -122 q 351 -179 351 -160 q 368 -224 351 -207 q 406 -240 385 -240 q 443 -231 426 -240 q 478 -193 460 -221 l 535 -206 q 510 -256 526 -236 q 474 -288 494 -276 q 432 -305 454 -300 q 389 -310 410 -310 q 356 -307 379 -310 q 309 -292 333 -304 q 267 -254 285 -279 q 249 -185 249 -229 q 251 -157 249 -174 q 269 -117 254 -140 q 317 -64 285 -93 q 375 -18 339 -43 q 250 8 306 -15 q 140 86 185 36 q 72 206 94 136 q 49 358 49 275 q 73 503 49 435 q 142 624 97 572 q 251 707 188 676 q 396 738 315 738 q 548 702 481 738 q 660 608 615 667 q 724 474 704 550 q 735 318 744 399 l 207 318 m 576 422 q 560 494 574 460 q 524 555 547 529 q 469 597 501 581 q 396 613 436 613 q 320 598 354 613 q 262 558 286 583 q 223 497 238 532 q 207 422 208 463 l 576 422 z "},"ĝ":{"ha":824,"x_min":49,"x_max":747,"o":"m 747 38 q 656 -205 747 -125 q 394 -285 565 -285 q 285 -274 340 -285 q 185 -236 231 -262 q 110 -167 140 -210 q 74 -61 79 -124 l 232 -61 q 256 -115 239 -94 q 295 -148 272 -136 q 346 -163 318 -160 q 404 -167 374 -167 q 544 -119 500 -167 q 589 17 589 -72 l 589 126 l 586 126 q 495 33 553 67 q 371 0 438 0 q 224 30 285 0 q 124 112 164 60 q 67 232 85 164 q 49 378 49 300 q 71 515 49 450 q 135 630 93 581 q 237 708 176 679 q 374 738 297 738 q 499 709 442 738 q 586 619 556 681 l 589 619 l 589 718 l 747 718 l 747 38 m 396 125 q 485 147 449 125 q 545 203 522 168 q 578 284 568 239 q 589 375 589 329 q 578 464 589 421 q 544 540 567 507 q 484 593 521 574 q 396 613 447 613 q 307 590 343 613 q 249 533 271 568 q 217 452 226 497 q 207 363 207 407 q 218 276 207 318 q 252 200 229 233 q 310 146 275 167 q 396 125 346 125 m 324 818 l 196 818 l 344 1017 l 499 1017 l 649 818 l 519 818 l 421 943 l 324 818 z "},"ğ":{"ha":824,"x_min":49,"x_max":747,"o":"m 747 38 q 656 -205 747 -125 q 394 -285 565 -285 q 285 -274 340 -285 q 185 -236 231 -262 q 110 -167 140 -210 q 74 -61 79 -124 l 232 -61 q 256 -115 239 -94 q 295 -148 272 -136 q 346 -163 318 -160 q 404 -167 374 -167 q 544 -119 500 -167 q 589 17 589 -72 l 589 126 l 586 126 q 495 33 553 67 q 371 0 438 0 q 224 30 285 0 q 124 112 164 60 q 67 232 85 164 q 49 378 49 300 q 71 515 49 450 q 135 630 93 581 q 237 708 176 679 q 374 738 297 738 q 499 709 442 738 q 586 619 556 681 l 589 619 l 589 718 l 747 718 l 747 38 m 396 125 q 485 147 449 125 q 545 203 522 168 q 578 284 568 239 q 589 375 589 329 q 578 464 589 421 q 544 540 567 507 q 484 593 521 574 q 396 613 447 613 q 307 590 343 613 q 249 533 271 568 q 217 452 226 497 q 207 363 207 407 q 218 276 207 318 q 252 200 229 233 q 310 146 275 167 q 396 125 346 125 m 264 1015 q 316 933 275 957 q 413 910 357 910 q 503 936 465 910 q 553 1015 542 963 l 632 1015 q 559 868 621 917 q 401 819 497 819 q 249 869 306 819 q 183 1015 192 919 l 264 1015 z "},"ġ":{"ha":824,"x_min":49,"x_max":747,"o":"m 747 38 q 656 -205 747 -125 q 394 -285 565 -285 q 285 -274 340 -285 q 185 -236 231 -262 q 110 -167 140 -210 q 74 -61 79 -124 l 232 -61 q 256 -115 239 -94 q 295 -148 272 -136 q 346 -163 318 -160 q 404 -167 374 -167 q 544 -119 500 -167 q 589 17 589 -72 l 589 126 l 586 126 q 495 33 553 67 q 371 0 438 0 q 224 30 285 0 q 124 112 164 60 q 67 232 85 164 q 49 378 49 300 q 71 515 49 450 q 135 630 93 581 q 237 708 176 679 q 374 738 297 738 q 499 709 442 738 q 586 619 556 681 l 589 619 l 589 718 l 747 718 l 747 38 m 396 125 q 485 147 449 125 q 545 203 522 168 q 578 284 568 239 q 589 375 589 329 q 578 464 589 421 q 544 540 567 507 q 484 593 521 574 q 396 613 447 613 q 307 590 343 613 q 249 533 271 568 q 217 452 226 497 q 207 363 207 407 q 218 276 207 318 q 252 200 229 233 q 310 146 275 167 q 396 125 346 125 m 329 836 l 329 986 l 488 986 l 488 836 l 329 836 z "},"ģ":{"ha":824,"x_min":49,"x_max":747,"o":"m 747 38 q 656 -205 747 -125 q 394 -285 565 -285 q 285 -274 340 -285 q 185 -236 231 -262 q 110 -167 140 -210 q 74 -61 79 -124 l 232 -61 q 256 -115 239 -94 q 295 -148 272 -136 q 346 -163 318 -160 q 404 -167 374 -167 q 544 -119 500 -167 q 589 17 589 -72 l 589 126 l 586 126 q 495 33 553 67 q 371 0 438 0 q 224 30 285 0 q 124 112 164 60 q 67 232 85 164 q 49 378 49 300 q 71 515 49 450 q 135 630 93 581 q 237 708 176 679 q 374 738 297 738 q 499 709 442 738 q 586 619 556 681 l 589 619 l 589 718 l 747 718 l 747 38 m 396 125 q 485 147 449 125 q 545 203 522 168 q 578 284 568 239 q 589 375 589 329 q 578 464 589 421 q 544 540 567 507 q 484 593 521 574 q 396 613 447 613 q 307 590 343 613 q 249 533 271 568 q 217 452 226 497 q 207 363 207 407 q 218 276 207 318 q 252 200 229 233 q 310 146 275 167 q 396 125 346 125 m 501 854 l 319 854 l 319 978 q 333 1033 319 1006 q 381 1076 347 1060 q 481 1094 414 1092 l 481 1042 q 437 1026 451 1038 q 418 992 422 1015 l 501 992 l 501 854 z "},"ĥ":{"ha":797,"x_min":83,"x_max":714,"o":"m 83 992 l 242 992 l 242 624 l 244 624 q 331 705 274 672 q 460 738 389 738 q 646 676 578 738 q 714 493 714 615 l 714 0 l 556 0 l 556 451 q 519 574 553 536 q 415 613 486 613 q 343 598 375 613 q 289 558 311 583 q 254 497 267 532 q 242 424 242 463 l 242 0 l 83 0 l 83 992 m 300 1088 l 172 1088 l 321 1286 l 475 1286 l 625 1088 l 496 1088 l 397 1213 l 300 1088 z "},"ħ":{"ha":811,"x_min":-8,"x_max":728,"o":"m 97 992 l 256 992 l 256 901 l 431 901 l 431 811 l 256 811 l 256 624 l 258 624 q 345 705 288 672 q 474 738 403 738 q 660 676 592 738 q 728 493 728 615 l 728 0 l 569 0 l 569 451 q 533 574 567 536 q 429 613 500 613 q 357 598 389 613 q 303 558 325 583 q 268 497 281 532 q 256 424 256 463 l 256 0 l 97 0 l 97 811 l -8 811 l -8 901 l 97 901 l 97 992 z "},"ı":{"ha":335,"x_min":88,"x_max":246,"o":"m 88 0 l 88 718 l 246 718 l 246 0 l 88 0 z "},"ì":{"ha":335,"x_min":-65,"x_max":247,"o":"m 88 0 l 88 718 l 246 718 l 246 0 l 88 0 m 121 1017 l 247 818 l 132 818 l -65 1017 l 121 1017 z "},"’":{"ha":386,"x_min":107,"x_max":281,"o":"m 107 681 q 174 723 157 688 q 192 804 192 758 l 107 804 l 107 992 l 281 992 l 281 804 q 234 667 281 724 q 107 600 188 611 l 107 681 z "},"‘":{"ha":386,"x_min":107,"x_max":281,"o":"m 281 911 q 217 864 239 896 q 196 788 196 832 l 281 788 l 281 600 l 107 600 l 107 788 q 121 860 107 826 q 158 919 135 893 q 213 963 182 944 q 281 992 244 981 l 281 911 z "},"¡":{"ha":386,"x_min":100,"x_max":286,"o":"m 286 564 l 100 564 l 100 738 l 286 738 l 286 564 m 281 -254 l 107 -254 l 107 29 l 153 461 l 235 461 l 281 29 l 281 -254 z "},"¢":{"ha":772,"x_min":51,"x_max":733,"o":"m 372 -19 q 238 10 297 -19 q 136 91 178 40 q 73 209 94 142 q 51 351 51 276 q 75 510 51 439 q 142 632 99 582 q 243 710 185 682 q 372 738 301 738 l 372 863 l 432 863 l 432 738 q 542 719 490 738 q 633 668 593 701 q 698 586 672 635 q 728 478 724 538 l 569 478 q 525 575 563 538 q 432 613 488 613 l 432 106 q 531 158 496 117 q 575 269 567 200 l 733 269 q 635 59 710 138 q 432 -19 561 -19 l 432 -144 l 372 -144 l 372 -19 m 372 613 q 295 583 326 608 q 245 521 264 558 q 218 439 226 483 q 210 351 210 394 q 219 269 210 310 q 247 194 228 228 q 297 136 267 160 q 372 106 328 113 l 372 613 z "},"£":{"ha":772,"x_min":43,"x_max":769,"o":"m 43 533 l 131 533 q 82 626 99 572 q 65 729 65 679 q 93 847 65 794 q 167 938 121 900 q 271 995 213 975 q 390 1015 329 1015 q 644 930 550 1015 q 739 672 738 844 l 581 672 q 567 756 578 717 q 535 823 557 794 q 478 867 514 851 q 393 883 443 883 q 284 842 329 883 q 239 721 239 800 q 260 623 239 672 q 303 533 281 574 l 507 533 l 507 443 l 336 443 q 358 350 358 401 q 347 280 358 313 q 317 219 336 247 q 272 167 297 190 q 218 122 246 143 l 221 119 q 283 144 253 132 q 349 157 314 157 q 411 149 385 157 q 461 133 438 142 q 508 116 485 124 q 564 108 532 108 q 636 122 603 108 q 699 161 669 136 l 769 54 q 666 -7 717 10 q 547 -24 615 -24 q 480 -16 514 -24 q 410 -3 446 -8 q 339 17 375 8 q 264 25 303 25 q 189 13 228 25 q 124 -22 150 0 l 50 90 q 102 133 75 107 q 151 188 129 158 q 186 251 172 218 q 200 315 200 283 q 192 383 200 351 q 171 443 185 415 l 43 443 l 43 533 z "},"⁄":{"ha":232,"x_min":-229,"x_max":461,"o":"m 353 1006 l 461 1006 l -119 -33 l -229 -33 l 353 1006 z "},"¥":{"ha":772,"x_min":-7,"x_max":779,"o":"m 307 229 l 117 229 l 117 319 l 307 319 l 307 414 l 117 414 l 117 504 l 253 504 l -7 992 l 169 992 l 386 547 l 607 992 l 779 992 l 518 504 l 656 504 l 656 414 l 465 414 l 465 319 l 656 319 l 656 229 l 465 229 l 465 0 l 307 0 l 307 229 z "},"ƒ":{"ha":772,"x_min":0,"x_max":700,"o":"m 182 608 l 310 608 l 354 842 q 442 975 378 935 q 599 1015 506 1015 q 649 1013 624 1015 q 700 1008 675 1011 l 676 883 q 648 888 661 886 q 619 890 635 890 q 538 867 561 890 q 504 789 515 843 l 469 608 l 611 608 l 590 490 l 449 490 l 347 -39 q 317 -115 339 -79 q 265 -177 296 -150 q 194 -220 233 -204 q 110 -236 154 -236 q 55 -234 82 -236 q 0 -229 28 -232 l 21 -104 q 54 -109 38 -107 q 88 -111 71 -111 q 149 -96 125 -111 q 183 -33 174 -81 l 288 490 l 161 490 l 182 608 z "},"§":{"ha":772,"x_min":31,"x_max":743,"o":"m 524 753 q 487 851 521 811 q 393 890 453 890 q 315 862 350 890 q 279 786 279 833 q 299 727 279 753 q 351 678 319 701 q 425 635 383 656 q 510 593 467 615 q 594 546 553 571 q 669 490 636 521 q 723 419 703 458 q 743 331 743 381 q 731 266 743 297 q 700 208 719 235 q 653 161 681 182 q 596 131 626 140 q 653 58 633 99 q 672 -47 672 17 q 649 -150 672 -106 q 588 -224 626 -194 q 501 -269 550 -254 q 397 -285 451 -285 q 279 -266 333 -285 q 185 -211 225 -247 q 122 -122 146 -175 q 97 0 99 -69 l 247 0 q 288 -117 253 -74 q 393 -160 322 -160 q 480 -134 446 -160 q 514 -47 514 -108 q 493 20 514 -10 q 439 74 472 50 q 363 121 406 99 q 275 167 319 143 q 185 215 229 189 q 108 274 142 242 q 52 344 74 306 q 31 433 31 383 q 71 561 31 511 q 181 640 111 611 q 135 704 150 672 q 121 781 121 736 q 145 880 121 836 q 208 953 169 924 q 295 999 246 983 q 394 1015 344 1015 q 505 997 454 1015 q 593 945 556 979 q 652 863 631 911 q 674 753 674 814 l 524 753 m 265 563 q 204 522 228 551 q 181 451 181 492 q 183 431 181 443 q 192 405 185 419 q 215 374 200 390 q 257 343 231 358 l 510 201 q 569 244 546 217 q 593 315 593 272 q 574 372 593 346 q 496 431 554 399 l 265 563 z "},"¤":{"ha":772,"x_min":28,"x_max":744,"o":"m 388 279 q 465 296 429 279 q 527 341 501 313 q 567 408 553 369 q 582 488 582 446 q 567 566 582 529 q 527 631 553 603 q 466 676 501 660 q 389 693 431 693 q 309 676 346 693 q 245 632 272 660 q 203 566 218 604 q 188 485 188 528 q 203 404 188 442 q 245 339 218 367 q 309 295 272 311 q 388 279 346 279 m 28 203 l 107 288 q 56 376 74 325 q 38 485 38 426 q 54 597 38 543 q 107 685 71 650 l 28 769 l 107 849 l 186 771 q 276 817 221 800 q 389 835 331 835 q 496 817 444 835 q 579 772 547 800 l 660 851 l 744 767 l 667 686 q 715 599 699 653 q 732 488 732 546 q 715 376 732 429 q 665 285 697 324 l 742 203 l 665 126 l 586 207 q 499 156 551 174 q 388 138 446 138 q 273 155 326 138 q 183 206 219 172 l 106 125 l 28 203 z "},"“":{"ha":617,"x_min":83,"x_max":533,"o":"m 533 911 q 470 864 492 896 q 449 788 449 832 l 533 788 l 533 600 l 360 600 l 360 788 q 374 860 360 826 q 411 919 388 893 q 466 963 435 944 q 533 992 497 981 l 533 911 m 257 911 q 194 864 215 896 q 172 788 172 832 l 257 788 l 257 600 l 83 600 l 83 788 q 97 860 83 826 q 135 919 111 893 q 190 963 158 944 q 257 992 221 981 l 257 911 z "},"«":{"ha":643,"x_min":69,"x_max":560,"o":"m 344 300 l 344 456 l 560 626 l 560 483 l 428 378 l 560 272 l 560 129 l 344 300 m 69 300 l 69 456 l 285 626 l 285 483 l 153 378 l 285 272 l 285 129 l 69 300 z "},"‹":{"ha":360,"x_min":69,"x_max":285,"o":"m 69 300 l 69 456 l 285 626 l 285 483 l 153 378 l 285 272 l 285 129 l 69 300 z "},"›":{"ha":360,"x_min":75,"x_max":290,"o":"m 290 456 l 290 300 l 75 129 l 75 272 l 207 378 l 75 483 l 75 626 l 290 456 z "},"ﬁ":{"ha":772,"x_min":13,"x_max":683,"o":"m 525 992 l 683 992 l 683 842 l 525 842 l 525 992 m 13 718 l 131 718 l 131 778 q 147 888 131 846 q 192 953 164 931 q 255 984 219 976 q 329 992 290 992 q 440 982 406 992 l 440 858 q 408 865 425 863 q 367 867 390 867 q 312 851 335 867 q 289 792 289 836 l 289 718 l 424 718 l 424 600 l 289 600 l 289 0 l 131 0 l 131 600 l 13 600 l 13 718 m 525 718 l 683 718 l 683 0 l 525 0 l 525 718 z "},"ﬂ":{"ha":772,"x_min":13,"x_max":683,"o":"m 525 992 l 683 992 l 683 0 l 525 0 l 525 992 m 13 718 l 131 718 l 131 778 q 147 888 131 846 q 192 953 164 931 q 255 984 219 976 q 329 992 290 992 q 440 982 406 992 l 440 858 q 408 865 425 863 q 367 867 390 867 q 312 851 335 867 q 289 792 289 836 l 289 718 l 424 718 l 424 600 l 289 600 l 289 0 l 131 0 l 131 600 l 13 600 l 13 718 z "},"–":{"ha":694,"x_min":0,"x_max":694,"o":"m 0 453 l 694 453 l 694 303 l 0 303 l 0 453 z "},"†":{"ha":772,"x_min":42,"x_max":731,"o":"m 307 586 l 42 586 l 42 718 l 307 718 l 307 992 l 465 992 l 465 718 l 731 718 l 731 586 l 465 586 l 465 -222 l 307 -222 l 307 586 z "},"‡":{"ha":772,"x_min":42,"x_max":731,"o":"m 307 51 l 42 51 l 42 183 l 307 183 l 307 586 l 42 586 l 42 718 l 307 718 l 307 992 l 465 992 l 465 718 l 731 718 l 731 586 l 465 586 l 465 183 l 731 183 l 731 51 l 465 51 l 465 -222 l 307 -222 l 307 51 z "},"·":{"ha":386,"x_min":89,"x_max":297,"o":"m 89 419 q 97 458 89 440 q 120 491 106 476 q 153 514 135 506 q 193 522 172 522 q 233 514 214 522 q 266 491 251 506 q 289 458 281 476 q 297 419 297 440 q 267 346 297 378 q 193 314 236 314 q 119 346 150 314 q 89 419 89 378 z "},"¶":{"ha":833,"x_min":43,"x_max":726,"o":"m 342 478 q 219 497 274 478 q 125 549 164 515 q 65 630 86 583 q 43 731 43 676 q 67 850 43 800 q 133 931 90 900 q 235 977 175 963 q 367 992 294 992 l 726 992 l 726 -222 l 615 -222 l 615 901 l 453 901 l 453 -222 l 342 -222 l 342 478 z "},"•":{"ha":694,"x_min":100,"x_max":596,"o":"m 100 496 q 119 592 100 547 q 172 671 139 638 q 251 724 206 704 q 347 743 296 743 q 444 724 399 743 q 523 671 489 704 q 576 592 557 638 q 596 496 596 547 q 576 399 596 444 q 523 320 557 354 q 444 267 489 286 q 347 247 399 247 q 251 267 296 247 q 172 320 206 286 q 119 399 139 354 q 100 496 100 444 z "},"‚":{"ha":386,"x_min":107,"x_max":281,"o":"m 107 -124 q 171 -76 150 -108 q 192 0 192 -44 l 107 0 l 107 188 l 281 188 l 281 0 q 267 -73 281 -40 q 229 -131 253 -106 q 174 -176 206 -157 q 107 -204 143 -194 l 107 -124 z "},"„":{"ha":617,"x_min":83,"x_max":533,"o":"m 360 -124 q 424 -76 403 -108 q 444 0 444 -44 l 360 0 l 360 188 l 533 188 l 533 0 q 519 -73 533 -40 q 482 -131 506 -106 q 427 -176 458 -157 q 360 -204 396 -194 l 360 -124 m 83 -124 q 147 -76 126 -108 q 168 0 168 -44 l 83 0 l 83 188 l 257 188 l 257 0 q 243 -73 257 -40 q 206 -131 229 -106 q 151 -176 182 -157 q 83 -204 119 -194 l 83 -124 z "},"”":{"ha":617,"x_min":83,"x_max":533,"o":"m 360 681 q 424 728 403 696 q 444 804 444 760 l 360 804 l 360 992 l 533 992 l 533 804 q 519 731 533 764 q 482 673 506 699 q 427 628 458 647 q 360 600 396 610 l 360 681 m 83 681 q 147 728 126 696 q 168 804 168 760 l 83 804 l 83 992 l 257 992 l 257 804 q 243 731 257 764 q 206 673 229 699 q 151 628 182 647 q 83 600 119 610 l 83 681 z "},"»":{"ha":643,"x_min":83,"x_max":574,"o":"m 574 456 l 574 300 l 358 129 l 358 272 l 490 378 l 358 483 l 358 626 l 574 456 m 299 456 l 299 300 l 83 129 l 83 272 l 215 378 l 83 483 l 83 626 l 299 456 z "},"…":{"ha":1389,"x_min":135,"x_max":1253,"o":"m 1060 188 l 1253 188 l 1253 0 l 1060 0 l 1060 188 m 597 188 l 790 188 l 790 0 l 597 0 l 597 188 m 135 188 l 328 188 l 328 0 l 135 0 l 135 188 z "},"‰":{"ha":1594,"x_min":114,"x_max":1481,"o":"m 1274 64 q 1320 78 1303 64 q 1347 114 1338 92 q 1360 161 1357 136 q 1363 210 1363 186 q 1360 260 1363 232 q 1349 314 1358 289 q 1322 356 1340 339 q 1274 374 1304 374 q 1225 356 1243 374 q 1198 314 1207 339 q 1187 260 1189 289 q 1185 210 1185 232 q 1188 161 1185 186 q 1200 114 1190 136 q 1227 78 1210 92 q 1274 64 1244 64 m 1274 -19 q 1176 2 1215 -19 q 1112 57 1136 24 q 1077 132 1088 90 q 1067 214 1067 174 q 1078 308 1067 264 q 1116 385 1090 353 q 1181 438 1142 418 q 1274 457 1219 457 q 1367 438 1328 457 q 1431 385 1406 418 q 1469 308 1457 353 q 1481 214 1481 264 q 1470 132 1481 174 q 1435 57 1460 90 q 1372 2 1411 24 q 1274 -19 1332 -19 m 800 64 q 847 78 829 64 q 874 115 864 93 q 886 162 883 136 q 889 210 889 188 q 887 260 889 232 q 876 314 885 289 q 849 356 867 339 q 800 374 831 374 q 751 356 769 374 q 724 314 733 339 q 713 260 715 289 q 711 210 711 232 q 714 162 711 188 q 726 115 717 136 q 753 78 736 93 q 800 64 771 64 m 800 -19 q 710 -1 749 -19 q 645 49 671 17 q 606 123 619 81 q 593 214 593 165 q 605 308 593 264 q 642 385 617 351 q 707 438 668 418 q 800 457 746 457 q 893 438 854 457 q 958 385 932 418 q 995 308 983 351 q 1007 214 1007 264 q 994 123 1007 165 q 955 49 981 81 q 890 -1 929 17 q 800 -19 851 -19 m 782 1006 l 883 1006 l 328 -33 l 229 -33 l 782 1006 m 321 908 q 272 890 290 908 q 245 846 254 872 q 234 790 236 819 q 232 739 232 761 q 235 691 232 715 q 247 646 238 667 q 274 612 257 625 q 321 599 292 599 q 367 612 350 599 q 394 646 385 625 q 407 691 404 667 q 410 739 410 715 q 408 790 410 761 q 397 846 406 819 q 369 890 388 872 q 321 908 351 908 m 321 992 q 414 972 375 992 q 478 917 453 951 q 516 838 504 883 q 528 743 528 793 q 517 663 528 703 q 483 590 507 622 q 419 536 458 557 q 321 515 379 515 q 223 536 263 515 q 159 590 183 557 q 124 663 135 622 q 114 743 114 703 q 126 838 114 793 q 163 917 138 883 q 228 972 189 951 q 321 992 267 992 z "},"¿":{"ha":772,"x_min":68,"x_max":704,"o":"m 478 738 l 478 564 l 292 564 l 292 738 l 478 738 m 704 54 q 681 -81 704 -19 q 615 -185 658 -142 q 509 -253 571 -229 q 371 -278 447 -278 q 252 -259 307 -278 q 156 -206 197 -240 q 92 -120 115 -171 q 68 -4 68 -69 q 78 80 68 44 q 106 141 89 115 q 145 187 124 167 q 190 226 167 207 q 239 269 217 249 q 278 316 261 290 q 303 376 294 342 q 313 461 313 411 l 463 461 q 456 358 463 400 q 436 283 450 315 q 402 227 422 251 q 354 179 382 203 q 312 142 332 160 q 276 106 292 125 q 251 61 260 86 q 242 1 242 36 q 256 -67 242 -39 q 290 -112 269 -94 q 335 -137 311 -129 q 378 -146 358 -146 q 505 -90 464 -146 q 546 54 546 -35 l 704 54 z "},"´":{"ha":335,"x_min":63,"x_max":375,"o":"m 188 1017 l 375 1017 l 178 818 l 63 818 l 188 1017 z "},"ˆ":{"ha":335,"x_min":-58,"x_max":394,"o":"m 69 818 l -58 818 l 90 1017 l 244 1017 l 394 818 l 265 818 l 167 943 l 69 818 z "},"˜":{"ha":335,"x_min":-78,"x_max":413,"o":"m 413 1000 q 397 938 407 967 q 367 888 386 908 q 322 853 349 865 q 258 840 296 840 q 208 848 235 840 q 156 867 182 856 q 104 886 124 881 q 61 892 85 892 q 22 877 36 892 q 1 835 7 863 l -78 835 q -62 889 -74 861 q -33 940 -51 917 q 10 977 -15 963 q 67 992 35 992 q 115 987 93 992 q 179 964 136 982 q 227 945 208 951 q 265 939 246 939 q 312 956 296 939 q 335 1000 328 972 l 413 1000 z "},"¯":{"ha":335,"x_min":-32,"x_max":368,"o":"m -32 867 l -32 957 l 368 957 l 368 867 l -32 867 z "},"˘":{"ha":335,"x_min":-57,"x_max":392,"o":"m 24 1015 q 76 933 35 957 q 172 910 117 910 q 263 936 225 910 q 313 1015 301 963 l 392 1015 q 319 868 381 917 q 161 819 257 819 q 8 869 65 819 q -57 1015 -49 919 l 24 1015 z "},"˙":{"ha":335,"x_min":89,"x_max":247,"o":"m 89 836 l 89 986 l 247 986 l 247 836 l 89 836 z "},"¨":{"ha":335,"x_min":-32,"x_max":365,"o":"m -32 836 l -32 986 l 126 986 l 126 836 l -32 836 m 365 986 l 365 836 l 207 836 l 207 986 l 365 986 z "},"˚":{"ha":335,"x_min":24,"x_max":313,"o":"m 85 936 q 109 876 85 900 q 168 851 133 851 q 228 876 204 851 q 251 936 251 900 q 228 997 251 974 q 168 1021 204 1021 q 109 997 133 1021 q 85 936 85 974 m 168 793 q 113 803 139 793 q 66 833 86 814 q 35 878 46 851 q 24 936 24 904 q 35 994 24 968 q 67 1040 47 1021 q 113 1069 88 1060 q 168 1079 139 1079 q 223 1069 197 1079 q 269 1040 249 1060 q 301 994 290 1021 q 313 936 313 968 q 301 878 313 904 q 269 833 290 851 q 223 803 249 814 q 168 793 197 793 z "},"¸":{"ha":335,"x_min":13,"x_max":324,"o":"m 38 -222 q 83 -239 63 -233 q 128 -244 104 -244 q 157 -242 142 -244 q 185 -234 172 -240 q 205 -217 197 -228 q 213 -187 213 -206 q 192 -148 213 -161 q 149 -135 172 -135 q 94 -149 118 -135 l 64 -122 l 156 0 l 222 0 l 158 -82 l 160 -83 q 179 -79 168 -81 q 206 -78 190 -78 q 247 -84 226 -78 q 285 -103 268 -90 q 313 -136 301 -117 q 324 -182 324 -156 q 308 -242 324 -218 q 269 -280 293 -265 q 216 -302 246 -294 q 156 -310 186 -310 q 80 -302 117 -310 q 13 -278 43 -294 l 38 -222 z "},"˝":{"ha":335,"x_min":-49,"x_max":542,"o":"m 353 1017 l 542 1017 l 342 818 l 228 818 l 353 1017 m 76 1017 l 265 1017 l 65 818 l -49 818 l 76 1017 z "},"˛":{"ha":335,"x_min":67,"x_max":353,"o":"m 300 0 q 235 -55 261 -31 q 195 -101 210 -79 q 175 -141 181 -122 q 169 -179 169 -160 q 186 -224 169 -207 q 224 -240 203 -240 q 261 -231 244 -240 q 296 -193 278 -221 l 353 -206 q 328 -256 344 -236 q 292 -288 313 -276 q 250 -305 272 -300 q 207 -310 228 -310 q 174 -307 197 -310 q 127 -292 151 -304 q 85 -254 103 -279 q 67 -185 67 -229 q 69 -157 67 -174 q 88 -117 72 -140 q 135 -64 103 -93 q 225 0 167 -35 l 300 0 z "},"ˇ":{"ha":335,"x_min":-60,"x_max":393,"o":"m 243 818 l 89 818 l -60 1017 l 68 1017 l 165 893 l 264 1017 l 393 1017 l 243 818 z "},"—":{"ha":1389,"x_min":181,"x_max":1208,"o":"m 181 453 l 1208 453 l 1208 303 l 181 303 l 181 453 z "},"ª":{"ha":528,"x_min":22,"x_max":506,"o":"m 460 653 q 464 629 460 638 q 483 622 468 621 q 493 622 488 622 q 506 624 499 622 l 506 529 q 474 522 494 525 q 440 518 453 518 q 383 533 404 518 q 354 586 361 547 q 326 558 344 571 q 284 537 307 546 q 237 523 261 528 q 192 518 213 518 q 128 526 158 518 q 74 551 97 535 q 36 591 50 567 q 22 647 22 615 q 39 712 22 688 q 83 751 56 736 q 143 773 110 765 q 210 786 176 781 q 260 794 236 790 q 301 803 283 799 q 329 817 319 808 q 339 839 339 825 q 331 874 339 861 q 311 892 324 886 q 284 900 299 899 q 256 901 269 901 q 188 890 215 901 q 158 843 161 878 l 40 843 q 65 915 44 886 q 117 960 86 943 q 185 985 147 978 q 263 992 224 992 q 334 984 299 992 q 397 961 369 976 q 442 922 425 946 q 460 863 460 897 l 460 653 m 339 743 q 286 727 318 732 q 222 717 254 722 q 167 699 190 711 q 143 654 143 686 q 166 617 143 625 q 221 608 189 608 q 263 611 242 608 q 300 622 283 614 q 328 644 317 631 q 339 682 339 658 l 339 743 z "},"º":{"ha":528,"x_min":21,"x_max":515,"o":"m 515 754 q 453 583 515 647 q 268 518 390 518 q 83 583 146 518 q 21 754 21 647 q 83 926 21 861 q 268 992 146 992 q 453 926 390 992 q 515 754 515 861 m 394 754 q 387 807 394 781 q 363 854 379 833 q 324 888 347 875 q 268 901 300 901 q 212 888 236 901 q 172 854 188 875 q 149 807 157 833 q 142 754 142 781 q 149 702 142 728 q 172 656 157 676 q 212 622 188 635 q 268 608 236 608 q 325 622 301 608 q 363 656 349 635 q 385 702 378 676 q 394 754 393 728 z "},"ł":{"ha":335,"x_min":-7,"x_max":340,"o":"m 88 443 l -7 369 l -7 468 l 88 542 l 88 992 l 246 992 l 246 665 l 340 740 l 340 640 l 246 565 l 246 0 l 88 0 l 88 443 z "},"ø":{"ha":824,"x_min":44,"x_max":781,"o":"m 550 554 q 491 597 525 582 q 413 613 457 613 q 321 590 360 613 q 257 533 282 568 q 220 451 232 497 q 208 360 208 406 q 216 285 208 322 q 240 215 224 247 l 550 554 m 44 0 l 135 100 q 50 360 50 201 q 74 511 50 442 q 145 631 99 581 q 259 709 192 681 q 413 738 326 738 q 545 717 486 738 q 649 661 604 697 l 736 757 l 781 718 l 690 619 q 775 360 775 515 q 751 207 775 276 q 680 88 726 138 q 566 9 633 38 q 413 -19 499 -19 q 281 1 340 -19 q 178 58 222 21 l 89 -39 l 44 0 m 275 164 q 334 121 300 136 q 413 106 368 106 q 504 128 465 106 q 568 186 543 150 q 605 267 593 222 q 617 360 617 313 q 609 434 617 397 q 585 503 601 471 l 275 164 z "},"œ":{"ha":1260,"x_min":49,"x_max":1226,"o":"m 390 613 q 305 590 340 613 q 248 531 269 567 q 217 451 226 496 q 207 364 207 407 q 215 271 207 317 q 244 188 224 225 q 301 128 265 151 q 390 106 336 106 q 480 128 444 106 q 536 188 515 151 q 565 271 557 225 q 574 364 574 317 q 564 451 574 407 q 533 531 554 496 q 476 590 511 567 q 390 613 440 613 m 882 613 q 809 597 842 613 q 753 556 776 582 q 716 494 729 529 q 701 422 703 460 l 1068 422 q 1018 561 1063 510 q 882 613 974 613 m 701 318 q 713 235 701 274 q 748 167 725 196 q 806 122 771 139 q 889 106 840 106 q 947 113 918 106 q 998 136 975 121 q 1038 174 1021 151 q 1060 228 1054 197 l 1218 228 q 1102 43 1189 106 q 892 -19 1015 -19 q 813 -13 851 -19 q 742 8 775 -7 q 682 49 710 24 q 635 113 654 74 q 528 8 594 36 q 379 -19 461 -19 q 234 11 296 -19 q 131 94 172 42 q 69 215 89 146 q 49 361 49 283 q 72 506 49 438 q 138 626 94 575 q 246 708 182 678 q 392 738 310 738 q 466 731 429 738 q 535 711 503 725 q 596 674 568 697 q 643 617 624 651 q 752 709 683 681 q 894 738 821 738 q 1051 703 988 738 q 1154 612 1115 669 q 1210 478 1193 554 q 1226 318 1226 401 l 701 318 z "},"ß":{"ha":797,"x_min":88,"x_max":732,"o":"m 88 726 q 110 848 88 794 q 174 939 133 901 q 269 996 214 976 q 392 1015 325 1015 q 501 999 447 1015 q 596 950 554 982 q 663 872 638 918 q 688 765 688 825 q 653 636 688 694 q 546 556 618 578 l 546 553 q 624 526 589 547 q 683 472 658 504 q 719 398 707 439 q 732 315 732 357 q 710 182 732 243 q 647 76 688 121 q 547 6 606 31 q 414 -19 488 -19 q 336 -15 375 -19 l 336 110 q 359 106 347 107 q 390 106 371 106 q 488 126 451 106 q 544 178 525 147 q 568 248 563 210 q 574 322 574 286 q 553 406 574 374 q 497 458 532 439 q 422 486 465 479 q 338 493 378 493 l 338 597 q 416 606 379 597 q 475 633 453 614 q 515 681 500 653 q 529 750 529 710 q 389 890 529 890 q 340 883 365 890 q 293 855 314 875 q 259 800 272 835 q 246 710 246 765 l 246 0 l 88 0 l 88 726 z "},"÷":{"ha":833,"x_min":67,"x_max":767,"o":"m 418 -35 q 347 -5 378 -35 q 317 65 317 25 q 347 136 317 107 q 417 165 376 165 q 487 135 457 165 q 517 65 517 106 q 508 28 517 46 q 487 -3 500 11 q 456 -26 474 -18 q 418 -35 438 -35 m 418 538 q 347 567 378 538 q 317 638 317 597 q 347 708 317 679 q 417 738 376 738 q 487 708 457 738 q 517 638 517 678 q 508 601 517 618 q 487 569 500 583 q 456 546 474 554 q 418 538 438 538 m 67 281 l 67 422 l 767 422 l 767 281 l 67 281 z "},"¾":{"ha":1158,"x_min":22,"x_max":1115,"o":"m 203 739 q 254 742 229 738 q 299 756 279 746 q 331 783 318 767 q 343 825 343 800 q 334 856 343 843 q 311 878 325 869 q 281 890 297 886 q 247 894 264 894 q 172 865 201 894 q 146 789 143 835 l 35 789 q 96 938 39 885 q 249 992 153 992 q 324 983 288 992 q 390 956 361 975 q 437 906 419 936 q 454 831 454 875 q 432 753 454 786 q 365 706 410 721 l 365 703 q 449 654 418 693 q 479 557 479 615 q 461 476 479 511 q 412 416 443 440 q 339 379 381 392 q 250 367 297 367 q 81 424 136 367 q 22 582 25 481 l 133 582 q 161 499 131 533 q 250 464 192 464 q 333 490 299 464 q 368 563 368 517 q 353 615 368 596 q 316 644 339 635 q 263 657 293 654 q 203 658 233 660 l 203 739 m 854 1006 l 963 1006 l 382 -33 l 272 -33 l 854 1006 m 929 458 l 926 458 l 764 239 l 929 239 l 929 458 m 1050 0 l 929 0 l 929 135 l 658 135 l 658 247 l 913 594 l 1050 594 l 1050 239 l 1115 239 l 1115 135 l 1050 135 l 1050 0 z "},"¼":{"ha":1158,"x_min":51,"x_max":1064,"o":"m 778 1006 l 886 1006 l 306 -33 l 196 -33 l 778 1006 m 51 882 q 118 888 86 882 q 176 905 150 893 q 219 935 201 917 q 243 979 236 953 l 340 979 l 340 379 l 219 379 l 219 801 l 51 801 l 51 882 m 878 458 l 875 458 l 713 239 l 878 239 l 878 458 m 999 0 l 878 0 l 878 135 l 607 135 l 607 247 l 864 594 l 999 594 l 999 239 l 1064 239 l 1064 135 l 999 135 l 999 0 z "},"¹":{"ha":500,"x_min":50,"x_max":339,"o":"m 50 882 q 117 888 85 882 q 174 905 149 893 q 217 935 200 917 q 242 979 235 953 l 339 979 l 339 379 l 218 379 l 218 801 l 50 801 l 50 882 z "},"×":{"ha":833,"x_min":76,"x_max":757,"o":"m 76 593 l 196 671 l 415 450 l 638 671 l 757 593 l 514 351 l 757 110 l 638 32 l 415 254 l 196 32 l 76 110 l 318 351 l 76 593 z "},"®":{"ha":1111,"x_min":46,"x_max":1065,"o":"m 954 496 q 924 669 954 590 q 839 806 893 749 q 713 894 785 863 q 557 925 640 925 q 399 894 472 925 q 272 806 326 863 q 188 669 218 749 q 157 496 157 590 q 185 329 157 407 q 265 193 213 251 q 390 101 317 135 q 557 67 464 67 q 713 98 640 67 q 839 186 785 129 q 924 322 893 243 q 954 496 954 400 m 1065 496 q 1024 283 1065 379 q 913 119 983 188 q 751 14 843 51 q 557 -24 658 -24 q 351 16 444 -24 q 190 125 257 56 q 84 290 122 194 q 46 496 46 385 q 87 708 46 613 q 198 872 128 804 q 361 978 268 940 q 557 1015 454 1015 q 751 978 658 1015 q 913 872 843 940 q 1024 708 983 804 q 1065 496 1065 613 m 560 525 q 610 527 586 525 q 653 539 635 529 q 682 566 671 549 q 693 615 693 583 q 681 657 693 642 q 651 681 669 672 q 611 691 633 689 q 568 693 589 693 l 454 693 l 454 525 l 560 525 m 454 199 l 360 199 l 360 774 l 578 774 q 735 735 682 774 q 788 608 788 696 q 744 494 788 531 q 638 451 701 458 l 799 199 l 692 199 l 543 444 l 454 444 l 454 199 z "},"¦":{"ha":308,"x_min":83,"x_max":225,"o":"m 83 918 l 225 918 l 225 571 l 83 571 l 83 918 m 83 224 l 225 224 l 225 -124 l 83 -124 l 83 224 z "},"½":{"ha":1158,"x_min":50,"x_max":1108,"o":"m 1094 0 l 657 0 q 672 91 657 51 q 709 160 686 131 q 762 213 732 190 q 822 256 792 236 q 882 292 853 275 q 935 328 911 308 q 973 372 958 347 q 988 429 988 396 q 958 498 988 474 q 886 522 929 522 q 838 510 857 522 q 807 479 818 499 q 791 435 796 460 q 785 386 786 411 l 664 386 q 723 557 664 494 q 892 619 782 619 q 976 608 936 619 q 1044 574 1015 597 q 1091 515 1074 550 q 1108 432 1108 479 q 1097 369 1108 397 q 1065 317 1085 340 q 1020 274 1046 293 q 967 236 994 254 q 912 203 939 219 q 862 171 885 188 q 822 136 839 154 q 799 97 806 118 l 1094 97 l 1094 0 m 50 882 q 117 888 85 882 q 174 905 149 893 q 217 935 200 917 q 242 979 235 953 l 339 979 l 339 379 l 218 379 l 218 801 l 50 801 l 50 882 m 772 1006 l 881 1006 l 300 -33 l 190 -33 l 772 1006 z "},"−":{"ha":833,"x_min":67,"x_max":767,"o":"m 67 281 l 67 422 l 767 422 l 767 281 l 67 281 z "},"±":{"ha":833,"x_min":67,"x_max":767,"o":"m 67 142 l 767 142 l 767 0 l 67 0 l 67 142 m 346 703 l 488 703 l 488 529 l 767 529 l 767 388 l 488 388 l 488 214 l 346 214 l 346 388 l 67 388 l 67 529 l 346 529 l 346 703 z "},"þ":{"ha":849,"x_min":88,"x_max":799,"o":"m 640 358 q 628 453 640 407 q 590 534 615 499 q 528 591 565 569 q 442 613 490 613 q 291 543 342 613 q 240 358 240 474 q 253 258 240 304 q 293 178 267 211 q 356 125 319 144 q 442 106 393 106 q 533 128 496 106 q 595 185 571 150 q 630 266 619 221 q 640 358 640 311 m 88 992 l 246 992 l 246 625 l 249 625 q 289 672 265 651 q 341 708 313 693 q 401 730 369 722 q 463 738 432 738 q 610 708 547 738 q 715 626 674 678 q 778 504 757 574 q 799 356 799 435 q 780 215 799 283 q 723 95 761 147 q 626 12 685 43 q 489 -19 568 -19 q 421 -13 456 -19 q 354 6 386 -7 q 294 41 322 19 q 249 93 267 63 l 246 93 l 246 -265 l 88 -265 l 88 992 z "},"©":{"ha":1111,"x_min":46,"x_max":1065,"o":"m 819 396 q 788 306 811 346 q 733 239 765 267 q 660 197 701 211 q 574 182 619 182 q 453 206 507 182 q 360 272 399 229 q 300 372 321 314 q 279 496 279 429 q 299 613 279 558 q 357 708 319 668 q 449 771 394 747 q 571 794 503 794 q 735 741 667 794 q 818 585 804 688 l 724 585 q 672 671 713 638 q 571 704 631 704 q 493 688 526 704 q 437 643 460 671 q 402 577 414 615 q 390 496 390 539 q 403 410 390 450 q 440 339 415 369 q 498 290 464 308 q 574 272 532 272 q 676 307 636 272 q 724 396 717 342 l 819 396 m 954 496 q 924 669 954 590 q 839 806 893 749 q 713 894 785 863 q 557 925 640 925 q 399 894 472 925 q 272 806 326 863 q 188 669 218 749 q 157 496 157 590 q 185 329 157 407 q 265 193 213 251 q 390 101 317 135 q 557 67 464 67 q 713 98 640 67 q 839 186 785 129 q 924 322 893 243 q 954 496 954 400 m 1065 496 q 1024 283 1065 379 q 913 119 983 188 q 751 14 843 51 q 557 -24 658 -24 q 351 16 444 -24 q 190 125 257 56 q 84 290 122 194 q 46 496 46 385 q 87 708 46 613 q 198 872 128 804 q 361 978 268 940 q 557 1015 454 1015 q 751 978 658 1015 q 913 872 843 940 q 1024 708 983 804 q 1065 496 1065 613 z "},"¬":{"ha":833,"x_min":67,"x_max":767,"o":"m 625 421 l 67 421 l 67 563 l 767 563 l 767 150 l 625 150 l 625 421 z "},"²":{"ha":500,"x_min":29,"x_max":481,"o":"m 467 379 l 29 379 q 67 520 31 464 q 168 617 104 576 q 233 658 199 638 q 294 700 267 678 q 340 749 322 722 q 360 808 358 775 q 329 874 360 853 q 258 894 299 894 q 211 883 231 894 q 181 854 192 872 q 164 813 169 836 q 157 765 158 790 l 36 765 q 97 931 36 871 q 264 992 158 992 q 347 981 307 992 q 416 949 386 971 q 463 893 446 928 q 481 811 481 858 q 469 748 481 776 q 437 696 457 719 q 391 652 417 672 q 339 615 365 632 q 284 581 311 597 q 234 549 257 565 q 194 515 211 532 q 171 476 178 497 l 467 476 l 467 379 z "},"³":{"ha":500,"x_min":22,"x_max":479,"o":"m 203 740 q 254 743 229 739 q 299 757 279 747 q 331 783 318 767 q 343 825 343 800 q 334 856 343 843 q 311 878 325 869 q 281 890 297 886 q 247 894 264 894 q 172 865 201 894 q 146 789 143 835 l 35 789 q 96 938 39 885 q 249 992 153 992 q 324 983 288 992 q 390 956 361 975 q 437 906 419 936 q 454 831 454 875 q 432 753 454 786 q 365 706 410 721 l 365 703 q 449 654 418 693 q 479 557 479 615 q 461 476 479 511 q 412 416 443 440 q 339 379 381 392 q 250 367 297 367 q 81 424 136 367 q 22 582 25 481 l 133 582 q 161 499 131 533 q 250 464 192 464 q 333 490 299 464 q 368 563 368 517 q 353 615 368 596 q 316 645 339 635 q 263 658 293 656 q 203 660 233 661 l 203 740 z "},"™":{"ha":1375,"x_min":82,"x_max":1293,"o":"m 978 586 l 1133 992 l 1293 992 l 1293 419 l 1189 419 l 1189 867 l 1186 867 l 1015 419 l 938 419 l 767 867 l 764 867 l 764 419 l 660 419 l 660 992 l 821 992 l 978 586 m 543 901 l 368 901 l 368 419 l 257 419 l 257 901 l 82 901 l 82 992 l 543 992 l 543 901 z "},"°":{"ha":556,"x_min":69,"x_max":486,"o":"m 147 783 q 158 732 147 756 q 185 691 168 708 q 226 663 203 674 q 278 653 250 653 q 328 663 304 653 q 370 691 353 674 q 398 732 388 708 q 408 783 408 756 q 398 834 408 810 q 370 876 388 858 q 328 903 353 893 q 278 914 304 914 q 226 903 250 914 q 185 876 203 893 q 158 834 168 858 q 147 783 147 810 m 69 783 q 86 865 69 826 q 131 931 103 903 q 197 975 158 958 q 278 992 235 992 q 359 975 321 992 q 425 931 397 958 q 469 865 453 903 q 486 783 486 826 q 469 702 486 740 q 425 636 453 664 q 359 592 397 608 q 278 575 321 575 q 197 592 235 575 q 131 636 158 608 q 86 702 103 664 q 69 783 69 740 z "},"µ":{"ha":797,"x_min":83,"x_max":714,"o":"m 714 0 l 558 0 l 558 100 l 556 100 q 518 51 540 72 q 470 13 496 29 q 417 -11 444 -3 q 367 -19 390 -19 q 300 -8 335 -19 q 242 31 265 3 l 242 -265 l 83 -265 l 83 718 l 242 718 l 242 278 q 278 144 242 183 q 379 106 314 106 q 463 121 429 106 q 517 162 496 136 q 547 224 538 188 q 556 301 556 260 l 556 718 l 714 718 l 714 0 z "},"€":{"ha":772,"x_min":31,"x_max":788,"o":"m 788 906 l 724 779 q 529 868 635 868 q 374 794 436 868 q 303 632 321 729 l 669 632 l 633 543 l 293 543 q 292 524 292 536 q 292 492 292 511 q 293 449 292 456 l 614 449 l 579 361 l 300 361 q 371 185 317 249 q 540 106 433 106 q 656 128 610 106 q 750 197 697 149 l 750 43 q 540 -18 656 -18 q 250 96 354 -18 q 138 361 160 194 l 31 361 l 68 449 l 131 449 q 128 469 129 458 q 128 493 128 481 q 128 515 128 503 q 131 543 129 528 l 31 543 l 67 632 l 140 632 q 267 885 175 792 q 540 992 374 992 q 788 906 661 992 z "},"≠":{"ha":824,"x_min":51,"x_max":772,"o":"m 376 138 l 268 -74 l 144 -10 l 221 138 l 51 138 l 51 279 l 292 279 l 376 442 l 51 442 l 51 582 l 447 582 l 554 793 l 678 731 l 603 582 l 772 582 l 772 442 l 531 442 l 447 279 l 772 279 l 772 138 l 376 138 z "},"∞":{"ha":1119,"x_min":61,"x_max":1057,"o":"m 483 358 q 443 397 465 376 q 396 436 421 418 q 343 466 371 454 q 289 478 315 478 q 210 442 239 478 q 181 360 181 407 q 210 276 181 308 q 293 244 240 244 q 347 255 319 244 q 398 282 374 265 q 444 319 422 299 q 483 358 467 339 m 938 360 q 908 445 938 411 q 826 479 879 479 q 772 467 799 479 q 722 437 746 456 q 676 397 697 418 q 636 357 654 375 q 676 317 654 338 q 723 281 699 297 q 774 253 747 264 q 831 243 801 243 q 910 277 882 243 q 938 360 938 311 m 1057 364 q 1042 266 1057 311 q 997 188 1026 221 q 924 135 967 154 q 828 115 882 115 q 748 128 785 115 q 678 164 711 142 q 616 214 646 186 q 560 271 586 242 q 502 214 531 242 q 442 165 474 186 q 375 131 411 144 q 293 118 339 118 q 197 137 240 118 q 124 188 154 156 q 77 264 93 219 q 61 361 61 308 q 77 457 61 413 q 122 535 93 501 q 194 587 151 568 q 289 606 236 606 q 372 592 333 606 q 442 555 410 578 q 503 503 475 532 q 560 442 532 474 q 615 502 586 472 q 678 555 644 532 q 749 592 711 578 q 829 607 786 607 q 924 588 882 607 q 996 537 967 569 q 1041 460 1025 504 q 1057 364 1057 415 z "},"≤":{"ha":824,"x_min":51,"x_max":772,"o":"m 51 -49 l 51 92 l 772 92 l 772 -49 l 51 -49 m 51 378 l 51 521 l 772 769 l 772 621 l 243 450 l 772 288 l 772 139 l 51 378 z "},"≥":{"ha":824,"x_min":51,"x_max":772,"o":"m 51 -49 l 51 92 l 772 92 l 772 -49 l 51 -49 m 51 139 l 51 288 l 579 450 l 51 621 l 51 769 l 772 521 l 772 378 l 51 139 z "},"∂":{"ha":761,"x_min":54,"x_max":704,"o":"m 550 399 q 472 467 514 442 q 371 492 429 492 q 294 475 326 492 q 240 431 263 458 q 208 367 218 403 q 197 290 197 331 q 207 217 197 253 q 236 155 217 182 q 287 111 256 128 q 360 94 318 94 q 447 121 410 94 q 507 188 483 147 q 542 277 531 229 q 551 367 553 325 l 550 399 m 704 499 q 690 319 704 411 q 638 153 676 228 q 531 31 599 79 q 354 -17 463 -17 q 231 8 286 -17 q 136 74 175 32 q 76 174 97 117 q 54 299 54 232 q 75 419 54 364 q 135 516 96 475 q 228 580 174 557 q 349 603 282 603 q 458 582 408 603 q 553 522 508 561 l 554 564 q 545 672 556 615 q 509 776 535 728 q 441 855 483 824 q 336 886 399 886 q 249 867 289 886 q 172 819 208 847 l 93 911 q 203 978 150 956 q 331 1001 257 1001 q 509 957 438 1001 q 624 840 581 913 q 686 678 668 768 q 704 499 704 589 z "},"∑":{"ha":893,"x_min":35,"x_max":858,"o":"m 35 -297 l 35 -178 l 460 404 l 53 975 l 53 1092 l 840 1092 l 840 956 l 251 956 l 639 406 l 226 -162 l 858 -162 l 858 -297 l 35 -297 z "},"∏":{"ha":1024,"x_min":88,"x_max":936,"o":"m 786 -297 l 786 956 l 236 956 l 236 -297 l 88 -297 l 88 1092 l 936 1092 l 936 -297 l 786 -297 z "},"π":{"ha":818,"x_min":1,"x_max":786,"o":"m 786 18 q 730 -3 757 4 q 671 -10 703 -10 q 597 4 625 -10 q 555 42 569 18 q 536 100 540 67 q 532 171 532 133 l 532 538 l 239 538 l 239 0 l 99 0 l 99 538 l 1 538 l 1 671 l 782 671 l 782 538 l 672 538 l 672 192 q 673 162 672 176 q 679 135 674 147 q 695 117 685 124 q 725 110 706 110 q 786 124 754 110 l 786 18 l 786 18 z "},"∫":{"ha":833,"x_min":129,"x_max":658,"o":"m 658 990 q 638 942 658 961 q 588 922 617 922 q 543 936 557 922 q 522 967 529 950 q 508 999 514 985 q 489 1013 501 1013 q 467 997 471 1013 q 463 968 463 982 q 464 876 463 922 q 465 783 465 829 l 467 56 q 465 -60 467 1 q 444 -175 463 -122 q 386 -262 426 -228 q 271 -297 346 -297 q 224 -292 249 -297 q 178 -274 199 -286 q 143 -242 157 -261 q 129 -197 129 -224 q 147 -149 129 -168 q 196 -129 165 -129 q 240 -144 225 -129 q 262 -176 254 -158 q 275 -208 269 -193 q 293 -222 281 -222 q 311 -215 306 -222 q 319 -196 317 -207 q 320 -173 321 -185 q 319 -154 319 -161 q 317 -87 319 -121 q 315 -19 315 -53 l 315 724 q 316 844 315 779 q 334 963 317 908 q 392 1055 351 1018 q 513 1092 433 1092 q 560 1086 535 1092 q 608 1068 586 1081 q 644 1036 629 1056 q 658 990 658 1017 z "},"Ω":{"ha":1051,"x_min":64,"x_max":969,"o":"m 592 0 l 592 261 q 688 299 646 272 q 757 365 729 326 q 799 453 785 404 q 814 556 814 501 q 792 676 814 619 q 732 774 771 732 q 638 840 693 815 q 518 864 583 864 q 397 840 451 864 q 303 773 343 815 q 242 674 264 731 q 221 553 221 617 q 276 364 221 440 q 440 261 331 288 l 440 0 l 64 0 l 64 126 l 318 126 l 318 192 q 207 249 254 213 q 128 333 160 285 q 80 440 96 382 q 64 564 64 499 q 99 740 64 660 q 197 878 135 821 q 340 969 258 936 q 517 1001 422 1001 q 694 970 611 1001 q 838 882 776 939 q 934 745 899 825 q 969 568 969 665 q 954 443 969 503 q 907 334 939 383 q 827 248 875 285 q 714 192 779 211 l 714 126 l 969 126 l 969 0 l 592 0 z "},"≈":{"ha":824,"x_min":39,"x_max":785,"o":"m 782 335 q 765 249 778 290 q 728 174 751 207 q 668 122 704 142 q 581 103 632 103 q 489 118 539 103 q 390 151 439 133 q 298 183 342 168 q 224 199 254 199 q 161 169 183 199 q 133 103 139 139 l 39 103 q 56 188 43 146 q 93 263 69 229 q 152 316 117 296 q 238 336 188 336 q 328 322 282 336 q 422 290 375 307 q 513 258 468 272 q 600 243 558 243 q 661 271 640 243 q 689 335 682 299 l 782 335 l 782 335 m 785 617 q 767 531 781 572 q 731 456 754 489 q 671 404 707 424 q 583 385 635 385 q 492 400 542 385 q 393 433 442 415 q 301 465 344 450 q 226 481 257 481 q 165 451 186 481 q 136 385 143 421 l 42 385 q 58 469 46 428 q 95 544 71 511 q 155 598 119 578 q 240 618 190 618 q 331 603 283 618 q 424 572 378 589 q 517 540 471 554 q 603 525 563 525 q 663 553 643 525 q 690 617 683 581 l 785 617 l 785 617 z "},"∆":{"ha":949,"x_min":13,"x_max":938,"o":"m 464 817 l 214 136 l 728 136 l 464 817 m 13 0 l 390 989 l 543 989 l 938 0 l 13 0 z "},"√":{"ha":738,"x_min":-17,"x_max":754,"o":"m 461 -297 l 321 -297 l 108 146 l 39 114 l -17 232 l 182 322 l 367 -68 l 603 1092 l 754 1092 l 461 -297 z "},"◊":{"ha":824,"x_min":100,"x_max":722,"o":"m 410 897 l 244 494 l 410 90 l 579 494 l 410 897 m 476 -49 l 344 -49 l 100 494 l 344 1038 l 476 1038 l 722 494 l 476 -49 z "},"ŀ":{"ha":504,"x_min":88,"x_max":479,"o":"m 88 992 l 246 992 l 246 0 l 88 0 l 88 992 m 321 569 l 321 719 l 479 719 l 479 569 l 321 569 z "},"í":{"ha":335,"x_min":88,"x_max":400,"o":"m 88 0 l 88 718 l 246 718 l 246 0 l 88 0 m 213 1017 l 400 1017 l 203 818 l 88 818 l 213 1017 z "},"î":{"ha":335,"x_min":-58,"x_max":394,"o":"m 88 0 l 88 718 l 246 718 l 246 0 l 88 0 m 69 818 l -58 818 l 90 1017 l 244 1017 l 394 818 l 265 818 l 167 943 l 69 818 z "},"ĩ":{"ha":335,"x_min":-76,"x_max":414,"o":"m 88 0 l 88 718 l 246 718 l 246 0 l 88 0 m 414 1000 q 398 938 408 967 q 368 888 388 908 q 324 853 350 865 q 260 840 297 840 q 210 848 236 840 q 157 867 183 856 q 106 886 125 881 q 63 892 86 892 q 23 877 38 892 q 3 835 8 863 l -76 835 q -61 889 -72 861 q -32 940 -50 917 q 11 977 -14 963 q 68 992 36 992 q 116 987 94 992 q 181 964 138 982 q 228 945 210 951 q 267 939 247 939 q 313 956 297 939 q 336 1000 329 972 l 414 1000 z "},"ï":{"ha":335,"x_min":-31,"x_max":367,"o":"m 88 0 l 88 718 l 246 718 l 246 0 l 88 0 m -31 836 l -31 986 l 128 986 l 128 836 l -31 836 m 367 986 l 367 836 l 208 836 l 208 986 l 367 986 z "},"ī":{"ha":335,"x_min":-33,"x_max":367,"o":"m 88 0 l 88 718 l 246 718 l 246 0 l 88 0 m -33 867 l -33 957 l 367 957 l 367 867 l -33 867 z "},"į":{"ha":335,"x_min":33,"x_max":292,"o":"m 244 0 q 186 -55 210 -31 q 149 -101 163 -79 q 131 -141 136 -122 q 126 -179 126 -160 q 142 -224 126 -207 q 175 -240 157 -240 q 210 -231 194 -240 q 240 -193 225 -221 l 292 -206 q 270 -256 285 -236 q 238 -288 256 -276 q 199 -305 219 -300 q 161 -310 179 -310 q 131 -307 151 -310 q 88 -292 110 -304 q 50 -254 67 -279 q 33 -185 33 -229 q 36 -157 33 -174 q 53 -117 39 -140 q 95 -64 67 -93 q 176 0 124 -35 l 88 0 l 88 718 l 246 718 l 246 0 l 244 0 m 88 992 l 246 992 l 246 842 l 88 842 l 88 992 z "},"ĵ":{"ha":335,"x_min":-58,"x_max":394,"o":"m 88 718 l 246 718 l 246 -61 q 199 -226 246 -168 q 40 -285 151 -285 q 1 -283 17 -285 q -31 -279 -15 -282 l -31 -154 q -1 -158 -15 -157 q 24 -160 13 -160 q 77 -133 67 -160 q 88 -54 88 -107 l 88 718 m 69 818 l -58 818 l 90 1017 l 244 1017 l 394 818 l 265 818 l 167 943 l 69 818 z "},"ķ":{"ha":746,"x_min":88,"x_max":753,"o":"m 88 992 l 246 992 l 246 428 l 532 718 l 726 718 l 451 454 l 753 0 l 560 0 l 340 349 l 246 257 l 246 0 l 88 0 l 88 992 m 297 -69 l 479 -69 l 479 -193 q 465 -248 479 -221 q 418 -291 451 -275 q 318 -310 385 -307 l 318 -257 q 362 -242 347 -253 q 381 -207 376 -231 l 297 -207 l 297 -69 z "},"ĺ":{"ha":335,"x_min":88,"x_max":400,"o":"m 88 992 l 246 992 l 246 0 l 88 0 l 88 992 m 213 1286 l 400 1286 l 203 1088 l 88 1088 l 213 1286 z "},"ľ":{"ha":443,"x_min":88,"x_max":535,"o":"m 88 992 l 246 992 l 246 0 l 88 0 l 88 992 m 361 992 l 535 992 l 422 793 l 317 793 l 361 992 z "},"ļ":{"ha":335,"x_min":76,"x_max":258,"o":"m 88 992 l 246 992 l 246 0 l 88 0 l 88 992 m 76 -69 l 258 -69 l 258 -193 q 244 -248 258 -221 q 197 -291 231 -275 q 97 -310 164 -307 l 97 -257 q 141 -242 126 -253 q 160 -207 156 -231 l 76 -207 l 76 -69 z "},"ń":{"ha":797,"x_min":83,"x_max":714,"o":"m 83 718 l 233 718 l 233 613 l 236 610 q 331 703 272 669 q 460 738 389 738 q 646 676 578 738 q 714 493 714 615 l 714 0 l 556 0 l 556 451 q 519 574 553 536 q 415 613 486 613 q 343 598 375 613 q 289 558 311 583 q 254 497 267 532 q 242 424 242 463 l 242 0 l 83 0 l 83 718 m 444 1017 l 632 1017 l 435 818 l 319 818 l 444 1017 z "},"ň":{"ha":797,"x_min":83,"x_max":714,"o":"m 83 718 l 233 718 l 233 613 l 236 610 q 331 703 272 669 q 460 738 389 738 q 646 676 578 738 q 714 493 714 615 l 714 0 l 556 0 l 556 451 q 519 574 553 536 q 415 613 486 613 q 343 598 375 613 q 289 558 311 583 q 254 497 267 532 q 242 424 242 463 l 242 0 l 83 0 l 83 718 m 478 818 l 324 818 l 175 1017 l 303 1017 l 400 893 l 499 1017 l 628 1017 l 478 818 z "},"ñ":{"ha":797,"x_min":83,"x_max":714,"o":"m 83 718 l 233 718 l 233 613 l 236 610 q 331 703 272 669 q 460 738 389 738 q 646 676 578 738 q 714 493 714 615 l 714 0 l 556 0 l 556 451 q 519 574 553 536 q 415 613 486 613 q 343 598 375 613 q 289 558 311 583 q 254 497 267 532 q 242 424 242 463 l 242 0 l 83 0 l 83 718 m 643 1000 q 627 938 638 967 q 597 888 617 908 q 553 853 579 865 q 489 840 526 840 q 439 848 465 840 q 386 867 413 856 q 335 886 354 881 q 292 892 315 892 q 252 877 267 892 q 232 835 238 863 l 153 835 q 168 889 157 861 q 197 940 179 917 q 240 977 215 963 q 297 992 265 992 q 345 987 324 992 q 410 964 367 982 q 458 945 439 951 q 496 939 476 939 q 542 956 526 939 q 565 1000 558 972 l 643 1000 z "},"ņ":{"ha":797,"x_min":83,"x_max":714,"o":"m 83 718 l 233 718 l 233 613 l 236 610 q 331 703 272 669 q 460 738 389 738 q 646 676 578 738 q 714 493 714 615 l 714 0 l 556 0 l 556 451 q 519 574 553 536 q 415 613 486 613 q 343 598 375 613 q 289 558 311 583 q 254 497 267 532 q 242 424 242 463 l 242 0 l 83 0 l 83 718 m 306 -69 l 488 -69 l 488 -193 q 474 -248 488 -221 q 426 -291 460 -275 q 326 -310 393 -307 l 326 -257 q 370 -242 356 -253 q 389 -207 385 -231 l 306 -207 l 306 -69 z "},"ŉ":{"ha":797,"x_min":-25,"x_max":714,"o":"m 83 718 l 233 718 l 233 613 l 236 610 q 331 703 272 669 q 460 738 389 738 q 646 676 578 738 q 714 493 714 615 l 714 0 l 556 0 l 556 451 q 519 574 553 536 q 415 613 486 613 q 343 598 375 613 q 289 558 311 583 q 254 497 267 532 q 242 424 242 463 l 242 0 l 83 0 l 83 718 m -25 1129 l 157 1129 l 157 1006 q 143 951 157 978 q 96 908 129 924 q -4 889 63 892 l -4 942 q 40 957 25 946 q 58 992 54 968 l -25 992 l -25 1129 z "},"ò":{"ha":824,"x_min":50,"x_max":775,"o":"m 413 -19 q 259 9 326 -19 q 145 88 192 38 q 74 207 99 138 q 50 360 50 276 q 74 511 50 442 q 145 631 99 581 q 259 709 192 681 q 413 738 326 738 q 566 709 499 738 q 680 631 633 681 q 751 511 726 581 q 775 360 775 442 q 751 207 775 276 q 680 88 726 138 q 566 9 633 38 q 413 -19 499 -19 m 413 106 q 504 128 465 106 q 568 186 543 150 q 605 267 593 222 q 617 360 617 313 q 605 451 617 406 q 568 533 593 497 q 504 590 543 568 q 413 613 465 613 q 321 590 360 613 q 257 533 282 568 q 220 451 232 497 q 208 360 208 406 q 220 267 208 313 q 257 186 232 222 q 321 128 282 150 q 413 106 360 106 m 358 1017 l 485 818 l 369 818 l 172 1017 l 358 1017 z "},"ó":{"ha":824,"x_min":50,"x_max":775,"o":"m 413 -19 q 259 9 326 -19 q 145 88 192 38 q 74 207 99 138 q 50 360 50 276 q 74 511 50 442 q 145 631 99 581 q 259 709 192 681 q 413 738 326 738 q 566 709 499 738 q 680 631 633 681 q 751 511 726 581 q 775 360 775 442 q 751 207 775 276 q 680 88 726 138 q 566 9 633 38 q 413 -19 499 -19 m 413 106 q 504 128 465 106 q 568 186 543 150 q 605 267 593 222 q 617 360 617 313 q 605 451 617 406 q 568 533 593 497 q 504 590 543 568 q 413 613 465 613 q 321 590 360 613 q 257 533 282 568 q 220 451 232 497 q 208 360 208 406 q 220 267 208 313 q 257 186 232 222 q 321 128 282 150 q 413 106 360 106 m 458 1017 l 646 1017 l 449 818 l 333 818 l 458 1017 z "},"ô":{"ha":824,"x_min":50,"x_max":775,"o":"m 413 -19 q 259 9 326 -19 q 145 88 192 38 q 74 207 99 138 q 50 360 50 276 q 74 511 50 442 q 145 631 99 581 q 259 709 192 681 q 413 738 326 738 q 566 709 499 738 q 680 631 633 681 q 751 511 726 581 q 775 360 775 442 q 751 207 775 276 q 680 88 726 138 q 566 9 633 38 q 413 -19 499 -19 m 413 106 q 504 128 465 106 q 568 186 543 150 q 605 267 593 222 q 617 360 617 313 q 605 451 617 406 q 568 533 593 497 q 504 590 543 568 q 413 613 465 613 q 321 590 360 613 q 257 533 282 568 q 220 451 232 497 q 208 360 208 406 q 220 267 208 313 q 257 186 232 222 q 321 128 282 150 q 413 106 360 106 m 317 818 l 189 818 l 338 1017 l 492 1017 l 642 818 l 513 818 l 414 943 l 317 818 z "},"õ":{"ha":824,"x_min":50,"x_max":775,"o":"m 413 -19 q 259 9 326 -19 q 145 88 192 38 q 74 207 99 138 q 50 360 50 276 q 74 511 50 442 q 145 631 99 581 q 259 709 192 681 q 413 738 326 738 q 566 709 499 738 q 680 631 633 681 q 751 511 726 581 q 775 360 775 442 q 751 207 775 276 q 680 88 726 138 q 566 9 633 38 q 413 -19 499 -19 m 413 106 q 504 128 465 106 q 568 186 543 150 q 605 267 593 222 q 617 360 617 313 q 605 451 617 406 q 568 533 593 497 q 504 590 543 568 q 413 613 465 613 q 321 590 360 613 q 257 533 282 568 q 220 451 232 497 q 208 360 208 406 q 220 267 208 313 q 257 186 232 222 q 321 128 282 150 q 413 106 360 106 m 661 1000 q 645 938 656 967 q 615 888 635 908 q 571 853 597 865 q 507 840 544 840 q 457 848 483 840 q 404 867 431 856 q 353 886 372 881 q 310 892 333 892 q 270 877 285 892 q 250 835 256 863 l 171 835 q 186 889 175 861 q 215 940 197 917 q 258 977 233 963 q 315 992 283 992 q 363 987 342 992 q 428 964 385 982 q 476 945 457 951 q 514 939 494 939 q 560 956 544 939 q 583 1000 576 972 l 661 1000 z "},"ö":{"ha":824,"x_min":50,"x_max":775,"o":"m 413 -19 q 259 9 326 -19 q 145 88 192 38 q 74 207 99 138 q 50 360 50 276 q 74 511 50 442 q 145 631 99 581 q 259 709 192 681 q 413 738 326 738 q 566 709 499 738 q 680 631 633 681 q 751 511 726 581 q 775 360 775 442 q 751 207 775 276 q 680 88 726 138 q 566 9 633 38 q 413 -19 499 -19 m 413 106 q 504 128 465 106 q 568 186 543 150 q 605 267 593 222 q 617 360 617 313 q 605 451 617 406 q 568 533 593 497 q 504 590 543 568 q 413 613 465 613 q 321 590 360 613 q 257 533 282 568 q 220 451 232 497 q 208 360 208 406 q 220 267 208 313 q 257 186 232 222 q 321 128 282 150 q 413 106 360 106 m 217 836 l 217 986 l 375 986 l 375 836 l 217 836 m 614 986 l 614 836 l 456 836 l 456 986 l 614 986 z "},"ō":{"ha":824,"x_min":50,"x_max":775,"o":"m 413 -19 q 259 9 326 -19 q 145 88 192 38 q 74 207 99 138 q 50 360 50 276 q 74 511 50 442 q 145 631 99 581 q 259 709 192 681 q 413 738 326 738 q 566 709 499 738 q 680 631 633 681 q 751 511 726 581 q 775 360 775 442 q 751 207 775 276 q 680 88 726 138 q 566 9 633 38 q 413 -19 499 -19 m 413 106 q 504 128 465 106 q 568 186 543 150 q 605 267 593 222 q 617 360 617 313 q 605 451 617 406 q 568 533 593 497 q 504 590 543 568 q 413 613 465 613 q 321 590 360 613 q 257 533 282 568 q 220 451 232 497 q 208 360 208 406 q 220 267 208 313 q 257 186 232 222 q 321 128 282 150 q 413 106 360 106 m 217 867 l 217 957 l 617 957 l 617 867 l 217 867 z "},"ŏ":{"ha":824,"x_min":50,"x_max":775,"o":"m 413 -19 q 259 9 326 -19 q 145 88 192 38 q 74 207 99 138 q 50 360 50 276 q 74 511 50 442 q 145 631 99 581 q 259 709 192 681 q 413 738 326 738 q 566 709 499 738 q 680 631 633 681 q 751 511 726 581 q 775 360 775 442 q 751 207 775 276 q 680 88 726 138 q 566 9 633 38 q 413 -19 499 -19 m 413 106 q 504 128 465 106 q 568 186 543 150 q 605 267 593 222 q 617 360 617 313 q 605 451 617 406 q 568 533 593 497 q 504 590 543 568 q 413 613 465 613 q 321 590 360 613 q 257 533 282 568 q 220 451 232 497 q 208 360 208 406 q 220 267 208 313 q 257 186 232 222 q 321 128 282 150 q 413 106 360 106 m 271 1015 q 323 933 282 957 q 419 910 364 910 q 510 936 472 910 q 560 1015 549 963 l 639 1015 q 566 868 628 917 q 408 819 504 819 q 256 869 313 819 q 190 1015 199 919 l 271 1015 z "},"ő":{"ha":824,"x_min":50,"x_max":797,"o":"m 413 -19 q 259 9 326 -19 q 145 88 192 38 q 74 207 99 138 q 50 360 50 276 q 74 511 50 442 q 145 631 99 581 q 259 709 192 681 q 413 738 326 738 q 566 709 499 738 q 680 631 633 681 q 751 511 726 581 q 775 360 775 442 q 751 207 775 276 q 680 88 726 138 q 566 9 633 38 q 413 -19 499 -19 m 413 106 q 504 128 465 106 q 568 186 543 150 q 605 267 593 222 q 617 360 617 313 q 605 451 617 406 q 568 533 593 497 q 504 590 543 568 q 413 613 465 613 q 321 590 360 613 q 257 533 282 568 q 220 451 232 497 q 208 360 208 406 q 220 267 208 313 q 257 186 232 222 q 321 128 282 150 q 413 106 360 106 m 608 1017 l 797 1017 l 597 818 l 483 818 l 608 1017 m 332 1017 l 521 1017 l 321 818 l 207 818 l 332 1017 z "},"ŕ":{"ha":489,"x_min":83,"x_max":504,"o":"m 83 718 l 232 718 l 232 579 l 235 579 q 262 636 242 608 q 310 687 282 664 q 374 724 339 710 q 444 738 408 738 q 483 736 472 738 q 504 733 493 735 l 504 581 q 470 585 488 583 q 436 588 453 588 q 360 572 396 588 q 299 524 325 556 q 257 447 272 493 q 242 342 242 401 l 242 0 l 83 0 l 83 718 m 239 1017 l 426 1017 l 229 818 l 114 818 l 239 1017 z "},"ŗ":{"ha":489,"x_min":72,"x_max":504,"o":"m 83 718 l 232 718 l 232 579 l 235 579 q 262 636 242 608 q 310 687 282 664 q 374 724 339 710 q 444 738 408 738 q 483 736 472 738 q 504 733 493 735 l 504 581 q 470 585 488 583 q 436 588 453 588 q 360 572 396 588 q 299 524 325 556 q 257 447 272 493 q 242 342 242 401 l 242 0 l 83 0 l 83 718 m 72 -69 l 254 -69 l 254 -193 q 240 -248 254 -221 q 193 -291 226 -275 q 93 -310 160 -307 l 93 -257 q 137 -242 122 -253 q 156 -207 151 -231 l 72 -207 l 72 -69 z "},"ř":{"ha":489,"x_min":67,"x_max":519,"o":"m 83 718 l 232 718 l 232 579 l 235 579 q 262 636 242 608 q 310 687 282 664 q 374 724 339 710 q 444 738 408 738 q 483 736 472 738 q 504 733 493 735 l 504 581 q 470 585 488 583 q 436 588 453 588 q 360 572 396 588 q 299 524 325 556 q 257 447 272 493 q 242 342 242 401 l 242 0 l 83 0 l 83 718 m 369 818 l 215 818 l 67 1017 l 194 1017 l 292 893 l 390 1017 l 519 1017 l 369 818 z "},"ś":{"ha":721,"x_min":44,"x_max":683,"o":"m 203 231 q 256 133 210 161 q 365 106 301 106 q 416 109 388 106 q 469 122 444 113 q 510 151 494 132 q 525 200 526 169 q 503 250 524 231 q 449 281 482 269 q 375 301 417 293 q 290 319 333 310 q 205 343 246 329 q 131 381 164 357 q 79 441 99 404 q 60 532 60 478 q 88 630 60 590 q 160 694 117 669 q 258 728 204 718 q 360 738 311 738 q 466 726 415 738 q 558 688 517 714 q 626 619 599 661 q 660 517 653 576 l 494 517 q 442 593 483 574 q 349 613 401 613 q 309 610 332 613 q 266 599 286 607 q 232 577 246 592 q 218 539 218 563 q 238 492 218 510 q 291 462 258 474 q 365 442 324 450 q 451 424 407 433 q 536 400 494 414 q 610 363 578 386 q 663 303 643 339 q 683 214 683 267 q 654 106 683 150 q 578 33 625 61 q 475 -7 532 6 q 363 -19 418 -19 q 237 -4 294 -19 q 137 42 179 11 q 70 120 94 74 q 44 231 46 167 l 203 231 m 392 1017 l 579 1017 l 382 818 l 267 818 l 392 1017 z "},"ŝ":{"ha":721,"x_min":44,"x_max":683,"o":"m 203 231 q 256 133 210 161 q 365 106 301 106 q 416 109 388 106 q 469 122 444 113 q 510 151 494 132 q 525 200 526 169 q 503 250 524 231 q 449 281 482 269 q 375 301 417 293 q 290 319 333 310 q 205 343 246 329 q 131 381 164 357 q 79 441 99 404 q 60 532 60 478 q 88 630 60 590 q 160 694 117 669 q 258 728 204 718 q 360 738 311 738 q 466 726 415 738 q 558 688 517 714 q 626 619 599 661 q 660 517 653 576 l 494 517 q 442 593 483 574 q 349 613 401 613 q 309 610 332 613 q 266 599 286 607 q 232 577 246 592 q 218 539 218 563 q 238 492 218 510 q 291 462 258 474 q 365 442 324 450 q 451 424 407 433 q 536 400 494 414 q 610 363 578 386 q 663 303 643 339 q 683 214 683 267 q 654 106 683 150 q 578 33 625 61 q 475 -7 532 6 q 363 -19 418 -19 q 237 -4 294 -19 q 137 42 179 11 q 70 120 94 74 q 44 231 46 167 l 203 231 m 272 818 l 144 818 l 293 1017 l 447 1017 l 597 818 l 468 818 l 369 943 l 272 818 z "},"š":{"ha":721,"x_min":44,"x_max":683,"o":"m 203 231 q 256 133 210 161 q 365 106 301 106 q 416 109 388 106 q 469 122 444 113 q 510 151 494 132 q 525 200 526 169 q 503 250 524 231 q 449 281 482 269 q 375 301 417 293 q 290 319 333 310 q 205 343 246 329 q 131 381 164 357 q 79 441 99 404 q 60 532 60 478 q 88 630 60 590 q 160 694 117 669 q 258 728 204 718 q 360 738 311 738 q 466 726 415 738 q 558 688 517 714 q 626 619 599 661 q 660 517 653 576 l 494 517 q 442 593 483 574 q 349 613 401 613 q 309 610 332 613 q 266 599 286 607 q 232 577 246 592 q 218 539 218 563 q 238 492 218 510 q 291 462 258 474 q 365 442 324 450 q 451 424 407 433 q 536 400 494 414 q 610 363 578 386 q 663 303 643 339 q 683 214 683 267 q 654 106 683 150 q 578 33 625 61 q 475 -7 532 6 q 363 -19 418 -19 q 237 -4 294 -19 q 137 42 179 11 q 70 120 94 74 q 44 231 46 167 l 203 231 m 443 818 l 289 818 l 140 1017 l 268 1017 l 365 893 l 464 1017 l 593 1017 l 443 818 z "},"ş":{"ha":721,"x_min":44,"x_max":683,"o":"m 217 -222 q 263 -239 242 -233 q 307 -244 283 -244 q 336 -242 321 -244 q 364 -234 351 -240 q 384 -217 376 -228 q 392 -187 392 -206 q 372 -148 392 -161 q 328 -135 351 -135 q 274 -149 297 -135 l 243 -122 l 321 -18 q 236 -4 276 -14 q 137 42 179 11 q 70 120 94 74 q 44 231 46 167 l 203 231 q 256 133 210 161 q 365 106 301 106 q 416 109 388 106 q 469 122 444 113 q 510 151 494 132 q 525 200 526 169 q 503 250 524 231 q 449 281 482 269 q 375 301 417 293 q 290 319 333 310 q 205 343 246 329 q 131 381 164 357 q 79 441 99 404 q 60 532 60 478 q 88 630 60 590 q 160 694 117 669 q 258 728 204 718 q 360 738 311 738 q 466 726 415 738 q 558 688 517 714 q 626 619 599 661 q 660 517 653 576 l 494 517 q 442 593 483 574 q 349 613 401 613 q 309 610 332 613 q 266 599 286 607 q 232 577 246 592 q 218 539 218 563 q 238 492 218 510 q 291 462 258 474 q 365 442 324 450 q 451 424 407 433 q 536 400 494 414 q 610 363 578 386 q 663 303 643 339 q 683 214 683 267 q 654 106 683 150 q 578 33 625 61 q 475 -7 532 6 q 386 -18 431 -17 l 338 -82 l 339 -83 q 358 -79 347 -81 q 385 -78 369 -78 q 426 -84 406 -78 q 464 -103 447 -90 q 492 -136 481 -117 q 503 -182 503 -156 q 488 -242 503 -218 q 449 -280 472 -265 q 395 -302 425 -294 q 335 -310 365 -310 q 259 -302 296 -310 q 192 -278 222 -294 l 217 -222 z "},"ș":{"ha":721,"x_min":44,"x_max":683,"o":"m 203 231 q 256 133 210 161 q 365 106 301 106 q 416 109 388 106 q 469 122 444 113 q 510 151 494 132 q 525 200 526 169 q 503 250 524 231 q 449 281 482 269 q 375 301 417 293 q 290 319 333 310 q 205 343 246 329 q 131 381 164 357 q 79 441 99 404 q 60 532 60 478 q 88 630 60 590 q 160 694 117 669 q 258 728 204 718 q 360 738 311 738 q 466 726 415 738 q 558 688 517 714 q 626 619 599 661 q 660 517 653 576 l 494 517 q 442 593 483 574 q 349 613 401 613 q 309 610 332 613 q 266 599 286 607 q 232 577 246 592 q 218 539 218 563 q 238 492 218 510 q 291 462 258 474 q 365 442 324 450 q 451 424 407 433 q 536 400 494 414 q 610 363 578 386 q 663 303 643 339 q 683 214 683 267 q 654 106 683 150 q 578 33 625 61 q 475 -7 532 6 q 363 -19 418 -19 q 237 -4 294 -19 q 137 42 179 11 q 70 120 94 74 q 44 231 46 167 l 203 231 m 265 -69 l 447 -69 l 447 -193 q 433 -248 447 -221 q 386 -291 419 -275 q 286 -310 353 -307 l 286 -257 q 330 -242 315 -253 q 349 -207 344 -231 l 265 -207 l 265 -69 z "},"ť":{"ha":543,"x_min":11,"x_max":635,"o":"m 461 992 l 635 992 l 522 793 l 417 793 l 461 992 m 11 718 l 131 718 l 131 933 l 289 933 l 289 718 l 432 718 l 432 600 l 289 600 l 289 217 q 291 174 289 192 q 301 143 293 156 q 324 124 308 131 q 365 118 339 118 q 399 119 382 118 q 432 124 415 119 l 432 1 q 381 -4 406 -1 q 329 -7 356 -7 q 228 5 267 -7 q 169 40 190 17 q 140 97 147 63 q 131 176 132 132 l 131 600 l 11 600 l 11 718 z "},"ţ":{"ha":463,"x_min":11,"x_max":432,"o":"m 11 718 l 131 718 l 131 933 l 289 933 l 289 718 l 432 718 l 432 600 l 289 600 l 289 217 q 291 174 289 192 q 301 143 293 156 q 324 124 308 131 q 365 118 339 118 q 399 119 382 118 q 432 124 415 119 l 432 1 q 381 -4 406 -1 q 329 -7 356 -7 q 228 5 267 -7 q 169 40 190 17 q 140 97 147 63 q 131 176 132 132 l 131 600 l 11 600 l 11 718 m 193 -69 l 375 -69 l 375 -193 q 361 -248 375 -221 q 314 -291 347 -275 q 214 -310 281 -307 l 214 -257 q 258 -242 243 -253 q 276 -207 272 -231 l 193 -207 l 193 -69 z "},"ŧ":{"ha":463,"x_min":0,"x_max":444,"o":"m 11 718 l 131 718 l 131 933 l 289 933 l 289 718 l 432 718 l 432 600 l 289 600 l 289 481 l 444 481 l 444 390 l 289 390 l 289 217 q 291 174 289 192 q 301 143 293 156 q 324 124 308 131 q 365 118 339 118 q 399 119 382 118 q 432 124 415 119 l 432 1 q 381 -4 406 -1 q 329 -7 356 -7 q 228 5 267 -7 q 169 40 190 17 q 140 97 147 63 q 131 176 132 132 l 131 390 l 0 390 l 0 481 l 131 481 l 131 600 l 11 600 l 11 718 z "},"ù":{"ha":797,"x_min":83,"x_max":714,"o":"m 714 0 l 558 0 l 558 100 l 556 100 q 469 13 526 46 q 351 -19 411 -19 q 147 51 210 -19 q 83 263 83 121 l 83 718 l 242 718 l 242 278 q 278 144 242 183 q 379 106 314 106 q 463 121 429 106 q 517 162 496 136 q 547 224 538 188 q 556 301 556 260 l 556 718 l 714 718 l 714 0 m 343 1017 l 469 818 l 354 818 l 157 1017 l 343 1017 z "},"ú":{"ha":797,"x_min":83,"x_max":714,"o":"m 714 0 l 558 0 l 558 100 l 556 100 q 469 13 526 46 q 351 -19 411 -19 q 147 51 210 -19 q 83 263 83 121 l 83 718 l 242 718 l 242 278 q 278 144 242 183 q 379 106 314 106 q 463 121 429 106 q 517 162 496 136 q 547 224 538 188 q 556 301 556 260 l 556 718 l 714 718 l 714 0 m 460 1017 l 647 1017 l 450 818 l 335 818 l 460 1017 z "},"û":{"ha":797,"x_min":83,"x_max":714,"o":"m 714 0 l 558 0 l 558 100 l 556 100 q 469 13 526 46 q 351 -19 411 -19 q 147 51 210 -19 q 83 263 83 121 l 83 718 l 242 718 l 242 278 q 278 144 242 183 q 379 106 314 106 q 463 121 429 106 q 517 162 496 136 q 547 224 538 188 q 556 301 556 260 l 556 718 l 714 718 l 714 0 m 301 818 l 174 818 l 322 1017 l 476 1017 l 626 818 l 497 818 l 399 943 l 301 818 z "},"ũ":{"ha":797,"x_min":83,"x_max":714,"o":"m 714 0 l 558 0 l 558 100 l 556 100 q 469 13 526 46 q 351 -19 411 -19 q 147 51 210 -19 q 83 263 83 121 l 83 718 l 242 718 l 242 278 q 278 144 242 183 q 379 106 314 106 q 463 121 429 106 q 517 162 496 136 q 547 224 538 188 q 556 301 556 260 l 556 718 l 714 718 l 714 0 m 646 1000 q 630 938 640 967 q 600 888 619 908 q 556 853 582 865 q 492 840 529 840 q 442 848 468 840 q 389 867 415 856 q 338 886 357 881 q 294 892 318 892 q 255 877 269 892 q 235 835 240 863 l 156 835 q 171 889 160 861 q 200 940 182 917 q 243 977 218 963 q 300 992 268 992 q 348 987 326 992 q 413 964 369 982 q 460 945 442 951 q 499 939 479 939 q 545 956 529 939 q 568 1000 561 972 l 646 1000 z "},"ü":{"ha":797,"x_min":83,"x_max":714,"o":"m 714 0 l 558 0 l 558 100 l 556 100 q 469 13 526 46 q 351 -19 411 -19 q 147 51 210 -19 q 83 263 83 121 l 83 718 l 242 718 l 242 278 q 278 144 242 183 q 379 106 314 106 q 463 121 429 106 q 517 162 496 136 q 547 224 538 188 q 556 301 556 260 l 556 718 l 714 718 l 714 0 m 199 836 l 199 986 l 357 986 l 357 836 l 199 836 m 596 986 l 596 836 l 438 836 l 438 986 l 596 986 z "},"ū":{"ha":797,"x_min":83,"x_max":714,"o":"m 714 0 l 558 0 l 558 100 l 556 100 q 469 13 526 46 q 351 -19 411 -19 q 147 51 210 -19 q 83 263 83 121 l 83 718 l 242 718 l 242 278 q 278 144 242 183 q 379 106 314 106 q 463 121 429 106 q 517 162 496 136 q 547 224 538 188 q 556 301 556 260 l 556 718 l 714 718 l 714 0 m 206 867 l 206 957 l 606 957 l 606 867 l 206 867 z "},"ŭ":{"ha":797,"x_min":83,"x_max":714,"o":"m 714 0 l 558 0 l 558 100 l 556 100 q 469 13 526 46 q 351 -19 411 -19 q 147 51 210 -19 q 83 263 83 121 l 83 718 l 242 718 l 242 278 q 278 144 242 183 q 379 106 314 106 q 463 121 429 106 q 517 162 496 136 q 547 224 538 188 q 556 301 556 260 l 556 718 l 714 718 l 714 0 m 263 1015 q 315 933 274 957 q 411 910 356 910 q 502 936 464 910 q 551 1015 540 963 l 631 1015 q 558 868 619 917 q 400 819 496 819 q 247 869 304 819 q 182 1015 190 919 l 263 1015 z "},"ů":{"ha":797,"x_min":83,"x_max":714,"o":"m 714 0 l 558 0 l 558 100 l 556 100 q 469 13 526 46 q 351 -19 411 -19 q 147 51 210 -19 q 83 263 83 121 l 83 718 l 242 718 l 242 278 q 278 144 242 183 q 379 106 314 106 q 463 121 429 106 q 517 162 496 136 q 547 224 538 188 q 556 301 556 260 l 556 718 l 714 718 l 714 0 m 322 936 q 347 876 322 900 q 406 851 371 851 q 465 876 442 851 q 489 936 489 900 q 465 997 489 974 q 406 1021 442 1021 q 347 997 371 1021 q 322 936 322 974 m 406 793 q 350 803 376 793 q 303 833 324 814 q 272 878 283 851 q 261 936 261 904 q 273 994 261 968 q 305 1040 285 1021 q 351 1069 325 1060 q 406 1079 376 1079 q 460 1069 435 1079 q 507 1040 486 1060 q 539 994 528 1021 q 550 936 550 968 q 539 878 550 904 q 507 833 528 851 q 460 803 486 814 q 406 793 435 793 z "},"ű":{"ha":797,"x_min":83,"x_max":792,"o":"m 714 0 l 558 0 l 558 100 l 556 100 q 469 13 526 46 q 351 -19 411 -19 q 147 51 210 -19 q 83 263 83 121 l 83 718 l 242 718 l 242 278 q 278 144 242 183 q 379 106 314 106 q 463 121 429 106 q 517 162 496 136 q 547 224 538 188 q 556 301 556 260 l 556 718 l 714 718 l 714 0 m 603 1017 l 792 1017 l 592 818 l 478 818 l 603 1017 m 326 1017 l 515 1017 l 315 818 l 201 818 l 326 1017 z "},"ŵ":{"ha":1081,"x_min":18,"x_max":1063,"o":"m 18 718 l 186 718 l 326 182 l 329 182 l 464 718 l 624 718 l 753 182 l 756 182 l 901 718 l 1063 718 l 838 0 l 675 0 l 542 533 l 539 533 l 407 0 l 240 0 l 18 718 m 450 818 l 322 818 l 471 1017 l 625 1017 l 775 818 l 646 818 l 547 943 l 450 818 z "},"ý":{"ha":721,"x_min":4,"x_max":715,"o":"m 4 718 l 178 718 l 365 182 l 368 182 l 550 718 l 715 718 l 436 -39 q 398 -132 417 -87 q 352 -210 379 -176 q 285 -265 325 -244 q 182 -285 244 -285 q 72 -276 126 -285 l 72 -143 q 110 -149 92 -146 q 147 -153 128 -153 q 193 -146 175 -153 q 223 -126 211 -139 q 243 -94 235 -112 q 258 -53 251 -76 l 276 3 l 4 718 m 432 1017 l 619 1017 l 422 818 l 307 818 l 432 1017 z "},"ŷ":{"ha":721,"x_min":4,"x_max":715,"o":"m 4 718 l 178 718 l 365 182 l 368 182 l 550 718 l 715 718 l 436 -39 q 398 -132 417 -87 q 352 -210 379 -176 q 285 -265 325 -244 q 182 -285 244 -285 q 72 -276 126 -285 l 72 -143 q 110 -149 92 -146 q 147 -153 128 -153 q 193 -146 175 -153 q 223 -126 211 -139 q 243 -94 235 -112 q 258 -53 251 -76 l 276 3 l 4 718 m 268 818 l 140 818 l 289 1017 l 443 1017 l 593 818 l 464 818 l 365 943 l 268 818 z "},"ÿ":{"ha":721,"x_min":4,"x_max":715,"o":"m 4 718 l 178 718 l 365 182 l 368 182 l 550 718 l 715 718 l 436 -39 q 398 -132 417 -87 q 352 -210 379 -176 q 285 -265 325 -244 q 182 -285 244 -285 q 72 -276 126 -285 l 72 -143 q 110 -149 92 -146 q 147 -153 128 -153 q 193 -146 175 -153 q 223 -126 211 -139 q 243 -94 235 -112 q 258 -53 251 -76 l 276 3 l 4 718 m 169 836 l 169 986 l 328 986 l 328 836 l 169 836 m 567 986 l 567 836 l 408 836 l 408 986 l 567 986 z "},"ź":{"ha":694,"x_min":31,"x_max":663,"o":"m 58 718 l 642 718 l 642 607 l 231 125 l 663 125 l 663 0 l 31 0 l 31 111 l 428 593 l 58 593 l 58 718 m 410 1017 l 597 1017 l 400 818 l 285 818 l 410 1017 z "},"ž":{"ha":694,"x_min":31,"x_max":663,"o":"m 58 718 l 642 718 l 642 607 l 231 125 l 663 125 l 663 0 l 31 0 l 31 111 l 428 593 l 58 593 l 58 718 m 428 818 l 274 818 l 125 1017 l 253 1017 l 350 893 l 449 1017 l 578 1017 l 428 818 z "},"ż":{"ha":694,"x_min":31,"x_max":663,"o":"m 58 718 l 642 718 l 642 607 l 231 125 l 663 125 l 663 0 l 31 0 l 31 111 l 428 593 l 58 593 l 58 718 m 271 836 l 271 986 l 429 986 l 429 836 l 271 836 z "},"Ĳ":{"ha":1140,"x_min":106,"x_max":1035,"o":"m 106 992 l 279 992 l 279 0 l 106 0 l 106 992 m 1035 319 q 1024 193 1035 254 q 978 83 1013 132 q 880 6 944 35 q 708 -24 815 -24 q 574 1 629 -24 q 482 67 518 25 q 429 168 446 110 q 413 294 413 226 l 413 347 l 586 347 l 586 296 q 615 165 586 211 q 722 118 643 118 q 791 131 764 118 q 834 167 818 143 q 856 228 850 192 q 861 310 861 264 l 861 992 l 1035 992 l 1035 319 z "},"ĳ":{"ha":658,"x_min":88,"x_max":569,"o":"m 88 992 l 246 992 l 246 842 l 88 842 l 88 992 m 88 718 l 246 718 l 246 0 l 88 0 l 88 718 m 411 992 l 569 992 l 569 842 l 411 842 l 411 992 m 411 718 l 569 718 l 569 -61 q 522 -226 569 -168 q 364 -285 475 -285 q 324 -283 340 -285 q 293 -279 308 -282 l 293 -154 q 322 -158 308 -157 q 347 -160 336 -160 q 401 -133 390 -160 q 411 -54 411 -107 l 411 718 z "},"ℓ":{"ha":694,"x_min":51,"x_max":611,"o":"m 611 67 q 396 -19 513 -19 q 243 33 299 -19 q 188 174 188 85 l 188 271 l 108 197 l 106 197 l 51 281 l 186 399 l 186 740 q 203 847 186 799 q 250 928 219 894 q 321 982 281 963 q 410 1001 361 1001 q 545 948 494 1001 q 596 804 596 894 q 533 594 596 699 q 342 374 469 490 l 342 199 q 350 148 342 168 q 372 116 358 128 q 401 99 385 104 q 433 94 417 94 q 556 147 490 94 l 558 147 l 611 67 l 611 67 m 469 794 q 453 868 469 839 q 408 897 436 897 q 361 865 381 897 q 342 769 342 832 l 342 506 q 439 652 408 578 q 469 794 469 726 z "},"℮":{"ha":833,"x_min":61,"x_max":779,"o":"m 218 360 l 218 108 q 419 26 300 26 q 571 66 507 26 q 688 193 635 106 l 736 164 q 672 78 704 114 q 601 20 639 43 q 518 -13 563 -3 q 419 -24 474 -24 q 272 6 338 -24 q 158 88 206 36 q 86 210 111 140 q 61 360 61 279 q 86 510 61 440 q 158 632 111 581 q 272 713 206 683 q 419 743 338 743 q 566 715 500 743 q 679 635 632 686 q 753 515 726 585 q 779 360 779 444 l 218 360 m 622 410 l 622 611 q 418 694 535 694 q 218 611 301 694 l 218 410 l 622 410 z "},"ų":{"ha":797,"x_min":83,"x_max":714,"o":"m 629 0 q 568 -55 593 -31 q 529 -101 543 -79 q 510 -141 515 -122 q 506 -179 506 -160 q 522 -224 506 -207 q 557 -240 538 -240 q 592 -231 576 -240 q 625 -193 608 -221 l 679 -206 q 657 -256 672 -236 q 622 -288 642 -276 q 582 -305 603 -300 q 542 -310 561 -310 q 510 -307 532 -310 q 465 -292 489 -304 q 425 -254 442 -279 q 408 -185 408 -229 q 410 -157 408 -174 q 427 -117 413 -140 q 472 -64 442 -93 q 558 0 503 -35 l 558 100 l 556 100 q 469 13 526 46 q 351 -19 411 -19 q 147 51 210 -19 q 83 263 83 121 l 83 718 l 242 718 l 242 278 q 278 144 242 183 q 379 106 314 106 q 463 121 429 106 q 517 162 496 136 q 547 224 538 188 q 556 301 556 260 l 556 718 l 714 718 l 714 0 l 629 0 z "},"ˉ":{"ha":335,"x_min":-32,"x_max":368,"o":"m -32 867 l -32 957 l 368 957 l 368 867 l -32 867 z "},"ț":{"ha":463,"x_min":11,"x_max":432,"o":"m 11 718 l 131 718 l 131 933 l 289 933 l 289 718 l 432 718 l 432 600 l 289 600 l 289 217 q 291 174 289 192 q 301 143 293 156 q 324 124 308 131 q 365 118 339 118 q 399 119 382 118 q 432 124 415 119 l 432 1 q 381 -4 406 -1 q 329 -7 356 -7 q 228 5 267 -7 q 169 40 190 17 q 140 97 147 63 q 131 176 132 132 l 131 600 l 11 600 l 11 718 m 193 -69 l 375 -69 l 375 -193 q 361 -248 375 -221 q 314 -291 347 -275 q 214 -310 281 -307 l 214 -257 q 258 -242 243 -253 q 276 -207 272 -231 l 193 -207 l 193 -69 z "},"­":{"ha":540,"x_min":68,"x_max":472,"o":"m 68 453 l 472 453 l 472 303 l 68 303 l 68 453 z "},"∙":{"ha":386,"x_min":89,"x_max":297,"o":"m 89 419 q 97 458 89 440 q 120 491 106 476 q 153 514 135 506 q 193 522 172 522 q 233 514 214 522 q 266 491 251 506 q 289 458 281 476 q 297 419 297 440 q 267 346 297 378 q 193 314 236 314 q 119 346 150 314 q 89 419 89 378 z "},"∕":{"ha":232,"x_min":-229,"x_max":461,"o":"m 353 1006 l 461 1006 l -119 -33 l -229 -33 l 353 1006 z "},"Δ":{"ha":949,"x_min":13,"x_max":938,"o":"m 464 817 l 214 136 l 728 136 l 464 817 m 13 0 l 390 989 l 543 989 l 938 0 l 13 0 z "},"Ω":{"ha":1051,"x_min":64,"x_max":969,"o":"m 592 0 l 592 261 q 688 299 646 272 q 757 365 729 326 q 799 453 785 404 q 814 556 814 501 q 792 676 814 619 q 732 774 771 732 q 638 840 693 815 q 518 864 583 864 q 397 840 451 864 q 303 773 343 815 q 242 674 264 731 q 221 553 221 617 q 276 364 221 440 q 440 261 331 288 l 440 0 l 64 0 l 64 126 l 318 126 l 318 192 q 207 249 254 213 q 128 333 160 285 q 80 440 96 382 q 64 564 64 499 q 99 740 64 660 q 197 878 135 821 q 340 969 258 936 q 517 1001 422 1001 q 694 970 611 1001 q 838 882 776 939 q 934 745 899 825 q 969 568 969 665 q 954 443 969 503 q 907 334 939 383 q 827 248 875 285 q 714 192 779 211 l 714 126 l 969 126 l 969 0 l 592 0 z "},"μ":{"ha":797,"x_min":83,"x_max":714,"o":"m 714 0 l 558 0 l 558 100 l 556 100 q 518 51 540 72 q 470 13 496 29 q 417 -11 444 -3 q 367 -19 390 -19 q 300 -8 335 -19 q 242 31 265 3 l 242 -265 l 83 -265 l 83 718 l 242 718 l 242 278 q 278 144 242 183 q 379 106 314 106 q 463 121 429 106 q 517 162 496 136 q 547 224 538 188 q 556 301 556 260 l 556 718 l 714 718 l 714 0 z "},"":{"ha":711,"x_min":0,"x_max":711,"o":"m 308 163 l 308 256 l 386 256 l 386 163 l 308 163 m 313 325 l 310 349 q 328 461 310 425 q 392 543 346 497 q 449 609 436 586 q 461 658 461 632 q 430 742 461 708 q 356 776 399 776 q 281 746 313 776 q 242 644 250 715 l 172 656 q 233 800 182 754 q 360 846 285 846 q 483 796 433 846 q 532 664 532 746 q 515 583 532 619 q 444 497 497 546 q 385 425 393 451 q 376 325 376 399 l 313 325 m 642 69 l 642 926 l 69 926 l 69 69 l 642 69 m 711 997 l 711 0 l 0 0 l 0 997 l 711 997 z "}}}
